M48
;DRILL file {KiCad (5.0.2)-1} date 25/03/2019 13:50:38
;FORMAT={-:-/ absolute / metric / decimal}
FMAT,2
METRIC,TZ
T1C0.400
T2C0.600
T3C0.800
T4C1.470
T5C0.650
T6C1.500
T7C1.750
T8C3.048
T9C3.988
%
G90
G05
T1
X58.737Y-101.6
X82.55Y-100.584
X101.6Y-100.076
X120.65Y-99.568
X139.7Y-99.06
X158.75Y-98.552
X177.8Y-98.044
X196.85Y-97.536
X309.372Y-47.244
X331.216Y-76.2
X331.216Y-79.756
X335.28Y-102.108
X336.057Y-70.668
X337.581Y-70.668
X338.836Y-75.692
X338.836Y-139.192
X340.121Y-70.668
X340.868Y-76.708
X340.868Y-130.048
X341.376Y-71.176
X341.376Y-124.968
X342.392Y-96.012
X343.916Y-131.572
X344.932Y-113.284
X344.932Y-133.604
X346.456Y-144.272
X346.456Y-155.448
X347.122Y-99.726
X347.122Y-126.647
X347.122Y-134.267
X347.472Y-80.772
X347.98Y-93.98
X347.98Y-124.46
X348.996Y-98.044
X348.996Y-139.7
X351.028Y-120.396
X351.536Y-118.364
X351.536Y-138.684
X352.044Y-119.888
X352.044Y-136.652
X352.203Y-116.586
X352.552Y-137.668
X353.568Y-118.999
X353.625Y-115.824
X353.727Y-138.684
X354.584Y-117.856
X354.584Y-134.112
X354.584Y-135.636
X354.742Y-126.647
X355.6Y-76.2
X355.6Y-79.248
X355.6Y-116.332
X355.6Y-123.952
X356.616Y-128.016
X356.616Y-131.572
X358.648Y-130.048
X359.156Y-131.572
X359.156Y-133.096
X359.156Y-139.7
T3
X352.325Y-106.25
X352.325Y-111.25
X355.525Y-108.75
T4
X170.021Y-146.685
X176.371Y-144.145
X55.721Y-146.685
X62.071Y-144.145
X115.252Y-127.635
X121.602Y-125.095
X177.165Y-89.535
X183.515Y-86.995
X96.203Y-127.635
X102.552Y-125.095
X134.302Y-127.635
X140.653Y-125.095
X248.602Y-127.635
X254.952Y-125.095
X229.552Y-127.635
X235.903Y-125.095
X72.39Y-70.485
X78.74Y-67.945
X91.44Y-70.485
X97.79Y-67.945
X110.49Y-70.485
X116.84Y-67.945
X129.54Y-70.485
X135.89Y-67.945
X348.615Y-146.685
X354.965Y-144.145
X329.565Y-146.685
X335.915Y-144.145
X241.459Y-146.685
X247.809Y-144.145
X289.084Y-146.685
X295.434Y-144.145
X265.271Y-146.685
X271.621Y-144.145
X298.609Y-127.635
X304.959Y-125.095
X329.565Y-127.635
X335.915Y-125.095
X348.615Y-89.535
X354.965Y-86.995
X348.615Y-70.485
X354.965Y-67.945
X315.277Y-89.535
X321.627Y-86.995
X143.827Y-108.585
X150.177Y-106.045
X162.877Y-108.585
X169.227Y-106.045
X181.927Y-108.585
X188.278Y-106.045
X215.265Y-89.535
X221.615Y-86.995
X200.977Y-108.585
X207.327Y-106.045
X220.028Y-108.585
X226.377Y-106.045
X239.077Y-108.585
X245.427Y-106.045
X310.515Y-146.685
X316.865Y-144.145
X210.502Y-127.635
X216.852Y-125.095
X191.452Y-127.635
X197.802Y-125.095
X234.315Y-89.535
X240.665Y-86.995
X253.365Y-89.535
X259.715Y-86.995
X81.915Y-89.535
X88.265Y-86.995
X139.065Y-89.535
X145.415Y-86.995
X105.727Y-108.585
X112.078Y-106.045
X65.246Y-127.635
X71.596Y-125.095
X158.115Y-89.535
X164.465Y-86.995
X58.102Y-89.535
X64.453Y-86.995
X196.215Y-89.535
X202.565Y-86.995
X153.352Y-127.635
X159.702Y-125.095
X100.965Y-89.535
X107.315Y-86.995
X77.153Y-146.685
X83.502Y-144.145
X148.59Y-70.485
X154.94Y-67.945
X167.64Y-70.485
X173.99Y-67.945
X186.69Y-70.485
X193.04Y-67.945
X205.74Y-70.485
X212.09Y-67.945
X224.79Y-70.485
X231.14Y-67.945
X243.84Y-70.485
X250.19Y-67.945
X277.178Y-108.585
X283.527Y-106.045
X262.89Y-70.485
X269.24Y-67.945
X267.652Y-127.635
X274.002Y-125.095
X258.127Y-108.585
X264.477Y-106.045
X281.94Y-70.485
X288.29Y-67.945
X272.415Y-89.535
X278.765Y-86.995
X291.465Y-89.535
X297.815Y-86.995
X86.677Y-108.585
X93.027Y-106.045
X98.584Y-146.685
X104.934Y-144.145
X172.403Y-127.635
X178.752Y-125.095
X310.515Y-70.485
X316.865Y-67.945
X60.484Y-108.585
X66.834Y-106.045
X124.777Y-108.585
X131.127Y-106.045
X120.015Y-89.535
X126.365Y-86.995
X308.134Y-108.585
X314.484Y-106.045
X53.34Y-70.485
X59.69Y-67.945
T5
X336.035Y-67.257
X341.815Y-67.257
T7
X168.751Y-149.225
X178.911Y-149.225
X54.451Y-149.225
X64.611Y-149.225
X113.983Y-130.175
X124.142Y-130.175
X175.895Y-92.075
X186.055Y-92.075
X94.932Y-130.175
X105.093Y-130.175
X133.032Y-130.175
X143.192Y-130.175
X247.332Y-130.175
X257.493Y-130.175
X228.282Y-130.175
X238.442Y-130.175
X71.12Y-73.025
X81.28Y-73.025
X90.17Y-73.025
X100.33Y-73.025
X109.22Y-73.025
X119.38Y-73.025
X128.27Y-73.025
X138.43Y-73.025
X347.345Y-149.225
X357.505Y-149.225
X328.295Y-149.225
X338.455Y-149.225
X240.189Y-149.225
X250.349Y-149.225
X287.814Y-149.225
X297.974Y-149.225
X264.001Y-149.225
X274.161Y-149.225
X297.339Y-130.175
X307.499Y-130.175
X328.295Y-130.175
X338.455Y-130.175
X347.345Y-92.075
X357.505Y-92.075
X347.345Y-73.025
X357.505Y-73.025
X314.007Y-92.075
X324.167Y-92.075
X142.558Y-111.125
X152.718Y-111.125
X161.607Y-111.125
X171.767Y-111.125
X180.657Y-111.125
X190.817Y-111.125
X213.995Y-92.075
X224.155Y-92.075
X199.707Y-111.125
X209.867Y-111.125
X218.757Y-111.125
X228.917Y-111.125
X237.807Y-111.125
X247.968Y-111.125
X309.245Y-149.225
X319.405Y-149.225
X209.232Y-130.175
X219.392Y-130.175
X190.183Y-130.175
X200.343Y-130.175
X233.045Y-92.075
X243.205Y-92.075
X252.095Y-92.075
X262.255Y-92.075
X80.645Y-92.075
X90.805Y-92.075
X137.795Y-92.075
X147.955Y-92.075
X104.457Y-111.125
X114.617Y-111.125
X63.976Y-130.175
X74.136Y-130.175
X156.845Y-92.075
X167.005Y-92.075
X56.832Y-92.075
X66.992Y-92.075
X194.945Y-92.075
X205.105Y-92.075
X152.082Y-130.175
X162.243Y-130.175
X99.695Y-92.075
X109.855Y-92.075
X75.882Y-149.225
X86.042Y-149.225
X147.32Y-73.025
X157.48Y-73.025
X166.37Y-73.025
X176.53Y-73.025
X185.42Y-73.025
X195.58Y-73.025
X204.47Y-73.025
X214.63Y-73.025
X223.52Y-73.025
X233.68Y-73.025
X242.57Y-73.025
X252.73Y-73.025
X275.907Y-111.125
X286.067Y-111.125
X261.62Y-73.025
X271.78Y-73.025
X266.382Y-130.175
X276.542Y-130.175
X256.858Y-111.125
X267.017Y-111.125
X280.67Y-73.025
X290.83Y-73.025
X271.145Y-92.075
X281.305Y-92.075
X290.195Y-92.075
X300.355Y-92.075
X85.407Y-111.125
X95.567Y-111.125
X97.314Y-149.225
X107.474Y-149.225
X171.132Y-130.175
X181.292Y-130.175
X309.245Y-73.025
X319.405Y-73.025
X59.214Y-111.125
X69.374Y-111.125
X123.507Y-111.125
X133.667Y-111.125
X118.745Y-92.075
X128.905Y-92.075
X306.864Y-111.125
X317.024Y-111.125
X52.07Y-73.025
X62.23Y-73.025
T8
X123.831Y-156.21
X223.831Y-156.21
X290.512Y-123.19
X314.325Y-123.19
X57.15Y-123.19
X80.962Y-123.19
X302.419Y-66.04
X326.231Y-66.04
X300.037Y-104.14
X323.85Y-104.14
T9
X123.831Y-140.97
X173.831Y-149.225
X223.831Y-140.97
X59.531Y-149.225
X119.062Y-130.175
X180.975Y-92.075
X100.012Y-130.175
X138.112Y-130.175
X252.412Y-130.175
X233.362Y-130.175
X76.2Y-73.025
X95.25Y-73.025
X114.3Y-73.025
X133.35Y-73.025
X352.425Y-149.225
X333.375Y-149.225
X245.269Y-149.225
X292.894Y-149.225
X269.081Y-149.225
X290.512Y-138.43
X302.419Y-130.175
X314.325Y-138.43
X333.375Y-130.175
X352.425Y-92.075
X352.425Y-73.025
X319.087Y-92.075
X147.637Y-111.125
X166.688Y-111.125
X185.737Y-111.125
X219.075Y-92.075
X204.787Y-111.125
X223.837Y-111.125
X242.887Y-111.125
X314.325Y-149.225
X214.312Y-130.175
X195.262Y-130.175
X238.125Y-92.075
X257.175Y-92.075
X85.725Y-92.075
X142.875Y-92.075
X109.537Y-111.125
X57.15Y-138.43
X69.056Y-130.175
X80.962Y-138.43
X161.925Y-92.075
X61.912Y-92.075
X200.025Y-92.075
X157.162Y-130.175
X104.775Y-92.075
X80.962Y-149.225
X152.4Y-73.025
X171.45Y-73.025
X190.5Y-73.025
X209.55Y-73.025
X228.6Y-73.025
X247.65Y-73.025
X280.988Y-111.125
X266.7Y-73.025
X271.462Y-130.175
X261.938Y-111.125
X285.75Y-73.025
X276.225Y-92.075
X295.275Y-92.075
X90.487Y-111.125
X102.394Y-149.225
X176.213Y-130.175
X302.419Y-81.28
X314.325Y-73.025
X326.231Y-81.28
X64.294Y-111.125
X128.588Y-111.125
X123.825Y-92.075
X300.037Y-119.38
X311.944Y-111.125
X323.85Y-119.38
X57.15Y-73.025
T2
X334.605Y-63.307G85X334.605Y-63.907
G05
X334.605Y-67.237G85X334.605Y-68.337
G05
X343.245Y-63.307G85X343.245Y-63.907
G05
X343.245Y-67.237G85X343.245Y-68.337
G05
T6
X65.15Y-71.275G85X65.15Y-74.775
G05
X67.531Y-147.475G85X67.531Y-150.975
G05
X127.062Y-128.425G85X127.062Y-131.925
G05
X131.825Y-90.325G85X131.825Y-93.825
G05
X196.787Y-109.375G85X196.787Y-112.875
G05
X279.837Y-128.425G85X279.837Y-131.925
G05
X344.425Y-147.475G85X344.425Y-150.975
G05
X265.175Y-90.325G85X265.175Y-93.825
G05
X344.425Y-71.275G85X344.425Y-74.775
G05
T0
M30
