G04 #@! TF.GenerationSoftware,KiCad,Pcbnew,(5.0.2)-1*
G04 #@! TF.CreationDate,2019-03-25T13:47:48+01:00*
G04 #@! TF.ProjectId,board_arm,626f6172-645f-4617-926d-2e6b69636164,rev?*
G04 #@! TF.SameCoordinates,Original*
G04 #@! TF.FileFunction,Paste,Bot*
G04 #@! TF.FilePolarity,Positive*
%FSLAX46Y46*%
G04 Gerber Fmt 4.6, Leading zero omitted, Abs format (unit mm)*
G04 Created by KiCad (PCBNEW (5.0.2)-1) date 25/03/2019 13:47:48*
%MOMM*%
%LPD*%
G01*
G04 APERTURE LIST*
%ADD10C,0.100000*%
%ADD11C,0.975000*%
%ADD12R,0.700000X0.600000*%
%ADD13R,0.700000X1.000000*%
%ADD14R,0.900000X1.200000*%
%ADD15R,1.200000X0.900000*%
%ADD16R,0.600000X1.450000*%
%ADD17R,0.300000X1.450000*%
G04 APERTURE END LIST*
D10*
G04 #@! TO.C,C2*
G36*
X347952142Y-132609674D02*
X347975803Y-132613184D01*
X347999007Y-132618996D01*
X348021529Y-132627054D01*
X348043153Y-132637282D01*
X348063670Y-132649579D01*
X348082883Y-132663829D01*
X348100607Y-132679893D01*
X348116671Y-132697617D01*
X348130921Y-132716830D01*
X348143218Y-132737347D01*
X348153446Y-132758971D01*
X348161504Y-132781493D01*
X348167316Y-132804697D01*
X348170826Y-132828358D01*
X348172000Y-132852250D01*
X348172000Y-133339750D01*
X348170826Y-133363642D01*
X348167316Y-133387303D01*
X348161504Y-133410507D01*
X348153446Y-133433029D01*
X348143218Y-133454653D01*
X348130921Y-133475170D01*
X348116671Y-133494383D01*
X348100607Y-133512107D01*
X348082883Y-133528171D01*
X348063670Y-133542421D01*
X348043153Y-133554718D01*
X348021529Y-133564946D01*
X347999007Y-133573004D01*
X347975803Y-133578816D01*
X347952142Y-133582326D01*
X347928250Y-133583500D01*
X347015750Y-133583500D01*
X346991858Y-133582326D01*
X346968197Y-133578816D01*
X346944993Y-133573004D01*
X346922471Y-133564946D01*
X346900847Y-133554718D01*
X346880330Y-133542421D01*
X346861117Y-133528171D01*
X346843393Y-133512107D01*
X346827329Y-133494383D01*
X346813079Y-133475170D01*
X346800782Y-133454653D01*
X346790554Y-133433029D01*
X346782496Y-133410507D01*
X346776684Y-133387303D01*
X346773174Y-133363642D01*
X346772000Y-133339750D01*
X346772000Y-132852250D01*
X346773174Y-132828358D01*
X346776684Y-132804697D01*
X346782496Y-132781493D01*
X346790554Y-132758971D01*
X346800782Y-132737347D01*
X346813079Y-132716830D01*
X346827329Y-132697617D01*
X346843393Y-132679893D01*
X346861117Y-132663829D01*
X346880330Y-132649579D01*
X346900847Y-132637282D01*
X346922471Y-132627054D01*
X346944993Y-132618996D01*
X346968197Y-132613184D01*
X346991858Y-132609674D01*
X347015750Y-132608500D01*
X347928250Y-132608500D01*
X347952142Y-132609674D01*
X347952142Y-132609674D01*
G37*
D11*
X347472000Y-133096000D03*
D10*
G36*
X347952142Y-130734674D02*
X347975803Y-130738184D01*
X347999007Y-130743996D01*
X348021529Y-130752054D01*
X348043153Y-130762282D01*
X348063670Y-130774579D01*
X348082883Y-130788829D01*
X348100607Y-130804893D01*
X348116671Y-130822617D01*
X348130921Y-130841830D01*
X348143218Y-130862347D01*
X348153446Y-130883971D01*
X348161504Y-130906493D01*
X348167316Y-130929697D01*
X348170826Y-130953358D01*
X348172000Y-130977250D01*
X348172000Y-131464750D01*
X348170826Y-131488642D01*
X348167316Y-131512303D01*
X348161504Y-131535507D01*
X348153446Y-131558029D01*
X348143218Y-131579653D01*
X348130921Y-131600170D01*
X348116671Y-131619383D01*
X348100607Y-131637107D01*
X348082883Y-131653171D01*
X348063670Y-131667421D01*
X348043153Y-131679718D01*
X348021529Y-131689946D01*
X347999007Y-131698004D01*
X347975803Y-131703816D01*
X347952142Y-131707326D01*
X347928250Y-131708500D01*
X347015750Y-131708500D01*
X346991858Y-131707326D01*
X346968197Y-131703816D01*
X346944993Y-131698004D01*
X346922471Y-131689946D01*
X346900847Y-131679718D01*
X346880330Y-131667421D01*
X346861117Y-131653171D01*
X346843393Y-131637107D01*
X346827329Y-131619383D01*
X346813079Y-131600170D01*
X346800782Y-131579653D01*
X346790554Y-131558029D01*
X346782496Y-131535507D01*
X346776684Y-131512303D01*
X346773174Y-131488642D01*
X346772000Y-131464750D01*
X346772000Y-130977250D01*
X346773174Y-130953358D01*
X346776684Y-130929697D01*
X346782496Y-130906493D01*
X346790554Y-130883971D01*
X346800782Y-130862347D01*
X346813079Y-130841830D01*
X346827329Y-130822617D01*
X346843393Y-130804893D01*
X346861117Y-130788829D01*
X346880330Y-130774579D01*
X346900847Y-130762282D01*
X346922471Y-130752054D01*
X346944993Y-130743996D01*
X346968197Y-130738184D01*
X346991858Y-130734674D01*
X347015750Y-130733500D01*
X347928250Y-130733500D01*
X347952142Y-130734674D01*
X347952142Y-130734674D01*
G37*
D11*
X347472000Y-131221000D03*
G04 #@! TD*
D12*
G04 #@! TO.C,U2*
X338088800Y-73584000D03*
X340088800Y-73584000D03*
X338088800Y-71684000D03*
D13*
X340088800Y-71884000D03*
G04 #@! TD*
D14*
G04 #@! TO.C,D1*
X66800000Y-67945000D03*
X63500000Y-67945000D03*
G04 #@! TD*
D15*
G04 #@! TO.C,D2*
X84137500Y-71375000D03*
X84137500Y-74675000D03*
G04 #@! TD*
G04 #@! TO.C,D3*
X103187500Y-74675000D03*
X103187500Y-71375000D03*
G04 #@! TD*
G04 #@! TO.C,D4*
X122237500Y-71375000D03*
X122237500Y-74675000D03*
G04 #@! TD*
G04 #@! TO.C,D5*
X141287500Y-74675000D03*
X141287500Y-71375000D03*
G04 #@! TD*
G04 #@! TO.C,D6*
X160337500Y-71375000D03*
X160337500Y-74675000D03*
G04 #@! TD*
G04 #@! TO.C,D7*
X179387500Y-74675000D03*
X179387500Y-71375000D03*
G04 #@! TD*
G04 #@! TO.C,D8*
X198437500Y-71375000D03*
X198437500Y-74675000D03*
G04 #@! TD*
G04 #@! TO.C,D9*
X217487500Y-74675000D03*
X217487500Y-71375000D03*
G04 #@! TD*
G04 #@! TO.C,D10*
X236537500Y-71375000D03*
X236537500Y-74675000D03*
G04 #@! TD*
G04 #@! TO.C,D11*
X255587500Y-71375000D03*
X255587500Y-74675000D03*
G04 #@! TD*
G04 #@! TO.C,D12*
X274637500Y-71375000D03*
X274637500Y-74675000D03*
G04 #@! TD*
G04 #@! TO.C,D13*
X293687500Y-74675000D03*
X293687500Y-71375000D03*
G04 #@! TD*
G04 #@! TO.C,D14*
X322262500Y-71375000D03*
X322262500Y-74675000D03*
G04 #@! TD*
G04 #@! TO.C,D15*
X359664000Y-74675000D03*
X359664000Y-71375000D03*
G04 #@! TD*
G04 #@! TO.C,D16*
X69850000Y-93725000D03*
X69850000Y-90425000D03*
G04 #@! TD*
G04 #@! TO.C,D17*
X93662500Y-90425000D03*
X93662500Y-93725000D03*
G04 #@! TD*
G04 #@! TO.C,D18*
X112712500Y-93725000D03*
X112712500Y-90425000D03*
G04 #@! TD*
D14*
G04 #@! TO.C,D19*
X130176000Y-86995000D03*
X133476000Y-86995000D03*
G04 #@! TD*
D15*
G04 #@! TO.C,D20*
X150812500Y-93725000D03*
X150812500Y-90425000D03*
G04 #@! TD*
G04 #@! TO.C,D21*
X169862500Y-90425000D03*
X169862500Y-93725000D03*
G04 #@! TD*
G04 #@! TO.C,D22*
X188912500Y-93725000D03*
X188912500Y-90425000D03*
G04 #@! TD*
G04 #@! TO.C,D23*
X207962500Y-90425000D03*
X207962500Y-93725000D03*
G04 #@! TD*
G04 #@! TO.C,D24*
X227012500Y-90425000D03*
X227012500Y-93725000D03*
G04 #@! TD*
G04 #@! TO.C,D25*
X246062500Y-93725000D03*
X246062500Y-90425000D03*
G04 #@! TD*
D14*
G04 #@! TO.C,D26*
X263526000Y-86995000D03*
X266826000Y-86995000D03*
G04 #@! TD*
D15*
G04 #@! TO.C,D27*
X284162500Y-93725000D03*
X284162500Y-90425000D03*
G04 #@! TD*
G04 #@! TO.C,D28*
X303212500Y-90425000D03*
X303212500Y-93725000D03*
G04 #@! TD*
G04 #@! TO.C,D29*
X327025000Y-93725000D03*
X327025000Y-90425000D03*
G04 #@! TD*
G04 #@! TO.C,D30*
X358648000Y-104140000D03*
X358648000Y-100840000D03*
G04 #@! TD*
G04 #@! TO.C,D31*
X72231250Y-109475000D03*
X72231250Y-112775000D03*
G04 #@! TD*
G04 #@! TO.C,D32*
X98425000Y-112775000D03*
X98425000Y-109475000D03*
G04 #@! TD*
G04 #@! TO.C,D33*
X117475000Y-112775000D03*
X117475000Y-109475000D03*
G04 #@! TD*
G04 #@! TO.C,D34*
X136525000Y-109475000D03*
X136525000Y-112775000D03*
G04 #@! TD*
D14*
G04 #@! TO.C,D35*
X153671000Y-106045000D03*
X156971000Y-106045000D03*
G04 #@! TD*
D15*
G04 #@! TO.C,D36*
X174625000Y-112775000D03*
X174625000Y-109475000D03*
G04 #@! TD*
G04 #@! TO.C,D37*
X193294000Y-109475000D03*
X193294000Y-112775000D03*
G04 #@! TD*
G04 #@! TO.C,D38*
X212725000Y-112775000D03*
X212725000Y-109475000D03*
G04 #@! TD*
G04 #@! TO.C,D39*
X231902000Y-109475000D03*
X231902000Y-112775000D03*
G04 #@! TD*
D14*
G04 #@! TO.C,D40*
X252221000Y-106045000D03*
X248921000Y-106045000D03*
G04 #@! TD*
D15*
G04 #@! TO.C,D41*
X269875000Y-109475000D03*
X269875000Y-112775000D03*
G04 #@! TD*
G04 #@! TO.C,D42*
X288925000Y-112775000D03*
X288925000Y-109475000D03*
G04 #@! TD*
G04 #@! TO.C,D43*
X319881250Y-109475000D03*
X319881250Y-112775000D03*
G04 #@! TD*
G04 #@! TO.C,D44*
X76993750Y-131825000D03*
X76993750Y-128525000D03*
G04 #@! TD*
G04 #@! TO.C,D45*
X107950000Y-131825000D03*
X107950000Y-128525000D03*
G04 #@! TD*
D14*
G04 #@! TO.C,D46*
X128650000Y-125095000D03*
X125350000Y-125095000D03*
G04 #@! TD*
D15*
G04 #@! TO.C,D47*
X146050000Y-131825000D03*
X146050000Y-128525000D03*
G04 #@! TD*
G04 #@! TO.C,D48*
X165100000Y-131825000D03*
X165100000Y-128525000D03*
G04 #@! TD*
G04 #@! TO.C,D49*
X184150000Y-128525000D03*
X184150000Y-131825000D03*
G04 #@! TD*
G04 #@! TO.C,D50*
X203200000Y-128525000D03*
X203200000Y-131825000D03*
G04 #@! TD*
G04 #@! TO.C,D51*
X222250000Y-131825000D03*
X222250000Y-128525000D03*
G04 #@! TD*
G04 #@! TO.C,D52*
X241300000Y-128525000D03*
X241300000Y-131825000D03*
G04 #@! TD*
G04 #@! TO.C,D53*
X260350000Y-131825000D03*
X260350000Y-128525000D03*
G04 #@! TD*
D14*
G04 #@! TO.C,D54*
X278131000Y-125095000D03*
X281431000Y-125095000D03*
G04 #@! TD*
D15*
G04 #@! TO.C,D55*
X310356250Y-131825000D03*
X310356250Y-128525000D03*
G04 #@! TD*
G04 #@! TO.C,D56*
X341312500Y-128525000D03*
X341312500Y-131825000D03*
G04 #@! TD*
D14*
G04 #@! TO.C,D57*
X65914000Y-144145000D03*
X69214000Y-144145000D03*
G04 #@! TD*
D15*
G04 #@! TO.C,D58*
X88900000Y-150875000D03*
X88900000Y-147575000D03*
G04 #@! TD*
G04 #@! TO.C,D59*
X110331250Y-147575000D03*
X110331250Y-150875000D03*
G04 #@! TD*
G04 #@! TO.C,D60*
X181768750Y-147575000D03*
X181768750Y-150875000D03*
G04 #@! TD*
G04 #@! TO.C,D61*
X253206250Y-150875000D03*
X253206250Y-147575000D03*
G04 #@! TD*
G04 #@! TO.C,D62*
X277018750Y-147575000D03*
X277018750Y-150875000D03*
G04 #@! TD*
G04 #@! TO.C,D63*
X300831250Y-150875000D03*
X300831250Y-147575000D03*
G04 #@! TD*
G04 #@! TO.C,D64*
X322262500Y-150875000D03*
X322262500Y-147575000D03*
G04 #@! TD*
G04 #@! TO.C,D65*
X340423500Y-147575000D03*
X340423500Y-150875000D03*
G04 #@! TD*
G04 #@! TO.C,D66*
X359664000Y-147575000D03*
X359664000Y-150875000D03*
G04 #@! TD*
D16*
G04 #@! TO.C,USB1*
X342150000Y-68701800D03*
X335700000Y-68701800D03*
X341375000Y-68701800D03*
X336475000Y-68701800D03*
D17*
X337175000Y-68701800D03*
X340675000Y-68701800D03*
X337675000Y-68701800D03*
X340175000Y-68701800D03*
X338175000Y-68701800D03*
X339675000Y-68701800D03*
X339175000Y-68701800D03*
X338675000Y-68701800D03*
G04 #@! TD*
D10*
G04 #@! TO.C,C3*
G36*
X354714624Y-127529674D02*
X354738285Y-127533184D01*
X354761489Y-127538996D01*
X354784011Y-127547054D01*
X354805635Y-127557282D01*
X354826152Y-127569579D01*
X354845365Y-127583829D01*
X354863089Y-127599893D01*
X354879153Y-127617617D01*
X354893403Y-127636830D01*
X354905700Y-127657347D01*
X354915928Y-127678971D01*
X354923986Y-127701493D01*
X354929798Y-127724697D01*
X354933308Y-127748358D01*
X354934482Y-127772250D01*
X354934482Y-128259750D01*
X354933308Y-128283642D01*
X354929798Y-128307303D01*
X354923986Y-128330507D01*
X354915928Y-128353029D01*
X354905700Y-128374653D01*
X354893403Y-128395170D01*
X354879153Y-128414383D01*
X354863089Y-128432107D01*
X354845365Y-128448171D01*
X354826152Y-128462421D01*
X354805635Y-128474718D01*
X354784011Y-128484946D01*
X354761489Y-128493004D01*
X354738285Y-128498816D01*
X354714624Y-128502326D01*
X354690732Y-128503500D01*
X353778232Y-128503500D01*
X353754340Y-128502326D01*
X353730679Y-128498816D01*
X353707475Y-128493004D01*
X353684953Y-128484946D01*
X353663329Y-128474718D01*
X353642812Y-128462421D01*
X353623599Y-128448171D01*
X353605875Y-128432107D01*
X353589811Y-128414383D01*
X353575561Y-128395170D01*
X353563264Y-128374653D01*
X353553036Y-128353029D01*
X353544978Y-128330507D01*
X353539166Y-128307303D01*
X353535656Y-128283642D01*
X353534482Y-128259750D01*
X353534482Y-127772250D01*
X353535656Y-127748358D01*
X353539166Y-127724697D01*
X353544978Y-127701493D01*
X353553036Y-127678971D01*
X353563264Y-127657347D01*
X353575561Y-127636830D01*
X353589811Y-127617617D01*
X353605875Y-127599893D01*
X353623599Y-127583829D01*
X353642812Y-127569579D01*
X353663329Y-127557282D01*
X353684953Y-127547054D01*
X353707475Y-127538996D01*
X353730679Y-127533184D01*
X353754340Y-127529674D01*
X353778232Y-127528500D01*
X354690732Y-127528500D01*
X354714624Y-127529674D01*
X354714624Y-127529674D01*
G37*
D11*
X354234482Y-128016000D03*
D10*
G36*
X354714624Y-129404674D02*
X354738285Y-129408184D01*
X354761489Y-129413996D01*
X354784011Y-129422054D01*
X354805635Y-129432282D01*
X354826152Y-129444579D01*
X354845365Y-129458829D01*
X354863089Y-129474893D01*
X354879153Y-129492617D01*
X354893403Y-129511830D01*
X354905700Y-129532347D01*
X354915928Y-129553971D01*
X354923986Y-129576493D01*
X354929798Y-129599697D01*
X354933308Y-129623358D01*
X354934482Y-129647250D01*
X354934482Y-130134750D01*
X354933308Y-130158642D01*
X354929798Y-130182303D01*
X354923986Y-130205507D01*
X354915928Y-130228029D01*
X354905700Y-130249653D01*
X354893403Y-130270170D01*
X354879153Y-130289383D01*
X354863089Y-130307107D01*
X354845365Y-130323171D01*
X354826152Y-130337421D01*
X354805635Y-130349718D01*
X354784011Y-130359946D01*
X354761489Y-130368004D01*
X354738285Y-130373816D01*
X354714624Y-130377326D01*
X354690732Y-130378500D01*
X353778232Y-130378500D01*
X353754340Y-130377326D01*
X353730679Y-130373816D01*
X353707475Y-130368004D01*
X353684953Y-130359946D01*
X353663329Y-130349718D01*
X353642812Y-130337421D01*
X353623599Y-130323171D01*
X353605875Y-130307107D01*
X353589811Y-130289383D01*
X353575561Y-130270170D01*
X353563264Y-130249653D01*
X353553036Y-130228029D01*
X353544978Y-130205507D01*
X353539166Y-130182303D01*
X353535656Y-130158642D01*
X353534482Y-130134750D01*
X353534482Y-129647250D01*
X353535656Y-129623358D01*
X353539166Y-129599697D01*
X353544978Y-129576493D01*
X353553036Y-129553971D01*
X353563264Y-129532347D01*
X353575561Y-129511830D01*
X353589811Y-129492617D01*
X353605875Y-129474893D01*
X353623599Y-129458829D01*
X353642812Y-129444579D01*
X353663329Y-129432282D01*
X353684953Y-129422054D01*
X353707475Y-129413996D01*
X353730679Y-129408184D01*
X353754340Y-129404674D01*
X353778232Y-129403500D01*
X354690732Y-129403500D01*
X354714624Y-129404674D01*
X354714624Y-129404674D01*
G37*
D11*
X354234482Y-129891000D03*
G04 #@! TD*
D10*
G04 #@! TO.C,C4*
G36*
X348755642Y-126301174D02*
X348779303Y-126304684D01*
X348802507Y-126310496D01*
X348825029Y-126318554D01*
X348846653Y-126328782D01*
X348867170Y-126341079D01*
X348886383Y-126355329D01*
X348904107Y-126371393D01*
X348920171Y-126389117D01*
X348934421Y-126408330D01*
X348946718Y-126428847D01*
X348956946Y-126450471D01*
X348965004Y-126472993D01*
X348970816Y-126496197D01*
X348974326Y-126519858D01*
X348975500Y-126543750D01*
X348975500Y-127456250D01*
X348974326Y-127480142D01*
X348970816Y-127503803D01*
X348965004Y-127527007D01*
X348956946Y-127549529D01*
X348946718Y-127571153D01*
X348934421Y-127591670D01*
X348920171Y-127610883D01*
X348904107Y-127628607D01*
X348886383Y-127644671D01*
X348867170Y-127658921D01*
X348846653Y-127671218D01*
X348825029Y-127681446D01*
X348802507Y-127689504D01*
X348779303Y-127695316D01*
X348755642Y-127698826D01*
X348731750Y-127700000D01*
X348244250Y-127700000D01*
X348220358Y-127698826D01*
X348196697Y-127695316D01*
X348173493Y-127689504D01*
X348150971Y-127681446D01*
X348129347Y-127671218D01*
X348108830Y-127658921D01*
X348089617Y-127644671D01*
X348071893Y-127628607D01*
X348055829Y-127610883D01*
X348041579Y-127591670D01*
X348029282Y-127571153D01*
X348019054Y-127549529D01*
X348010996Y-127527007D01*
X348005184Y-127503803D01*
X348001674Y-127480142D01*
X348000500Y-127456250D01*
X348000500Y-126543750D01*
X348001674Y-126519858D01*
X348005184Y-126496197D01*
X348010996Y-126472993D01*
X348019054Y-126450471D01*
X348029282Y-126428847D01*
X348041579Y-126408330D01*
X348055829Y-126389117D01*
X348071893Y-126371393D01*
X348089617Y-126355329D01*
X348108830Y-126341079D01*
X348129347Y-126328782D01*
X348150971Y-126318554D01*
X348173493Y-126310496D01*
X348196697Y-126304684D01*
X348220358Y-126301174D01*
X348244250Y-126300000D01*
X348731750Y-126300000D01*
X348755642Y-126301174D01*
X348755642Y-126301174D01*
G37*
D11*
X348488000Y-127000000D03*
D10*
G36*
X350630642Y-126301174D02*
X350654303Y-126304684D01*
X350677507Y-126310496D01*
X350700029Y-126318554D01*
X350721653Y-126328782D01*
X350742170Y-126341079D01*
X350761383Y-126355329D01*
X350779107Y-126371393D01*
X350795171Y-126389117D01*
X350809421Y-126408330D01*
X350821718Y-126428847D01*
X350831946Y-126450471D01*
X350840004Y-126472993D01*
X350845816Y-126496197D01*
X350849326Y-126519858D01*
X350850500Y-126543750D01*
X350850500Y-127456250D01*
X350849326Y-127480142D01*
X350845816Y-127503803D01*
X350840004Y-127527007D01*
X350831946Y-127549529D01*
X350821718Y-127571153D01*
X350809421Y-127591670D01*
X350795171Y-127610883D01*
X350779107Y-127628607D01*
X350761383Y-127644671D01*
X350742170Y-127658921D01*
X350721653Y-127671218D01*
X350700029Y-127681446D01*
X350677507Y-127689504D01*
X350654303Y-127695316D01*
X350630642Y-127698826D01*
X350606750Y-127700000D01*
X350119250Y-127700000D01*
X350095358Y-127698826D01*
X350071697Y-127695316D01*
X350048493Y-127689504D01*
X350025971Y-127681446D01*
X350004347Y-127671218D01*
X349983830Y-127658921D01*
X349964617Y-127644671D01*
X349946893Y-127628607D01*
X349930829Y-127610883D01*
X349916579Y-127591670D01*
X349904282Y-127571153D01*
X349894054Y-127549529D01*
X349885996Y-127527007D01*
X349880184Y-127503803D01*
X349876674Y-127480142D01*
X349875500Y-127456250D01*
X349875500Y-126543750D01*
X349876674Y-126519858D01*
X349880184Y-126496197D01*
X349885996Y-126472993D01*
X349894054Y-126450471D01*
X349904282Y-126428847D01*
X349916579Y-126408330D01*
X349930829Y-126389117D01*
X349946893Y-126371393D01*
X349964617Y-126355329D01*
X349983830Y-126341079D01*
X350004347Y-126328782D01*
X350025971Y-126318554D01*
X350048493Y-126310496D01*
X350071697Y-126304684D01*
X350095358Y-126301174D01*
X350119250Y-126300000D01*
X350606750Y-126300000D01*
X350630642Y-126301174D01*
X350630642Y-126301174D01*
G37*
D11*
X350363000Y-127000000D03*
G04 #@! TD*
D10*
G04 #@! TO.C,C6*
G36*
X353486124Y-133060658D02*
X353509785Y-133064168D01*
X353532989Y-133069980D01*
X353555511Y-133078038D01*
X353577135Y-133088266D01*
X353597652Y-133100563D01*
X353616865Y-133114813D01*
X353634589Y-133130877D01*
X353650653Y-133148601D01*
X353664903Y-133167814D01*
X353677200Y-133188331D01*
X353687428Y-133209955D01*
X353695486Y-133232477D01*
X353701298Y-133255681D01*
X353704808Y-133279342D01*
X353705982Y-133303234D01*
X353705982Y-134215734D01*
X353704808Y-134239626D01*
X353701298Y-134263287D01*
X353695486Y-134286491D01*
X353687428Y-134309013D01*
X353677200Y-134330637D01*
X353664903Y-134351154D01*
X353650653Y-134370367D01*
X353634589Y-134388091D01*
X353616865Y-134404155D01*
X353597652Y-134418405D01*
X353577135Y-134430702D01*
X353555511Y-134440930D01*
X353532989Y-134448988D01*
X353509785Y-134454800D01*
X353486124Y-134458310D01*
X353462232Y-134459484D01*
X352974732Y-134459484D01*
X352950840Y-134458310D01*
X352927179Y-134454800D01*
X352903975Y-134448988D01*
X352881453Y-134440930D01*
X352859829Y-134430702D01*
X352839312Y-134418405D01*
X352820099Y-134404155D01*
X352802375Y-134388091D01*
X352786311Y-134370367D01*
X352772061Y-134351154D01*
X352759764Y-134330637D01*
X352749536Y-134309013D01*
X352741478Y-134286491D01*
X352735666Y-134263287D01*
X352732156Y-134239626D01*
X352730982Y-134215734D01*
X352730982Y-133303234D01*
X352732156Y-133279342D01*
X352735666Y-133255681D01*
X352741478Y-133232477D01*
X352749536Y-133209955D01*
X352759764Y-133188331D01*
X352772061Y-133167814D01*
X352786311Y-133148601D01*
X352802375Y-133130877D01*
X352820099Y-133114813D01*
X352839312Y-133100563D01*
X352859829Y-133088266D01*
X352881453Y-133078038D01*
X352903975Y-133069980D01*
X352927179Y-133064168D01*
X352950840Y-133060658D01*
X352974732Y-133059484D01*
X353462232Y-133059484D01*
X353486124Y-133060658D01*
X353486124Y-133060658D01*
G37*
D11*
X353218482Y-133759484D03*
D10*
G36*
X351611124Y-133060658D02*
X351634785Y-133064168D01*
X351657989Y-133069980D01*
X351680511Y-133078038D01*
X351702135Y-133088266D01*
X351722652Y-133100563D01*
X351741865Y-133114813D01*
X351759589Y-133130877D01*
X351775653Y-133148601D01*
X351789903Y-133167814D01*
X351802200Y-133188331D01*
X351812428Y-133209955D01*
X351820486Y-133232477D01*
X351826298Y-133255681D01*
X351829808Y-133279342D01*
X351830982Y-133303234D01*
X351830982Y-134215734D01*
X351829808Y-134239626D01*
X351826298Y-134263287D01*
X351820486Y-134286491D01*
X351812428Y-134309013D01*
X351802200Y-134330637D01*
X351789903Y-134351154D01*
X351775653Y-134370367D01*
X351759589Y-134388091D01*
X351741865Y-134404155D01*
X351722652Y-134418405D01*
X351702135Y-134430702D01*
X351680511Y-134440930D01*
X351657989Y-134448988D01*
X351634785Y-134454800D01*
X351611124Y-134458310D01*
X351587232Y-134459484D01*
X351099732Y-134459484D01*
X351075840Y-134458310D01*
X351052179Y-134454800D01*
X351028975Y-134448988D01*
X351006453Y-134440930D01*
X350984829Y-134430702D01*
X350964312Y-134418405D01*
X350945099Y-134404155D01*
X350927375Y-134388091D01*
X350911311Y-134370367D01*
X350897061Y-134351154D01*
X350884764Y-134330637D01*
X350874536Y-134309013D01*
X350866478Y-134286491D01*
X350860666Y-134263287D01*
X350857156Y-134239626D01*
X350855982Y-134215734D01*
X350855982Y-133303234D01*
X350857156Y-133279342D01*
X350860666Y-133255681D01*
X350866478Y-133232477D01*
X350874536Y-133209955D01*
X350884764Y-133188331D01*
X350897061Y-133167814D01*
X350911311Y-133148601D01*
X350927375Y-133130877D01*
X350945099Y-133114813D01*
X350964312Y-133100563D01*
X350984829Y-133088266D01*
X351006453Y-133078038D01*
X351028975Y-133069980D01*
X351052179Y-133064168D01*
X351075840Y-133060658D01*
X351099732Y-133059484D01*
X351587232Y-133059484D01*
X351611124Y-133060658D01*
X351611124Y-133060658D01*
G37*
D11*
X351343482Y-133759484D03*
G04 #@! TD*
D10*
G04 #@! TO.C,R1*
G36*
X343380142Y-121020174D02*
X343403803Y-121023684D01*
X343427007Y-121029496D01*
X343449529Y-121037554D01*
X343471153Y-121047782D01*
X343491670Y-121060079D01*
X343510883Y-121074329D01*
X343528607Y-121090393D01*
X343544671Y-121108117D01*
X343558921Y-121127330D01*
X343571218Y-121147847D01*
X343581446Y-121169471D01*
X343589504Y-121191993D01*
X343595316Y-121215197D01*
X343598826Y-121238858D01*
X343600000Y-121262750D01*
X343600000Y-121750250D01*
X343598826Y-121774142D01*
X343595316Y-121797803D01*
X343589504Y-121821007D01*
X343581446Y-121843529D01*
X343571218Y-121865153D01*
X343558921Y-121885670D01*
X343544671Y-121904883D01*
X343528607Y-121922607D01*
X343510883Y-121938671D01*
X343491670Y-121952921D01*
X343471153Y-121965218D01*
X343449529Y-121975446D01*
X343427007Y-121983504D01*
X343403803Y-121989316D01*
X343380142Y-121992826D01*
X343356250Y-121994000D01*
X342443750Y-121994000D01*
X342419858Y-121992826D01*
X342396197Y-121989316D01*
X342372993Y-121983504D01*
X342350471Y-121975446D01*
X342328847Y-121965218D01*
X342308330Y-121952921D01*
X342289117Y-121938671D01*
X342271393Y-121922607D01*
X342255329Y-121904883D01*
X342241079Y-121885670D01*
X342228782Y-121865153D01*
X342218554Y-121843529D01*
X342210496Y-121821007D01*
X342204684Y-121797803D01*
X342201174Y-121774142D01*
X342200000Y-121750250D01*
X342200000Y-121262750D01*
X342201174Y-121238858D01*
X342204684Y-121215197D01*
X342210496Y-121191993D01*
X342218554Y-121169471D01*
X342228782Y-121147847D01*
X342241079Y-121127330D01*
X342255329Y-121108117D01*
X342271393Y-121090393D01*
X342289117Y-121074329D01*
X342308330Y-121060079D01*
X342328847Y-121047782D01*
X342350471Y-121037554D01*
X342372993Y-121029496D01*
X342396197Y-121023684D01*
X342419858Y-121020174D01*
X342443750Y-121019000D01*
X343356250Y-121019000D01*
X343380142Y-121020174D01*
X343380142Y-121020174D01*
G37*
D11*
X342900000Y-121506500D03*
D10*
G36*
X343380142Y-122895174D02*
X343403803Y-122898684D01*
X343427007Y-122904496D01*
X343449529Y-122912554D01*
X343471153Y-122922782D01*
X343491670Y-122935079D01*
X343510883Y-122949329D01*
X343528607Y-122965393D01*
X343544671Y-122983117D01*
X343558921Y-123002330D01*
X343571218Y-123022847D01*
X343581446Y-123044471D01*
X343589504Y-123066993D01*
X343595316Y-123090197D01*
X343598826Y-123113858D01*
X343600000Y-123137750D01*
X343600000Y-123625250D01*
X343598826Y-123649142D01*
X343595316Y-123672803D01*
X343589504Y-123696007D01*
X343581446Y-123718529D01*
X343571218Y-123740153D01*
X343558921Y-123760670D01*
X343544671Y-123779883D01*
X343528607Y-123797607D01*
X343510883Y-123813671D01*
X343491670Y-123827921D01*
X343471153Y-123840218D01*
X343449529Y-123850446D01*
X343427007Y-123858504D01*
X343403803Y-123864316D01*
X343380142Y-123867826D01*
X343356250Y-123869000D01*
X342443750Y-123869000D01*
X342419858Y-123867826D01*
X342396197Y-123864316D01*
X342372993Y-123858504D01*
X342350471Y-123850446D01*
X342328847Y-123840218D01*
X342308330Y-123827921D01*
X342289117Y-123813671D01*
X342271393Y-123797607D01*
X342255329Y-123779883D01*
X342241079Y-123760670D01*
X342228782Y-123740153D01*
X342218554Y-123718529D01*
X342210496Y-123696007D01*
X342204684Y-123672803D01*
X342201174Y-123649142D01*
X342200000Y-123625250D01*
X342200000Y-123137750D01*
X342201174Y-123113858D01*
X342204684Y-123090197D01*
X342210496Y-123066993D01*
X342218554Y-123044471D01*
X342228782Y-123022847D01*
X342241079Y-123002330D01*
X342255329Y-122983117D01*
X342271393Y-122965393D01*
X342289117Y-122949329D01*
X342308330Y-122935079D01*
X342328847Y-122922782D01*
X342350471Y-122912554D01*
X342372993Y-122904496D01*
X342396197Y-122898684D01*
X342419858Y-122895174D01*
X342443750Y-122894000D01*
X343356250Y-122894000D01*
X343380142Y-122895174D01*
X343380142Y-122895174D01*
G37*
D11*
X342900000Y-123381500D03*
G04 #@! TD*
D10*
G04 #@! TO.C,R3*
G36*
X358407642Y-125285174D02*
X358431303Y-125288684D01*
X358454507Y-125294496D01*
X358477029Y-125302554D01*
X358498653Y-125312782D01*
X358519170Y-125325079D01*
X358538383Y-125339329D01*
X358556107Y-125355393D01*
X358572171Y-125373117D01*
X358586421Y-125392330D01*
X358598718Y-125412847D01*
X358608946Y-125434471D01*
X358617004Y-125456993D01*
X358622816Y-125480197D01*
X358626326Y-125503858D01*
X358627500Y-125527750D01*
X358627500Y-126440250D01*
X358626326Y-126464142D01*
X358622816Y-126487803D01*
X358617004Y-126511007D01*
X358608946Y-126533529D01*
X358598718Y-126555153D01*
X358586421Y-126575670D01*
X358572171Y-126594883D01*
X358556107Y-126612607D01*
X358538383Y-126628671D01*
X358519170Y-126642921D01*
X358498653Y-126655218D01*
X358477029Y-126665446D01*
X358454507Y-126673504D01*
X358431303Y-126679316D01*
X358407642Y-126682826D01*
X358383750Y-126684000D01*
X357896250Y-126684000D01*
X357872358Y-126682826D01*
X357848697Y-126679316D01*
X357825493Y-126673504D01*
X357802971Y-126665446D01*
X357781347Y-126655218D01*
X357760830Y-126642921D01*
X357741617Y-126628671D01*
X357723893Y-126612607D01*
X357707829Y-126594883D01*
X357693579Y-126575670D01*
X357681282Y-126555153D01*
X357671054Y-126533529D01*
X357662996Y-126511007D01*
X357657184Y-126487803D01*
X357653674Y-126464142D01*
X357652500Y-126440250D01*
X357652500Y-125527750D01*
X357653674Y-125503858D01*
X357657184Y-125480197D01*
X357662996Y-125456993D01*
X357671054Y-125434471D01*
X357681282Y-125412847D01*
X357693579Y-125392330D01*
X357707829Y-125373117D01*
X357723893Y-125355393D01*
X357741617Y-125339329D01*
X357760830Y-125325079D01*
X357781347Y-125312782D01*
X357802971Y-125302554D01*
X357825493Y-125294496D01*
X357848697Y-125288684D01*
X357872358Y-125285174D01*
X357896250Y-125284000D01*
X358383750Y-125284000D01*
X358407642Y-125285174D01*
X358407642Y-125285174D01*
G37*
D11*
X358140000Y-125984000D03*
D10*
G36*
X356532642Y-125285174D02*
X356556303Y-125288684D01*
X356579507Y-125294496D01*
X356602029Y-125302554D01*
X356623653Y-125312782D01*
X356644170Y-125325079D01*
X356663383Y-125339329D01*
X356681107Y-125355393D01*
X356697171Y-125373117D01*
X356711421Y-125392330D01*
X356723718Y-125412847D01*
X356733946Y-125434471D01*
X356742004Y-125456993D01*
X356747816Y-125480197D01*
X356751326Y-125503858D01*
X356752500Y-125527750D01*
X356752500Y-126440250D01*
X356751326Y-126464142D01*
X356747816Y-126487803D01*
X356742004Y-126511007D01*
X356733946Y-126533529D01*
X356723718Y-126555153D01*
X356711421Y-126575670D01*
X356697171Y-126594883D01*
X356681107Y-126612607D01*
X356663383Y-126628671D01*
X356644170Y-126642921D01*
X356623653Y-126655218D01*
X356602029Y-126665446D01*
X356579507Y-126673504D01*
X356556303Y-126679316D01*
X356532642Y-126682826D01*
X356508750Y-126684000D01*
X356021250Y-126684000D01*
X355997358Y-126682826D01*
X355973697Y-126679316D01*
X355950493Y-126673504D01*
X355927971Y-126665446D01*
X355906347Y-126655218D01*
X355885830Y-126642921D01*
X355866617Y-126628671D01*
X355848893Y-126612607D01*
X355832829Y-126594883D01*
X355818579Y-126575670D01*
X355806282Y-126555153D01*
X355796054Y-126533529D01*
X355787996Y-126511007D01*
X355782184Y-126487803D01*
X355778674Y-126464142D01*
X355777500Y-126440250D01*
X355777500Y-125527750D01*
X355778674Y-125503858D01*
X355782184Y-125480197D01*
X355787996Y-125456993D01*
X355796054Y-125434471D01*
X355806282Y-125412847D01*
X355818579Y-125392330D01*
X355832829Y-125373117D01*
X355848893Y-125355393D01*
X355866617Y-125339329D01*
X355885830Y-125325079D01*
X355906347Y-125312782D01*
X355927971Y-125302554D01*
X355950493Y-125294496D01*
X355973697Y-125288684D01*
X355997358Y-125285174D01*
X356021250Y-125284000D01*
X356508750Y-125284000D01*
X356532642Y-125285174D01*
X356532642Y-125285174D01*
G37*
D11*
X356265000Y-125984000D03*
G04 #@! TD*
D10*
G04 #@! TO.C,C1*
G36*
X356532642Y-134325174D02*
X356556303Y-134328684D01*
X356579507Y-134334496D01*
X356602029Y-134342554D01*
X356623653Y-134352782D01*
X356644170Y-134365079D01*
X356663383Y-134379329D01*
X356681107Y-134395393D01*
X356697171Y-134413117D01*
X356711421Y-134432330D01*
X356723718Y-134452847D01*
X356733946Y-134474471D01*
X356742004Y-134496993D01*
X356747816Y-134520197D01*
X356751326Y-134543858D01*
X356752500Y-134567750D01*
X356752500Y-135480250D01*
X356751326Y-135504142D01*
X356747816Y-135527803D01*
X356742004Y-135551007D01*
X356733946Y-135573529D01*
X356723718Y-135595153D01*
X356711421Y-135615670D01*
X356697171Y-135634883D01*
X356681107Y-135652607D01*
X356663383Y-135668671D01*
X356644170Y-135682921D01*
X356623653Y-135695218D01*
X356602029Y-135705446D01*
X356579507Y-135713504D01*
X356556303Y-135719316D01*
X356532642Y-135722826D01*
X356508750Y-135724000D01*
X356021250Y-135724000D01*
X355997358Y-135722826D01*
X355973697Y-135719316D01*
X355950493Y-135713504D01*
X355927971Y-135705446D01*
X355906347Y-135695218D01*
X355885830Y-135682921D01*
X355866617Y-135668671D01*
X355848893Y-135652607D01*
X355832829Y-135634883D01*
X355818579Y-135615670D01*
X355806282Y-135595153D01*
X355796054Y-135573529D01*
X355787996Y-135551007D01*
X355782184Y-135527803D01*
X355778674Y-135504142D01*
X355777500Y-135480250D01*
X355777500Y-134567750D01*
X355778674Y-134543858D01*
X355782184Y-134520197D01*
X355787996Y-134496993D01*
X355796054Y-134474471D01*
X355806282Y-134452847D01*
X355818579Y-134432330D01*
X355832829Y-134413117D01*
X355848893Y-134395393D01*
X355866617Y-134379329D01*
X355885830Y-134365079D01*
X355906347Y-134352782D01*
X355927971Y-134342554D01*
X355950493Y-134334496D01*
X355973697Y-134328684D01*
X355997358Y-134325174D01*
X356021250Y-134324000D01*
X356508750Y-134324000D01*
X356532642Y-134325174D01*
X356532642Y-134325174D01*
G37*
D11*
X356265000Y-135024000D03*
D10*
G36*
X358407642Y-134325174D02*
X358431303Y-134328684D01*
X358454507Y-134334496D01*
X358477029Y-134342554D01*
X358498653Y-134352782D01*
X358519170Y-134365079D01*
X358538383Y-134379329D01*
X358556107Y-134395393D01*
X358572171Y-134413117D01*
X358586421Y-134432330D01*
X358598718Y-134452847D01*
X358608946Y-134474471D01*
X358617004Y-134496993D01*
X358622816Y-134520197D01*
X358626326Y-134543858D01*
X358627500Y-134567750D01*
X358627500Y-135480250D01*
X358626326Y-135504142D01*
X358622816Y-135527803D01*
X358617004Y-135551007D01*
X358608946Y-135573529D01*
X358598718Y-135595153D01*
X358586421Y-135615670D01*
X358572171Y-135634883D01*
X358556107Y-135652607D01*
X358538383Y-135668671D01*
X358519170Y-135682921D01*
X358498653Y-135695218D01*
X358477029Y-135705446D01*
X358454507Y-135713504D01*
X358431303Y-135719316D01*
X358407642Y-135722826D01*
X358383750Y-135724000D01*
X357896250Y-135724000D01*
X357872358Y-135722826D01*
X357848697Y-135719316D01*
X357825493Y-135713504D01*
X357802971Y-135705446D01*
X357781347Y-135695218D01*
X357760830Y-135682921D01*
X357741617Y-135668671D01*
X357723893Y-135652607D01*
X357707829Y-135634883D01*
X357693579Y-135615670D01*
X357681282Y-135595153D01*
X357671054Y-135573529D01*
X357662996Y-135551007D01*
X357657184Y-135527803D01*
X357653674Y-135504142D01*
X357652500Y-135480250D01*
X357652500Y-134567750D01*
X357653674Y-134543858D01*
X357657184Y-134520197D01*
X357662996Y-134496993D01*
X357671054Y-134474471D01*
X357681282Y-134452847D01*
X357693579Y-134432330D01*
X357707829Y-134413117D01*
X357723893Y-134395393D01*
X357741617Y-134379329D01*
X357760830Y-134365079D01*
X357781347Y-134352782D01*
X357802971Y-134342554D01*
X357825493Y-134334496D01*
X357848697Y-134328684D01*
X357872358Y-134325174D01*
X357896250Y-134324000D01*
X358383750Y-134324000D01*
X358407642Y-134325174D01*
X358407642Y-134325174D01*
G37*
D11*
X358140000Y-135024000D03*
G04 #@! TD*
M02*
