G04 #@! TF.GenerationSoftware,KiCad,Pcbnew,(5.0.2)-1*
G04 #@! TF.CreationDate,2019-03-25T13:47:46+01:00*
G04 #@! TF.ProjectId,board_arm,626f6172-645f-4617-926d-2e6b69636164,rev?*
G04 #@! TF.SameCoordinates,Original*
G04 #@! TF.FileFunction,Paste,Top*
G04 #@! TF.FilePolarity,Positive*
%FSLAX46Y46*%
G04 Gerber Fmt 4.6, Leading zero omitted, Abs format (unit mm)*
G04 Created by KiCad (PCBNEW (5.0.2)-1) date 25/03/2019 13:47:46*
%MOMM*%
%LPD*%
G01*
G04 APERTURE LIST*
%ADD10C,0.100000*%
%ADD11C,0.975000*%
%ADD12R,1.981200X0.558800*%
%ADD13R,0.250000X1.300000*%
%ADD14R,1.300000X0.250000*%
G04 APERTURE END LIST*
D10*
G04 #@! TO.C,LED1*
G36*
X352016142Y-121590674D02*
X352039803Y-121594184D01*
X352063007Y-121599996D01*
X352085529Y-121608054D01*
X352107153Y-121618282D01*
X352127670Y-121630579D01*
X352146883Y-121644829D01*
X352164607Y-121660893D01*
X352180671Y-121678617D01*
X352194921Y-121697830D01*
X352207218Y-121718347D01*
X352217446Y-121739971D01*
X352225504Y-121762493D01*
X352231316Y-121785697D01*
X352234826Y-121809358D01*
X352236000Y-121833250D01*
X352236000Y-122320750D01*
X352234826Y-122344642D01*
X352231316Y-122368303D01*
X352225504Y-122391507D01*
X352217446Y-122414029D01*
X352207218Y-122435653D01*
X352194921Y-122456170D01*
X352180671Y-122475383D01*
X352164607Y-122493107D01*
X352146883Y-122509171D01*
X352127670Y-122523421D01*
X352107153Y-122535718D01*
X352085529Y-122545946D01*
X352063007Y-122554004D01*
X352039803Y-122559816D01*
X352016142Y-122563326D01*
X351992250Y-122564500D01*
X351079750Y-122564500D01*
X351055858Y-122563326D01*
X351032197Y-122559816D01*
X351008993Y-122554004D01*
X350986471Y-122545946D01*
X350964847Y-122535718D01*
X350944330Y-122523421D01*
X350925117Y-122509171D01*
X350907393Y-122493107D01*
X350891329Y-122475383D01*
X350877079Y-122456170D01*
X350864782Y-122435653D01*
X350854554Y-122414029D01*
X350846496Y-122391507D01*
X350840684Y-122368303D01*
X350837174Y-122344642D01*
X350836000Y-122320750D01*
X350836000Y-121833250D01*
X350837174Y-121809358D01*
X350840684Y-121785697D01*
X350846496Y-121762493D01*
X350854554Y-121739971D01*
X350864782Y-121718347D01*
X350877079Y-121697830D01*
X350891329Y-121678617D01*
X350907393Y-121660893D01*
X350925117Y-121644829D01*
X350944330Y-121630579D01*
X350964847Y-121618282D01*
X350986471Y-121608054D01*
X351008993Y-121599996D01*
X351032197Y-121594184D01*
X351055858Y-121590674D01*
X351079750Y-121589500D01*
X351992250Y-121589500D01*
X352016142Y-121590674D01*
X352016142Y-121590674D01*
G37*
D11*
X351536000Y-122077000D03*
D10*
G36*
X352016142Y-123465674D02*
X352039803Y-123469184D01*
X352063007Y-123474996D01*
X352085529Y-123483054D01*
X352107153Y-123493282D01*
X352127670Y-123505579D01*
X352146883Y-123519829D01*
X352164607Y-123535893D01*
X352180671Y-123553617D01*
X352194921Y-123572830D01*
X352207218Y-123593347D01*
X352217446Y-123614971D01*
X352225504Y-123637493D01*
X352231316Y-123660697D01*
X352234826Y-123684358D01*
X352236000Y-123708250D01*
X352236000Y-124195750D01*
X352234826Y-124219642D01*
X352231316Y-124243303D01*
X352225504Y-124266507D01*
X352217446Y-124289029D01*
X352207218Y-124310653D01*
X352194921Y-124331170D01*
X352180671Y-124350383D01*
X352164607Y-124368107D01*
X352146883Y-124384171D01*
X352127670Y-124398421D01*
X352107153Y-124410718D01*
X352085529Y-124420946D01*
X352063007Y-124429004D01*
X352039803Y-124434816D01*
X352016142Y-124438326D01*
X351992250Y-124439500D01*
X351079750Y-124439500D01*
X351055858Y-124438326D01*
X351032197Y-124434816D01*
X351008993Y-124429004D01*
X350986471Y-124420946D01*
X350964847Y-124410718D01*
X350944330Y-124398421D01*
X350925117Y-124384171D01*
X350907393Y-124368107D01*
X350891329Y-124350383D01*
X350877079Y-124331170D01*
X350864782Y-124310653D01*
X350854554Y-124289029D01*
X350846496Y-124266507D01*
X350840684Y-124243303D01*
X350837174Y-124219642D01*
X350836000Y-124195750D01*
X350836000Y-123708250D01*
X350837174Y-123684358D01*
X350840684Y-123660697D01*
X350846496Y-123637493D01*
X350854554Y-123614971D01*
X350864782Y-123593347D01*
X350877079Y-123572830D01*
X350891329Y-123553617D01*
X350907393Y-123535893D01*
X350925117Y-123519829D01*
X350944330Y-123505579D01*
X350964847Y-123493282D01*
X350986471Y-123483054D01*
X351008993Y-123474996D01*
X351032197Y-123469184D01*
X351055858Y-123465674D01*
X351079750Y-123464500D01*
X351992250Y-123464500D01*
X352016142Y-123465674D01*
X352016142Y-123465674D01*
G37*
D11*
X351536000Y-123952000D03*
G04 #@! TD*
D10*
G04 #@! TO.C,R10*
G36*
X350492142Y-117018674D02*
X350515803Y-117022184D01*
X350539007Y-117027996D01*
X350561529Y-117036054D01*
X350583153Y-117046282D01*
X350603670Y-117058579D01*
X350622883Y-117072829D01*
X350640607Y-117088893D01*
X350656671Y-117106617D01*
X350670921Y-117125830D01*
X350683218Y-117146347D01*
X350693446Y-117167971D01*
X350701504Y-117190493D01*
X350707316Y-117213697D01*
X350710826Y-117237358D01*
X350712000Y-117261250D01*
X350712000Y-117748750D01*
X350710826Y-117772642D01*
X350707316Y-117796303D01*
X350701504Y-117819507D01*
X350693446Y-117842029D01*
X350683218Y-117863653D01*
X350670921Y-117884170D01*
X350656671Y-117903383D01*
X350640607Y-117921107D01*
X350622883Y-117937171D01*
X350603670Y-117951421D01*
X350583153Y-117963718D01*
X350561529Y-117973946D01*
X350539007Y-117982004D01*
X350515803Y-117987816D01*
X350492142Y-117991326D01*
X350468250Y-117992500D01*
X349555750Y-117992500D01*
X349531858Y-117991326D01*
X349508197Y-117987816D01*
X349484993Y-117982004D01*
X349462471Y-117973946D01*
X349440847Y-117963718D01*
X349420330Y-117951421D01*
X349401117Y-117937171D01*
X349383393Y-117921107D01*
X349367329Y-117903383D01*
X349353079Y-117884170D01*
X349340782Y-117863653D01*
X349330554Y-117842029D01*
X349322496Y-117819507D01*
X349316684Y-117796303D01*
X349313174Y-117772642D01*
X349312000Y-117748750D01*
X349312000Y-117261250D01*
X349313174Y-117237358D01*
X349316684Y-117213697D01*
X349322496Y-117190493D01*
X349330554Y-117167971D01*
X349340782Y-117146347D01*
X349353079Y-117125830D01*
X349367329Y-117106617D01*
X349383393Y-117088893D01*
X349401117Y-117072829D01*
X349420330Y-117058579D01*
X349440847Y-117046282D01*
X349462471Y-117036054D01*
X349484993Y-117027996D01*
X349508197Y-117022184D01*
X349531858Y-117018674D01*
X349555750Y-117017500D01*
X350468250Y-117017500D01*
X350492142Y-117018674D01*
X350492142Y-117018674D01*
G37*
D11*
X350012000Y-117505000D03*
D10*
G36*
X350492142Y-118893674D02*
X350515803Y-118897184D01*
X350539007Y-118902996D01*
X350561529Y-118911054D01*
X350583153Y-118921282D01*
X350603670Y-118933579D01*
X350622883Y-118947829D01*
X350640607Y-118963893D01*
X350656671Y-118981617D01*
X350670921Y-119000830D01*
X350683218Y-119021347D01*
X350693446Y-119042971D01*
X350701504Y-119065493D01*
X350707316Y-119088697D01*
X350710826Y-119112358D01*
X350712000Y-119136250D01*
X350712000Y-119623750D01*
X350710826Y-119647642D01*
X350707316Y-119671303D01*
X350701504Y-119694507D01*
X350693446Y-119717029D01*
X350683218Y-119738653D01*
X350670921Y-119759170D01*
X350656671Y-119778383D01*
X350640607Y-119796107D01*
X350622883Y-119812171D01*
X350603670Y-119826421D01*
X350583153Y-119838718D01*
X350561529Y-119848946D01*
X350539007Y-119857004D01*
X350515803Y-119862816D01*
X350492142Y-119866326D01*
X350468250Y-119867500D01*
X349555750Y-119867500D01*
X349531858Y-119866326D01*
X349508197Y-119862816D01*
X349484993Y-119857004D01*
X349462471Y-119848946D01*
X349440847Y-119838718D01*
X349420330Y-119826421D01*
X349401117Y-119812171D01*
X349383393Y-119796107D01*
X349367329Y-119778383D01*
X349353079Y-119759170D01*
X349340782Y-119738653D01*
X349330554Y-119717029D01*
X349322496Y-119694507D01*
X349316684Y-119671303D01*
X349313174Y-119647642D01*
X349312000Y-119623750D01*
X349312000Y-119136250D01*
X349313174Y-119112358D01*
X349316684Y-119088697D01*
X349322496Y-119065493D01*
X349330554Y-119042971D01*
X349340782Y-119021347D01*
X349353079Y-119000830D01*
X349367329Y-118981617D01*
X349383393Y-118963893D01*
X349401117Y-118947829D01*
X349420330Y-118933579D01*
X349440847Y-118921282D01*
X349462471Y-118911054D01*
X349484993Y-118902996D01*
X349508197Y-118897184D01*
X349531858Y-118893674D01*
X349555750Y-118892500D01*
X350468250Y-118892500D01*
X350492142Y-118893674D01*
X350492142Y-118893674D01*
G37*
D11*
X350012000Y-119380000D03*
G04 #@! TD*
D12*
G04 #@! TO.C,U3*
X336812400Y-78710000D03*
X336812400Y-79980000D03*
X336812400Y-81250000D03*
X336812400Y-82520000D03*
X341536800Y-82520000D03*
X341536800Y-81250000D03*
X341536800Y-79980000D03*
X341536800Y-78710000D03*
G04 #@! TD*
D10*
G04 #@! TO.C,R5*
G36*
X341755442Y-68445174D02*
X341779103Y-68448684D01*
X341802307Y-68454496D01*
X341824829Y-68462554D01*
X341846453Y-68472782D01*
X341866970Y-68485079D01*
X341886183Y-68499329D01*
X341903907Y-68515393D01*
X341919971Y-68533117D01*
X341934221Y-68552330D01*
X341946518Y-68572847D01*
X341956746Y-68594471D01*
X341964804Y-68616993D01*
X341970616Y-68640197D01*
X341974126Y-68663858D01*
X341975300Y-68687750D01*
X341975300Y-69600250D01*
X341974126Y-69624142D01*
X341970616Y-69647803D01*
X341964804Y-69671007D01*
X341956746Y-69693529D01*
X341946518Y-69715153D01*
X341934221Y-69735670D01*
X341919971Y-69754883D01*
X341903907Y-69772607D01*
X341886183Y-69788671D01*
X341866970Y-69802921D01*
X341846453Y-69815218D01*
X341824829Y-69825446D01*
X341802307Y-69833504D01*
X341779103Y-69839316D01*
X341755442Y-69842826D01*
X341731550Y-69844000D01*
X341244050Y-69844000D01*
X341220158Y-69842826D01*
X341196497Y-69839316D01*
X341173293Y-69833504D01*
X341150771Y-69825446D01*
X341129147Y-69815218D01*
X341108630Y-69802921D01*
X341089417Y-69788671D01*
X341071693Y-69772607D01*
X341055629Y-69754883D01*
X341041379Y-69735670D01*
X341029082Y-69715153D01*
X341018854Y-69693529D01*
X341010796Y-69671007D01*
X341004984Y-69647803D01*
X341001474Y-69624142D01*
X341000300Y-69600250D01*
X341000300Y-68687750D01*
X341001474Y-68663858D01*
X341004984Y-68640197D01*
X341010796Y-68616993D01*
X341018854Y-68594471D01*
X341029082Y-68572847D01*
X341041379Y-68552330D01*
X341055629Y-68533117D01*
X341071693Y-68515393D01*
X341089417Y-68499329D01*
X341108630Y-68485079D01*
X341129147Y-68472782D01*
X341150771Y-68462554D01*
X341173293Y-68454496D01*
X341196497Y-68448684D01*
X341220158Y-68445174D01*
X341244050Y-68444000D01*
X341731550Y-68444000D01*
X341755442Y-68445174D01*
X341755442Y-68445174D01*
G37*
D11*
X341487800Y-69144000D03*
D10*
G36*
X339880442Y-68445174D02*
X339904103Y-68448684D01*
X339927307Y-68454496D01*
X339949829Y-68462554D01*
X339971453Y-68472782D01*
X339991970Y-68485079D01*
X340011183Y-68499329D01*
X340028907Y-68515393D01*
X340044971Y-68533117D01*
X340059221Y-68552330D01*
X340071518Y-68572847D01*
X340081746Y-68594471D01*
X340089804Y-68616993D01*
X340095616Y-68640197D01*
X340099126Y-68663858D01*
X340100300Y-68687750D01*
X340100300Y-69600250D01*
X340099126Y-69624142D01*
X340095616Y-69647803D01*
X340089804Y-69671007D01*
X340081746Y-69693529D01*
X340071518Y-69715153D01*
X340059221Y-69735670D01*
X340044971Y-69754883D01*
X340028907Y-69772607D01*
X340011183Y-69788671D01*
X339991970Y-69802921D01*
X339971453Y-69815218D01*
X339949829Y-69825446D01*
X339927307Y-69833504D01*
X339904103Y-69839316D01*
X339880442Y-69842826D01*
X339856550Y-69844000D01*
X339369050Y-69844000D01*
X339345158Y-69842826D01*
X339321497Y-69839316D01*
X339298293Y-69833504D01*
X339275771Y-69825446D01*
X339254147Y-69815218D01*
X339233630Y-69802921D01*
X339214417Y-69788671D01*
X339196693Y-69772607D01*
X339180629Y-69754883D01*
X339166379Y-69735670D01*
X339154082Y-69715153D01*
X339143854Y-69693529D01*
X339135796Y-69671007D01*
X339129984Y-69647803D01*
X339126474Y-69624142D01*
X339125300Y-69600250D01*
X339125300Y-68687750D01*
X339126474Y-68663858D01*
X339129984Y-68640197D01*
X339135796Y-68616993D01*
X339143854Y-68594471D01*
X339154082Y-68572847D01*
X339166379Y-68552330D01*
X339180629Y-68533117D01*
X339196693Y-68515393D01*
X339214417Y-68499329D01*
X339233630Y-68485079D01*
X339254147Y-68472782D01*
X339275771Y-68462554D01*
X339298293Y-68454496D01*
X339321497Y-68448684D01*
X339345158Y-68445174D01*
X339369050Y-68444000D01*
X339856550Y-68444000D01*
X339880442Y-68445174D01*
X339880442Y-68445174D01*
G37*
D11*
X339612800Y-69144000D03*
G04 #@! TD*
D10*
G04 #@! TO.C,C7*
G36*
X337340442Y-71493174D02*
X337364103Y-71496684D01*
X337387307Y-71502496D01*
X337409829Y-71510554D01*
X337431453Y-71520782D01*
X337451970Y-71533079D01*
X337471183Y-71547329D01*
X337488907Y-71563393D01*
X337504971Y-71581117D01*
X337519221Y-71600330D01*
X337531518Y-71620847D01*
X337541746Y-71642471D01*
X337549804Y-71664993D01*
X337555616Y-71688197D01*
X337559126Y-71711858D01*
X337560300Y-71735750D01*
X337560300Y-72648250D01*
X337559126Y-72672142D01*
X337555616Y-72695803D01*
X337549804Y-72719007D01*
X337541746Y-72741529D01*
X337531518Y-72763153D01*
X337519221Y-72783670D01*
X337504971Y-72802883D01*
X337488907Y-72820607D01*
X337471183Y-72836671D01*
X337451970Y-72850921D01*
X337431453Y-72863218D01*
X337409829Y-72873446D01*
X337387307Y-72881504D01*
X337364103Y-72887316D01*
X337340442Y-72890826D01*
X337316550Y-72892000D01*
X336829050Y-72892000D01*
X336805158Y-72890826D01*
X336781497Y-72887316D01*
X336758293Y-72881504D01*
X336735771Y-72873446D01*
X336714147Y-72863218D01*
X336693630Y-72850921D01*
X336674417Y-72836671D01*
X336656693Y-72820607D01*
X336640629Y-72802883D01*
X336626379Y-72783670D01*
X336614082Y-72763153D01*
X336603854Y-72741529D01*
X336595796Y-72719007D01*
X336589984Y-72695803D01*
X336586474Y-72672142D01*
X336585300Y-72648250D01*
X336585300Y-71735750D01*
X336586474Y-71711858D01*
X336589984Y-71688197D01*
X336595796Y-71664993D01*
X336603854Y-71642471D01*
X336614082Y-71620847D01*
X336626379Y-71600330D01*
X336640629Y-71581117D01*
X336656693Y-71563393D01*
X336674417Y-71547329D01*
X336693630Y-71533079D01*
X336714147Y-71520782D01*
X336735771Y-71510554D01*
X336758293Y-71502496D01*
X336781497Y-71496684D01*
X336805158Y-71493174D01*
X336829050Y-71492000D01*
X337316550Y-71492000D01*
X337340442Y-71493174D01*
X337340442Y-71493174D01*
G37*
D11*
X337072800Y-72192000D03*
D10*
G36*
X335465442Y-71493174D02*
X335489103Y-71496684D01*
X335512307Y-71502496D01*
X335534829Y-71510554D01*
X335556453Y-71520782D01*
X335576970Y-71533079D01*
X335596183Y-71547329D01*
X335613907Y-71563393D01*
X335629971Y-71581117D01*
X335644221Y-71600330D01*
X335656518Y-71620847D01*
X335666746Y-71642471D01*
X335674804Y-71664993D01*
X335680616Y-71688197D01*
X335684126Y-71711858D01*
X335685300Y-71735750D01*
X335685300Y-72648250D01*
X335684126Y-72672142D01*
X335680616Y-72695803D01*
X335674804Y-72719007D01*
X335666746Y-72741529D01*
X335656518Y-72763153D01*
X335644221Y-72783670D01*
X335629971Y-72802883D01*
X335613907Y-72820607D01*
X335596183Y-72836671D01*
X335576970Y-72850921D01*
X335556453Y-72863218D01*
X335534829Y-72873446D01*
X335512307Y-72881504D01*
X335489103Y-72887316D01*
X335465442Y-72890826D01*
X335441550Y-72892000D01*
X334954050Y-72892000D01*
X334930158Y-72890826D01*
X334906497Y-72887316D01*
X334883293Y-72881504D01*
X334860771Y-72873446D01*
X334839147Y-72863218D01*
X334818630Y-72850921D01*
X334799417Y-72836671D01*
X334781693Y-72820607D01*
X334765629Y-72802883D01*
X334751379Y-72783670D01*
X334739082Y-72763153D01*
X334728854Y-72741529D01*
X334720796Y-72719007D01*
X334714984Y-72695803D01*
X334711474Y-72672142D01*
X334710300Y-72648250D01*
X334710300Y-71735750D01*
X334711474Y-71711858D01*
X334714984Y-71688197D01*
X334720796Y-71664993D01*
X334728854Y-71642471D01*
X334739082Y-71620847D01*
X334751379Y-71600330D01*
X334765629Y-71581117D01*
X334781693Y-71563393D01*
X334799417Y-71547329D01*
X334818630Y-71533079D01*
X334839147Y-71520782D01*
X334860771Y-71510554D01*
X334883293Y-71502496D01*
X334906497Y-71496684D01*
X334930158Y-71493174D01*
X334954050Y-71492000D01*
X335441550Y-71492000D01*
X335465442Y-71493174D01*
X335465442Y-71493174D01*
G37*
D11*
X335197800Y-72192000D03*
G04 #@! TD*
D10*
G04 #@! TO.C,C5*
G36*
X344183642Y-124269174D02*
X344207303Y-124272684D01*
X344230507Y-124278496D01*
X344253029Y-124286554D01*
X344274653Y-124296782D01*
X344295170Y-124309079D01*
X344314383Y-124323329D01*
X344332107Y-124339393D01*
X344348171Y-124357117D01*
X344362421Y-124376330D01*
X344374718Y-124396847D01*
X344384946Y-124418471D01*
X344393004Y-124440993D01*
X344398816Y-124464197D01*
X344402326Y-124487858D01*
X344403500Y-124511750D01*
X344403500Y-125424250D01*
X344402326Y-125448142D01*
X344398816Y-125471803D01*
X344393004Y-125495007D01*
X344384946Y-125517529D01*
X344374718Y-125539153D01*
X344362421Y-125559670D01*
X344348171Y-125578883D01*
X344332107Y-125596607D01*
X344314383Y-125612671D01*
X344295170Y-125626921D01*
X344274653Y-125639218D01*
X344253029Y-125649446D01*
X344230507Y-125657504D01*
X344207303Y-125663316D01*
X344183642Y-125666826D01*
X344159750Y-125668000D01*
X343672250Y-125668000D01*
X343648358Y-125666826D01*
X343624697Y-125663316D01*
X343601493Y-125657504D01*
X343578971Y-125649446D01*
X343557347Y-125639218D01*
X343536830Y-125626921D01*
X343517617Y-125612671D01*
X343499893Y-125596607D01*
X343483829Y-125578883D01*
X343469579Y-125559670D01*
X343457282Y-125539153D01*
X343447054Y-125517529D01*
X343438996Y-125495007D01*
X343433184Y-125471803D01*
X343429674Y-125448142D01*
X343428500Y-125424250D01*
X343428500Y-124511750D01*
X343429674Y-124487858D01*
X343433184Y-124464197D01*
X343438996Y-124440993D01*
X343447054Y-124418471D01*
X343457282Y-124396847D01*
X343469579Y-124376330D01*
X343483829Y-124357117D01*
X343499893Y-124339393D01*
X343517617Y-124323329D01*
X343536830Y-124309079D01*
X343557347Y-124296782D01*
X343578971Y-124286554D01*
X343601493Y-124278496D01*
X343624697Y-124272684D01*
X343648358Y-124269174D01*
X343672250Y-124268000D01*
X344159750Y-124268000D01*
X344183642Y-124269174D01*
X344183642Y-124269174D01*
G37*
D11*
X343916000Y-124968000D03*
D10*
G36*
X346058642Y-124269174D02*
X346082303Y-124272684D01*
X346105507Y-124278496D01*
X346128029Y-124286554D01*
X346149653Y-124296782D01*
X346170170Y-124309079D01*
X346189383Y-124323329D01*
X346207107Y-124339393D01*
X346223171Y-124357117D01*
X346237421Y-124376330D01*
X346249718Y-124396847D01*
X346259946Y-124418471D01*
X346268004Y-124440993D01*
X346273816Y-124464197D01*
X346277326Y-124487858D01*
X346278500Y-124511750D01*
X346278500Y-125424250D01*
X346277326Y-125448142D01*
X346273816Y-125471803D01*
X346268004Y-125495007D01*
X346259946Y-125517529D01*
X346249718Y-125539153D01*
X346237421Y-125559670D01*
X346223171Y-125578883D01*
X346207107Y-125596607D01*
X346189383Y-125612671D01*
X346170170Y-125626921D01*
X346149653Y-125639218D01*
X346128029Y-125649446D01*
X346105507Y-125657504D01*
X346082303Y-125663316D01*
X346058642Y-125666826D01*
X346034750Y-125668000D01*
X345547250Y-125668000D01*
X345523358Y-125666826D01*
X345499697Y-125663316D01*
X345476493Y-125657504D01*
X345453971Y-125649446D01*
X345432347Y-125639218D01*
X345411830Y-125626921D01*
X345392617Y-125612671D01*
X345374893Y-125596607D01*
X345358829Y-125578883D01*
X345344579Y-125559670D01*
X345332282Y-125539153D01*
X345322054Y-125517529D01*
X345313996Y-125495007D01*
X345308184Y-125471803D01*
X345304674Y-125448142D01*
X345303500Y-125424250D01*
X345303500Y-124511750D01*
X345304674Y-124487858D01*
X345308184Y-124464197D01*
X345313996Y-124440993D01*
X345322054Y-124418471D01*
X345332282Y-124396847D01*
X345344579Y-124376330D01*
X345358829Y-124357117D01*
X345374893Y-124339393D01*
X345392617Y-124323329D01*
X345411830Y-124309079D01*
X345432347Y-124296782D01*
X345453971Y-124286554D01*
X345476493Y-124278496D01*
X345499697Y-124272684D01*
X345523358Y-124269174D01*
X345547250Y-124268000D01*
X346034750Y-124268000D01*
X346058642Y-124269174D01*
X346058642Y-124269174D01*
G37*
D11*
X345791000Y-124968000D03*
G04 #@! TD*
D10*
G04 #@! TO.C,C8*
G36*
X337158542Y-86169174D02*
X337182203Y-86172684D01*
X337205407Y-86178496D01*
X337227929Y-86186554D01*
X337249553Y-86196782D01*
X337270070Y-86209079D01*
X337289283Y-86223329D01*
X337307007Y-86239393D01*
X337323071Y-86257117D01*
X337337321Y-86276330D01*
X337349618Y-86296847D01*
X337359846Y-86318471D01*
X337367904Y-86340993D01*
X337373716Y-86364197D01*
X337377226Y-86387858D01*
X337378400Y-86411750D01*
X337378400Y-87324250D01*
X337377226Y-87348142D01*
X337373716Y-87371803D01*
X337367904Y-87395007D01*
X337359846Y-87417529D01*
X337349618Y-87439153D01*
X337337321Y-87459670D01*
X337323071Y-87478883D01*
X337307007Y-87496607D01*
X337289283Y-87512671D01*
X337270070Y-87526921D01*
X337249553Y-87539218D01*
X337227929Y-87549446D01*
X337205407Y-87557504D01*
X337182203Y-87563316D01*
X337158542Y-87566826D01*
X337134650Y-87568000D01*
X336647150Y-87568000D01*
X336623258Y-87566826D01*
X336599597Y-87563316D01*
X336576393Y-87557504D01*
X336553871Y-87549446D01*
X336532247Y-87539218D01*
X336511730Y-87526921D01*
X336492517Y-87512671D01*
X336474793Y-87496607D01*
X336458729Y-87478883D01*
X336444479Y-87459670D01*
X336432182Y-87439153D01*
X336421954Y-87417529D01*
X336413896Y-87395007D01*
X336408084Y-87371803D01*
X336404574Y-87348142D01*
X336403400Y-87324250D01*
X336403400Y-86411750D01*
X336404574Y-86387858D01*
X336408084Y-86364197D01*
X336413896Y-86340993D01*
X336421954Y-86318471D01*
X336432182Y-86296847D01*
X336444479Y-86276330D01*
X336458729Y-86257117D01*
X336474793Y-86239393D01*
X336492517Y-86223329D01*
X336511730Y-86209079D01*
X336532247Y-86196782D01*
X336553871Y-86186554D01*
X336576393Y-86178496D01*
X336599597Y-86172684D01*
X336623258Y-86169174D01*
X336647150Y-86168000D01*
X337134650Y-86168000D01*
X337158542Y-86169174D01*
X337158542Y-86169174D01*
G37*
D11*
X336890900Y-86868000D03*
D10*
G36*
X339033542Y-86169174D02*
X339057203Y-86172684D01*
X339080407Y-86178496D01*
X339102929Y-86186554D01*
X339124553Y-86196782D01*
X339145070Y-86209079D01*
X339164283Y-86223329D01*
X339182007Y-86239393D01*
X339198071Y-86257117D01*
X339212321Y-86276330D01*
X339224618Y-86296847D01*
X339234846Y-86318471D01*
X339242904Y-86340993D01*
X339248716Y-86364197D01*
X339252226Y-86387858D01*
X339253400Y-86411750D01*
X339253400Y-87324250D01*
X339252226Y-87348142D01*
X339248716Y-87371803D01*
X339242904Y-87395007D01*
X339234846Y-87417529D01*
X339224618Y-87439153D01*
X339212321Y-87459670D01*
X339198071Y-87478883D01*
X339182007Y-87496607D01*
X339164283Y-87512671D01*
X339145070Y-87526921D01*
X339124553Y-87539218D01*
X339102929Y-87549446D01*
X339080407Y-87557504D01*
X339057203Y-87563316D01*
X339033542Y-87566826D01*
X339009650Y-87568000D01*
X338522150Y-87568000D01*
X338498258Y-87566826D01*
X338474597Y-87563316D01*
X338451393Y-87557504D01*
X338428871Y-87549446D01*
X338407247Y-87539218D01*
X338386730Y-87526921D01*
X338367517Y-87512671D01*
X338349793Y-87496607D01*
X338333729Y-87478883D01*
X338319479Y-87459670D01*
X338307182Y-87439153D01*
X338296954Y-87417529D01*
X338288896Y-87395007D01*
X338283084Y-87371803D01*
X338279574Y-87348142D01*
X338278400Y-87324250D01*
X338278400Y-86411750D01*
X338279574Y-86387858D01*
X338283084Y-86364197D01*
X338288896Y-86340993D01*
X338296954Y-86318471D01*
X338307182Y-86296847D01*
X338319479Y-86276330D01*
X338333729Y-86257117D01*
X338349793Y-86239393D01*
X338367517Y-86223329D01*
X338386730Y-86209079D01*
X338407247Y-86196782D01*
X338428871Y-86186554D01*
X338451393Y-86178496D01*
X338474597Y-86172684D01*
X338498258Y-86169174D01*
X338522150Y-86168000D01*
X339009650Y-86168000D01*
X339033542Y-86169174D01*
X339033542Y-86169174D01*
G37*
D11*
X338765900Y-86868000D03*
G04 #@! TD*
D10*
G04 #@! TO.C,C9*
G36*
X337158542Y-84137174D02*
X337182203Y-84140684D01*
X337205407Y-84146496D01*
X337227929Y-84154554D01*
X337249553Y-84164782D01*
X337270070Y-84177079D01*
X337289283Y-84191329D01*
X337307007Y-84207393D01*
X337323071Y-84225117D01*
X337337321Y-84244330D01*
X337349618Y-84264847D01*
X337359846Y-84286471D01*
X337367904Y-84308993D01*
X337373716Y-84332197D01*
X337377226Y-84355858D01*
X337378400Y-84379750D01*
X337378400Y-85292250D01*
X337377226Y-85316142D01*
X337373716Y-85339803D01*
X337367904Y-85363007D01*
X337359846Y-85385529D01*
X337349618Y-85407153D01*
X337337321Y-85427670D01*
X337323071Y-85446883D01*
X337307007Y-85464607D01*
X337289283Y-85480671D01*
X337270070Y-85494921D01*
X337249553Y-85507218D01*
X337227929Y-85517446D01*
X337205407Y-85525504D01*
X337182203Y-85531316D01*
X337158542Y-85534826D01*
X337134650Y-85536000D01*
X336647150Y-85536000D01*
X336623258Y-85534826D01*
X336599597Y-85531316D01*
X336576393Y-85525504D01*
X336553871Y-85517446D01*
X336532247Y-85507218D01*
X336511730Y-85494921D01*
X336492517Y-85480671D01*
X336474793Y-85464607D01*
X336458729Y-85446883D01*
X336444479Y-85427670D01*
X336432182Y-85407153D01*
X336421954Y-85385529D01*
X336413896Y-85363007D01*
X336408084Y-85339803D01*
X336404574Y-85316142D01*
X336403400Y-85292250D01*
X336403400Y-84379750D01*
X336404574Y-84355858D01*
X336408084Y-84332197D01*
X336413896Y-84308993D01*
X336421954Y-84286471D01*
X336432182Y-84264847D01*
X336444479Y-84244330D01*
X336458729Y-84225117D01*
X336474793Y-84207393D01*
X336492517Y-84191329D01*
X336511730Y-84177079D01*
X336532247Y-84164782D01*
X336553871Y-84154554D01*
X336576393Y-84146496D01*
X336599597Y-84140684D01*
X336623258Y-84137174D01*
X336647150Y-84136000D01*
X337134650Y-84136000D01*
X337158542Y-84137174D01*
X337158542Y-84137174D01*
G37*
D11*
X336890900Y-84836000D03*
D10*
G36*
X339033542Y-84137174D02*
X339057203Y-84140684D01*
X339080407Y-84146496D01*
X339102929Y-84154554D01*
X339124553Y-84164782D01*
X339145070Y-84177079D01*
X339164283Y-84191329D01*
X339182007Y-84207393D01*
X339198071Y-84225117D01*
X339212321Y-84244330D01*
X339224618Y-84264847D01*
X339234846Y-84286471D01*
X339242904Y-84308993D01*
X339248716Y-84332197D01*
X339252226Y-84355858D01*
X339253400Y-84379750D01*
X339253400Y-85292250D01*
X339252226Y-85316142D01*
X339248716Y-85339803D01*
X339242904Y-85363007D01*
X339234846Y-85385529D01*
X339224618Y-85407153D01*
X339212321Y-85427670D01*
X339198071Y-85446883D01*
X339182007Y-85464607D01*
X339164283Y-85480671D01*
X339145070Y-85494921D01*
X339124553Y-85507218D01*
X339102929Y-85517446D01*
X339080407Y-85525504D01*
X339057203Y-85531316D01*
X339033542Y-85534826D01*
X339009650Y-85536000D01*
X338522150Y-85536000D01*
X338498258Y-85534826D01*
X338474597Y-85531316D01*
X338451393Y-85525504D01*
X338428871Y-85517446D01*
X338407247Y-85507218D01*
X338386730Y-85494921D01*
X338367517Y-85480671D01*
X338349793Y-85464607D01*
X338333729Y-85446883D01*
X338319479Y-85427670D01*
X338307182Y-85407153D01*
X338296954Y-85385529D01*
X338288896Y-85363007D01*
X338283084Y-85339803D01*
X338279574Y-85316142D01*
X338278400Y-85292250D01*
X338278400Y-84379750D01*
X338279574Y-84355858D01*
X338283084Y-84332197D01*
X338288896Y-84308993D01*
X338296954Y-84286471D01*
X338307182Y-84264847D01*
X338319479Y-84244330D01*
X338333729Y-84225117D01*
X338349793Y-84207393D01*
X338367517Y-84191329D01*
X338386730Y-84177079D01*
X338407247Y-84164782D01*
X338428871Y-84154554D01*
X338451393Y-84146496D01*
X338474597Y-84140684D01*
X338498258Y-84137174D01*
X338522150Y-84136000D01*
X339009650Y-84136000D01*
X339033542Y-84137174D01*
X339033542Y-84137174D01*
G37*
D11*
X338765900Y-84836000D03*
G04 #@! TD*
D10*
G04 #@! TO.C,R2*
G36*
X334752542Y-79112674D02*
X334776203Y-79116184D01*
X334799407Y-79121996D01*
X334821929Y-79130054D01*
X334843553Y-79140282D01*
X334864070Y-79152579D01*
X334883283Y-79166829D01*
X334901007Y-79182893D01*
X334917071Y-79200617D01*
X334931321Y-79219830D01*
X334943618Y-79240347D01*
X334953846Y-79261971D01*
X334961904Y-79284493D01*
X334967716Y-79307697D01*
X334971226Y-79331358D01*
X334972400Y-79355250D01*
X334972400Y-79842750D01*
X334971226Y-79866642D01*
X334967716Y-79890303D01*
X334961904Y-79913507D01*
X334953846Y-79936029D01*
X334943618Y-79957653D01*
X334931321Y-79978170D01*
X334917071Y-79997383D01*
X334901007Y-80015107D01*
X334883283Y-80031171D01*
X334864070Y-80045421D01*
X334843553Y-80057718D01*
X334821929Y-80067946D01*
X334799407Y-80076004D01*
X334776203Y-80081816D01*
X334752542Y-80085326D01*
X334728650Y-80086500D01*
X333816150Y-80086500D01*
X333792258Y-80085326D01*
X333768597Y-80081816D01*
X333745393Y-80076004D01*
X333722871Y-80067946D01*
X333701247Y-80057718D01*
X333680730Y-80045421D01*
X333661517Y-80031171D01*
X333643793Y-80015107D01*
X333627729Y-79997383D01*
X333613479Y-79978170D01*
X333601182Y-79957653D01*
X333590954Y-79936029D01*
X333582896Y-79913507D01*
X333577084Y-79890303D01*
X333573574Y-79866642D01*
X333572400Y-79842750D01*
X333572400Y-79355250D01*
X333573574Y-79331358D01*
X333577084Y-79307697D01*
X333582896Y-79284493D01*
X333590954Y-79261971D01*
X333601182Y-79240347D01*
X333613479Y-79219830D01*
X333627729Y-79200617D01*
X333643793Y-79182893D01*
X333661517Y-79166829D01*
X333680730Y-79152579D01*
X333701247Y-79140282D01*
X333722871Y-79130054D01*
X333745393Y-79121996D01*
X333768597Y-79116184D01*
X333792258Y-79112674D01*
X333816150Y-79111500D01*
X334728650Y-79111500D01*
X334752542Y-79112674D01*
X334752542Y-79112674D01*
G37*
D11*
X334272400Y-79599000D03*
D10*
G36*
X334752542Y-80987674D02*
X334776203Y-80991184D01*
X334799407Y-80996996D01*
X334821929Y-81005054D01*
X334843553Y-81015282D01*
X334864070Y-81027579D01*
X334883283Y-81041829D01*
X334901007Y-81057893D01*
X334917071Y-81075617D01*
X334931321Y-81094830D01*
X334943618Y-81115347D01*
X334953846Y-81136971D01*
X334961904Y-81159493D01*
X334967716Y-81182697D01*
X334971226Y-81206358D01*
X334972400Y-81230250D01*
X334972400Y-81717750D01*
X334971226Y-81741642D01*
X334967716Y-81765303D01*
X334961904Y-81788507D01*
X334953846Y-81811029D01*
X334943618Y-81832653D01*
X334931321Y-81853170D01*
X334917071Y-81872383D01*
X334901007Y-81890107D01*
X334883283Y-81906171D01*
X334864070Y-81920421D01*
X334843553Y-81932718D01*
X334821929Y-81942946D01*
X334799407Y-81951004D01*
X334776203Y-81956816D01*
X334752542Y-81960326D01*
X334728650Y-81961500D01*
X333816150Y-81961500D01*
X333792258Y-81960326D01*
X333768597Y-81956816D01*
X333745393Y-81951004D01*
X333722871Y-81942946D01*
X333701247Y-81932718D01*
X333680730Y-81920421D01*
X333661517Y-81906171D01*
X333643793Y-81890107D01*
X333627729Y-81872383D01*
X333613479Y-81853170D01*
X333601182Y-81832653D01*
X333590954Y-81811029D01*
X333582896Y-81788507D01*
X333577084Y-81765303D01*
X333573574Y-81741642D01*
X333572400Y-81717750D01*
X333572400Y-81230250D01*
X333573574Y-81206358D01*
X333577084Y-81182697D01*
X333582896Y-81159493D01*
X333590954Y-81136971D01*
X333601182Y-81115347D01*
X333613479Y-81094830D01*
X333627729Y-81075617D01*
X333643793Y-81057893D01*
X333661517Y-81041829D01*
X333680730Y-81027579D01*
X333701247Y-81015282D01*
X333722871Y-81005054D01*
X333745393Y-80996996D01*
X333768597Y-80991184D01*
X333792258Y-80987674D01*
X333816150Y-80986500D01*
X334728650Y-80986500D01*
X334752542Y-80987674D01*
X334752542Y-80987674D01*
G37*
D11*
X334272400Y-81474000D03*
G04 #@! TD*
D10*
G04 #@! TO.C,R4*
G36*
X338356442Y-68445174D02*
X338380103Y-68448684D01*
X338403307Y-68454496D01*
X338425829Y-68462554D01*
X338447453Y-68472782D01*
X338467970Y-68485079D01*
X338487183Y-68499329D01*
X338504907Y-68515393D01*
X338520971Y-68533117D01*
X338535221Y-68552330D01*
X338547518Y-68572847D01*
X338557746Y-68594471D01*
X338565804Y-68616993D01*
X338571616Y-68640197D01*
X338575126Y-68663858D01*
X338576300Y-68687750D01*
X338576300Y-69600250D01*
X338575126Y-69624142D01*
X338571616Y-69647803D01*
X338565804Y-69671007D01*
X338557746Y-69693529D01*
X338547518Y-69715153D01*
X338535221Y-69735670D01*
X338520971Y-69754883D01*
X338504907Y-69772607D01*
X338487183Y-69788671D01*
X338467970Y-69802921D01*
X338447453Y-69815218D01*
X338425829Y-69825446D01*
X338403307Y-69833504D01*
X338380103Y-69839316D01*
X338356442Y-69842826D01*
X338332550Y-69844000D01*
X337845050Y-69844000D01*
X337821158Y-69842826D01*
X337797497Y-69839316D01*
X337774293Y-69833504D01*
X337751771Y-69825446D01*
X337730147Y-69815218D01*
X337709630Y-69802921D01*
X337690417Y-69788671D01*
X337672693Y-69772607D01*
X337656629Y-69754883D01*
X337642379Y-69735670D01*
X337630082Y-69715153D01*
X337619854Y-69693529D01*
X337611796Y-69671007D01*
X337605984Y-69647803D01*
X337602474Y-69624142D01*
X337601300Y-69600250D01*
X337601300Y-68687750D01*
X337602474Y-68663858D01*
X337605984Y-68640197D01*
X337611796Y-68616993D01*
X337619854Y-68594471D01*
X337630082Y-68572847D01*
X337642379Y-68552330D01*
X337656629Y-68533117D01*
X337672693Y-68515393D01*
X337690417Y-68499329D01*
X337709630Y-68485079D01*
X337730147Y-68472782D01*
X337751771Y-68462554D01*
X337774293Y-68454496D01*
X337797497Y-68448684D01*
X337821158Y-68445174D01*
X337845050Y-68444000D01*
X338332550Y-68444000D01*
X338356442Y-68445174D01*
X338356442Y-68445174D01*
G37*
D11*
X338088800Y-69144000D03*
D10*
G36*
X336481442Y-68445174D02*
X336505103Y-68448684D01*
X336528307Y-68454496D01*
X336550829Y-68462554D01*
X336572453Y-68472782D01*
X336592970Y-68485079D01*
X336612183Y-68499329D01*
X336629907Y-68515393D01*
X336645971Y-68533117D01*
X336660221Y-68552330D01*
X336672518Y-68572847D01*
X336682746Y-68594471D01*
X336690804Y-68616993D01*
X336696616Y-68640197D01*
X336700126Y-68663858D01*
X336701300Y-68687750D01*
X336701300Y-69600250D01*
X336700126Y-69624142D01*
X336696616Y-69647803D01*
X336690804Y-69671007D01*
X336682746Y-69693529D01*
X336672518Y-69715153D01*
X336660221Y-69735670D01*
X336645971Y-69754883D01*
X336629907Y-69772607D01*
X336612183Y-69788671D01*
X336592970Y-69802921D01*
X336572453Y-69815218D01*
X336550829Y-69825446D01*
X336528307Y-69833504D01*
X336505103Y-69839316D01*
X336481442Y-69842826D01*
X336457550Y-69844000D01*
X335970050Y-69844000D01*
X335946158Y-69842826D01*
X335922497Y-69839316D01*
X335899293Y-69833504D01*
X335876771Y-69825446D01*
X335855147Y-69815218D01*
X335834630Y-69802921D01*
X335815417Y-69788671D01*
X335797693Y-69772607D01*
X335781629Y-69754883D01*
X335767379Y-69735670D01*
X335755082Y-69715153D01*
X335744854Y-69693529D01*
X335736796Y-69671007D01*
X335730984Y-69647803D01*
X335727474Y-69624142D01*
X335726300Y-69600250D01*
X335726300Y-68687750D01*
X335727474Y-68663858D01*
X335730984Y-68640197D01*
X335736796Y-68616993D01*
X335744854Y-68594471D01*
X335755082Y-68572847D01*
X335767379Y-68552330D01*
X335781629Y-68533117D01*
X335797693Y-68515393D01*
X335815417Y-68499329D01*
X335834630Y-68485079D01*
X335855147Y-68472782D01*
X335876771Y-68462554D01*
X335899293Y-68454496D01*
X335922497Y-68448684D01*
X335946158Y-68445174D01*
X335970050Y-68444000D01*
X336457550Y-68444000D01*
X336481442Y-68445174D01*
X336481442Y-68445174D01*
G37*
D11*
X336213800Y-69144000D03*
G04 #@! TD*
D13*
G04 #@! TO.C,U1*
X348150482Y-134811484D03*
X348650482Y-134811484D03*
X349150482Y-134811484D03*
X349650482Y-134811484D03*
X350150482Y-134811484D03*
X350650482Y-134811484D03*
X351150482Y-134811484D03*
X351650482Y-134811484D03*
X352150482Y-134811484D03*
X352650482Y-134811484D03*
X353150482Y-134811484D03*
X353650482Y-134811484D03*
D14*
X355250482Y-133211484D03*
X355250482Y-132711484D03*
X355250482Y-132211484D03*
X355250482Y-131711484D03*
X355250482Y-131211484D03*
X355250482Y-130711484D03*
X355250482Y-130211484D03*
X355250482Y-129711484D03*
X355250482Y-129211484D03*
X355250482Y-128711484D03*
X355250482Y-128211484D03*
X355250482Y-127711484D03*
D13*
X353650482Y-126111484D03*
X353150482Y-126111484D03*
X352650482Y-126111484D03*
X352150482Y-126111484D03*
X351650482Y-126111484D03*
X351150482Y-126111484D03*
X350650482Y-126111484D03*
X350150482Y-126111484D03*
X349650482Y-126111484D03*
X349150482Y-126111484D03*
X348650482Y-126111484D03*
X348150482Y-126111484D03*
D14*
X346550482Y-127711484D03*
X346550482Y-128211484D03*
X346550482Y-128711484D03*
X346550482Y-129211484D03*
X346550482Y-129711484D03*
X346550482Y-130211484D03*
X346550482Y-130711484D03*
X346550482Y-131211484D03*
X346550482Y-131711484D03*
X346550482Y-132211484D03*
X346550482Y-132711484D03*
X346550482Y-133211484D03*
G04 #@! TD*
M02*
