G04 #@! TF.GenerationSoftware,KiCad,Pcbnew,(5.0.2)-1*
G04 #@! TF.CreationDate,2019-03-25T13:48:29+01:00*
G04 #@! TF.ProjectId,board_arm,626f6172-645f-4617-926d-2e6b69636164,rev?*
G04 #@! TF.SameCoordinates,Original*
G04 #@! TF.FileFunction,Profile,NP*
%FSLAX46Y46*%
G04 Gerber Fmt 4.6, Leading zero omitted, Abs format (unit mm)*
G04 Created by KiCad (PCBNEW (5.0.2)-1) date 25/03/2019 13:48:29*
%MOMM*%
%LPD*%
G01*
G04 APERTURE LIST*
%ADD10C,0.200000*%
G04 APERTURE END LIST*
D10*
X349941000Y-62525000D02*
X356925000Y-62525000D01*
X277932000Y-62525000D02*
X347941000Y-62525000D01*
X206177000Y-62525000D02*
X275932000Y-62525000D01*
X133660000Y-62525000D02*
X204177000Y-62525000D01*
X61143000Y-62525000D02*
X131660000Y-62525000D01*
X52650000Y-62525000D02*
X59143000Y-62525000D01*
X131860000Y-63325000D02*
X133460000Y-63325000D01*
X131660000Y-62525000D02*
X131860000Y-63325000D01*
X133460000Y-63325000D02*
X133660000Y-62525000D01*
X204377000Y-63325000D02*
X205977000Y-63325000D01*
X204177000Y-62525000D02*
X204377000Y-63325000D01*
X205977000Y-63325000D02*
X206177000Y-62525000D01*
X276132000Y-63325000D02*
X277732000Y-63325000D01*
X277732000Y-63325000D02*
X277932000Y-62525000D01*
X275932000Y-62525000D02*
X276132000Y-63325000D01*
X348141000Y-63325000D02*
X349741000Y-63325000D01*
X349741000Y-63325000D02*
X349941000Y-62525000D01*
X347941000Y-62525000D02*
X348141000Y-63325000D01*
X60943000Y-63325000D02*
X61143000Y-62525000D01*
X59343000Y-63325000D02*
X60943000Y-63325000D01*
X59143000Y-62525000D02*
X59343000Y-63325000D01*
X254243750Y-111125000D02*
G75*
G03X254243750Y-111125000I-2125000J0D01*
G01*
X158993750Y-111125000D02*
G75*
G03X158993750Y-111125000I-2125000J0D01*
G01*
X343925000Y-109537500D02*
G75*
G03X343925000Y-109537500I-5000000J0D01*
G01*
X356925000Y-158725000D02*
X52650000Y-158725000D01*
X360925000Y-66525000D02*
X360925000Y-154725000D01*
X48650000Y-154725000D02*
X48650000Y-66525000D01*
X52650000Y-158725000D02*
G75*
G02X48650000Y-154725000I0J4000000D01*
G01*
X48650000Y-66525000D02*
G75*
G02X52650000Y-62525000I4000000J0D01*
G01*
X360925000Y-154725000D02*
G75*
G02X356925000Y-158725000I-4000000J0D01*
G01*
X356925000Y-62525000D02*
G75*
G02X360925000Y-66525000I0J-4000000D01*
G01*
M02*
