G04 #@! TF.GenerationSoftware,KiCad,Pcbnew,(5.0.2)-1*
G04 #@! TF.CreationDate,2019-03-25T13:47:51+01:00*
G04 #@! TF.ProjectId,board_arm,626f6172-645f-4617-926d-2e6b69636164,rev?*
G04 #@! TF.SameCoordinates,Original*
G04 #@! TF.FileFunction,Legend,Bot*
G04 #@! TF.FilePolarity,Positive*
%FSLAX46Y46*%
G04 Gerber Fmt 4.6, Leading zero omitted, Abs format (unit mm)*
G04 Created by KiCad (PCBNEW (5.0.2)-1) date 25/03/2019 13:47:51*
%MOMM*%
%LPD*%
G01*
G04 APERTURE LIST*
%ADD10C,0.120000*%
%ADD11C,0.150000*%
G04 APERTURE END LIST*
D10*
G04 #@! TO.C,C2*
X348182000Y-132417078D02*
X348182000Y-131899922D01*
X346762000Y-132417078D02*
X346762000Y-131899922D01*
D11*
G04 #@! TO.C,U2*
X339738800Y-74084000D02*
X338438800Y-74084000D01*
X339738800Y-71184000D02*
X339738800Y-74084000D01*
X338438800Y-71184000D02*
X339738800Y-71184000D01*
X338438800Y-71184000D02*
X338438800Y-74084000D01*
D10*
G04 #@! TO.C,D1*
X67400000Y-66945000D02*
X67400000Y-68945000D01*
X67400000Y-68945000D02*
X63500000Y-68945000D01*
X67400000Y-66945000D02*
X63500000Y-66945000D01*
G04 #@! TO.C,D2*
X85137500Y-75275000D02*
X85137500Y-71375000D01*
X83137500Y-75275000D02*
X83137500Y-71375000D01*
X85137500Y-75275000D02*
X83137500Y-75275000D01*
G04 #@! TO.C,D3*
X104187500Y-75275000D02*
X102187500Y-75275000D01*
X102187500Y-75275000D02*
X102187500Y-71375000D01*
X104187500Y-75275000D02*
X104187500Y-71375000D01*
G04 #@! TO.C,D4*
X123237500Y-75275000D02*
X123237500Y-71375000D01*
X121237500Y-75275000D02*
X121237500Y-71375000D01*
X123237500Y-75275000D02*
X121237500Y-75275000D01*
G04 #@! TO.C,D5*
X142287500Y-75275000D02*
X140287500Y-75275000D01*
X140287500Y-75275000D02*
X140287500Y-71375000D01*
X142287500Y-75275000D02*
X142287500Y-71375000D01*
G04 #@! TO.C,D6*
X161337500Y-75275000D02*
X161337500Y-71375000D01*
X159337500Y-75275000D02*
X159337500Y-71375000D01*
X161337500Y-75275000D02*
X159337500Y-75275000D01*
G04 #@! TO.C,D7*
X180387500Y-75275000D02*
X178387500Y-75275000D01*
X178387500Y-75275000D02*
X178387500Y-71375000D01*
X180387500Y-75275000D02*
X180387500Y-71375000D01*
G04 #@! TO.C,D8*
X199437500Y-75275000D02*
X199437500Y-71375000D01*
X197437500Y-75275000D02*
X197437500Y-71375000D01*
X199437500Y-75275000D02*
X197437500Y-75275000D01*
G04 #@! TO.C,D9*
X218487500Y-75275000D02*
X216487500Y-75275000D01*
X216487500Y-75275000D02*
X216487500Y-71375000D01*
X218487500Y-75275000D02*
X218487500Y-71375000D01*
G04 #@! TO.C,D10*
X237537500Y-75275000D02*
X237537500Y-71375000D01*
X235537500Y-75275000D02*
X235537500Y-71375000D01*
X237537500Y-75275000D02*
X235537500Y-75275000D01*
G04 #@! TO.C,D11*
X256587500Y-75275000D02*
X256587500Y-71375000D01*
X254587500Y-75275000D02*
X254587500Y-71375000D01*
X256587500Y-75275000D02*
X254587500Y-75275000D01*
G04 #@! TO.C,D12*
X275637500Y-75275000D02*
X275637500Y-71375000D01*
X273637500Y-75275000D02*
X273637500Y-71375000D01*
X275637500Y-75275000D02*
X273637500Y-75275000D01*
G04 #@! TO.C,D13*
X294687500Y-75275000D02*
X292687500Y-75275000D01*
X292687500Y-75275000D02*
X292687500Y-71375000D01*
X294687500Y-75275000D02*
X294687500Y-71375000D01*
G04 #@! TO.C,D14*
X323262500Y-75275000D02*
X323262500Y-71375000D01*
X321262500Y-75275000D02*
X321262500Y-71375000D01*
X323262500Y-75275000D02*
X321262500Y-75275000D01*
G04 #@! TO.C,D15*
X360664000Y-75275000D02*
X358664000Y-75275000D01*
X358664000Y-75275000D02*
X358664000Y-71375000D01*
X360664000Y-75275000D02*
X360664000Y-71375000D01*
G04 #@! TO.C,D16*
X70850000Y-94325000D02*
X68850000Y-94325000D01*
X68850000Y-94325000D02*
X68850000Y-90425000D01*
X70850000Y-94325000D02*
X70850000Y-90425000D01*
G04 #@! TO.C,D17*
X94662500Y-94325000D02*
X94662500Y-90425000D01*
X92662500Y-94325000D02*
X92662500Y-90425000D01*
X94662500Y-94325000D02*
X92662500Y-94325000D01*
G04 #@! TO.C,D18*
X113712500Y-94325000D02*
X111712500Y-94325000D01*
X111712500Y-94325000D02*
X111712500Y-90425000D01*
X113712500Y-94325000D02*
X113712500Y-90425000D01*
G04 #@! TO.C,D19*
X134076000Y-85995000D02*
X130176000Y-85995000D01*
X134076000Y-87995000D02*
X130176000Y-87995000D01*
X134076000Y-85995000D02*
X134076000Y-87995000D01*
G04 #@! TO.C,D20*
X151812500Y-94325000D02*
X149812500Y-94325000D01*
X149812500Y-94325000D02*
X149812500Y-90425000D01*
X151812500Y-94325000D02*
X151812500Y-90425000D01*
G04 #@! TO.C,D21*
X170862500Y-94325000D02*
X170862500Y-90425000D01*
X168862500Y-94325000D02*
X168862500Y-90425000D01*
X170862500Y-94325000D02*
X168862500Y-94325000D01*
G04 #@! TO.C,D22*
X189912500Y-94325000D02*
X187912500Y-94325000D01*
X187912500Y-94325000D02*
X187912500Y-90425000D01*
X189912500Y-94325000D02*
X189912500Y-90425000D01*
G04 #@! TO.C,D23*
X208962500Y-94325000D02*
X208962500Y-90425000D01*
X206962500Y-94325000D02*
X206962500Y-90425000D01*
X208962500Y-94325000D02*
X206962500Y-94325000D01*
G04 #@! TO.C,D24*
X228012500Y-94325000D02*
X228012500Y-90425000D01*
X226012500Y-94325000D02*
X226012500Y-90425000D01*
X228012500Y-94325000D02*
X226012500Y-94325000D01*
G04 #@! TO.C,D25*
X247062500Y-94325000D02*
X245062500Y-94325000D01*
X245062500Y-94325000D02*
X245062500Y-90425000D01*
X247062500Y-94325000D02*
X247062500Y-90425000D01*
G04 #@! TO.C,D26*
X267426000Y-85995000D02*
X263526000Y-85995000D01*
X267426000Y-87995000D02*
X263526000Y-87995000D01*
X267426000Y-85995000D02*
X267426000Y-87995000D01*
G04 #@! TO.C,D27*
X285162500Y-94325000D02*
X283162500Y-94325000D01*
X283162500Y-94325000D02*
X283162500Y-90425000D01*
X285162500Y-94325000D02*
X285162500Y-90425000D01*
G04 #@! TO.C,D28*
X304212500Y-94325000D02*
X304212500Y-90425000D01*
X302212500Y-94325000D02*
X302212500Y-90425000D01*
X304212500Y-94325000D02*
X302212500Y-94325000D01*
G04 #@! TO.C,D29*
X328025000Y-94325000D02*
X326025000Y-94325000D01*
X326025000Y-94325000D02*
X326025000Y-90425000D01*
X328025000Y-94325000D02*
X328025000Y-90425000D01*
G04 #@! TO.C,D30*
X359648000Y-104740000D02*
X357648000Y-104740000D01*
X357648000Y-104740000D02*
X357648000Y-100840000D01*
X359648000Y-104740000D02*
X359648000Y-100840000D01*
G04 #@! TO.C,D31*
X73231250Y-113375000D02*
X73231250Y-109475000D01*
X71231250Y-113375000D02*
X71231250Y-109475000D01*
X73231250Y-113375000D02*
X71231250Y-113375000D01*
G04 #@! TO.C,D32*
X99425000Y-113375000D02*
X97425000Y-113375000D01*
X97425000Y-113375000D02*
X97425000Y-109475000D01*
X99425000Y-113375000D02*
X99425000Y-109475000D01*
G04 #@! TO.C,D33*
X118475000Y-113375000D02*
X116475000Y-113375000D01*
X116475000Y-113375000D02*
X116475000Y-109475000D01*
X118475000Y-113375000D02*
X118475000Y-109475000D01*
G04 #@! TO.C,D34*
X137525000Y-113375000D02*
X137525000Y-109475000D01*
X135525000Y-113375000D02*
X135525000Y-109475000D01*
X137525000Y-113375000D02*
X135525000Y-113375000D01*
G04 #@! TO.C,D35*
X157571000Y-105045000D02*
X153671000Y-105045000D01*
X157571000Y-107045000D02*
X153671000Y-107045000D01*
X157571000Y-105045000D02*
X157571000Y-107045000D01*
G04 #@! TO.C,D36*
X175625000Y-113375000D02*
X173625000Y-113375000D01*
X173625000Y-113375000D02*
X173625000Y-109475000D01*
X175625000Y-113375000D02*
X175625000Y-109475000D01*
G04 #@! TO.C,D37*
X194294000Y-113375000D02*
X194294000Y-109475000D01*
X192294000Y-113375000D02*
X192294000Y-109475000D01*
X194294000Y-113375000D02*
X192294000Y-113375000D01*
G04 #@! TO.C,D38*
X213725000Y-113375000D02*
X211725000Y-113375000D01*
X211725000Y-113375000D02*
X211725000Y-109475000D01*
X213725000Y-113375000D02*
X213725000Y-109475000D01*
G04 #@! TO.C,D39*
X232902000Y-113375000D02*
X232902000Y-109475000D01*
X230902000Y-113375000D02*
X230902000Y-109475000D01*
X232902000Y-113375000D02*
X230902000Y-113375000D01*
G04 #@! TO.C,D40*
X252821000Y-105045000D02*
X252821000Y-107045000D01*
X252821000Y-107045000D02*
X248921000Y-107045000D01*
X252821000Y-105045000D02*
X248921000Y-105045000D01*
G04 #@! TO.C,D41*
X270875000Y-113375000D02*
X270875000Y-109475000D01*
X268875000Y-113375000D02*
X268875000Y-109475000D01*
X270875000Y-113375000D02*
X268875000Y-113375000D01*
G04 #@! TO.C,D42*
X289925000Y-113375000D02*
X287925000Y-113375000D01*
X287925000Y-113375000D02*
X287925000Y-109475000D01*
X289925000Y-113375000D02*
X289925000Y-109475000D01*
G04 #@! TO.C,D43*
X320881250Y-113375000D02*
X320881250Y-109475000D01*
X318881250Y-113375000D02*
X318881250Y-109475000D01*
X320881250Y-113375000D02*
X318881250Y-113375000D01*
G04 #@! TO.C,D44*
X77993750Y-132425000D02*
X75993750Y-132425000D01*
X75993750Y-132425000D02*
X75993750Y-128525000D01*
X77993750Y-132425000D02*
X77993750Y-128525000D01*
G04 #@! TO.C,D45*
X108950000Y-132425000D02*
X106950000Y-132425000D01*
X106950000Y-132425000D02*
X106950000Y-128525000D01*
X108950000Y-132425000D02*
X108950000Y-128525000D01*
G04 #@! TO.C,D46*
X129250000Y-124095000D02*
X129250000Y-126095000D01*
X129250000Y-126095000D02*
X125350000Y-126095000D01*
X129250000Y-124095000D02*
X125350000Y-124095000D01*
G04 #@! TO.C,D47*
X147050000Y-132425000D02*
X145050000Y-132425000D01*
X145050000Y-132425000D02*
X145050000Y-128525000D01*
X147050000Y-132425000D02*
X147050000Y-128525000D01*
G04 #@! TO.C,D48*
X166100000Y-132425000D02*
X164100000Y-132425000D01*
X164100000Y-132425000D02*
X164100000Y-128525000D01*
X166100000Y-132425000D02*
X166100000Y-128525000D01*
G04 #@! TO.C,D49*
X185150000Y-132425000D02*
X185150000Y-128525000D01*
X183150000Y-132425000D02*
X183150000Y-128525000D01*
X185150000Y-132425000D02*
X183150000Y-132425000D01*
G04 #@! TO.C,D50*
X204200000Y-132425000D02*
X204200000Y-128525000D01*
X202200000Y-132425000D02*
X202200000Y-128525000D01*
X204200000Y-132425000D02*
X202200000Y-132425000D01*
G04 #@! TO.C,D51*
X223250000Y-132425000D02*
X221250000Y-132425000D01*
X221250000Y-132425000D02*
X221250000Y-128525000D01*
X223250000Y-132425000D02*
X223250000Y-128525000D01*
G04 #@! TO.C,D52*
X242300000Y-132425000D02*
X242300000Y-128525000D01*
X240300000Y-132425000D02*
X240300000Y-128525000D01*
X242300000Y-132425000D02*
X240300000Y-132425000D01*
G04 #@! TO.C,D53*
X261350000Y-132425000D02*
X259350000Y-132425000D01*
X259350000Y-132425000D02*
X259350000Y-128525000D01*
X261350000Y-132425000D02*
X261350000Y-128525000D01*
G04 #@! TO.C,D54*
X282031000Y-124095000D02*
X278131000Y-124095000D01*
X282031000Y-126095000D02*
X278131000Y-126095000D01*
X282031000Y-124095000D02*
X282031000Y-126095000D01*
G04 #@! TO.C,D55*
X311356250Y-132425000D02*
X309356250Y-132425000D01*
X309356250Y-132425000D02*
X309356250Y-128525000D01*
X311356250Y-132425000D02*
X311356250Y-128525000D01*
G04 #@! TO.C,D56*
X342312500Y-132425000D02*
X342312500Y-128525000D01*
X340312500Y-132425000D02*
X340312500Y-128525000D01*
X342312500Y-132425000D02*
X340312500Y-132425000D01*
G04 #@! TO.C,D57*
X69814000Y-143145000D02*
X65914000Y-143145000D01*
X69814000Y-145145000D02*
X65914000Y-145145000D01*
X69814000Y-143145000D02*
X69814000Y-145145000D01*
G04 #@! TO.C,D58*
X89900000Y-151475000D02*
X87900000Y-151475000D01*
X87900000Y-151475000D02*
X87900000Y-147575000D01*
X89900000Y-151475000D02*
X89900000Y-147575000D01*
G04 #@! TO.C,D59*
X111331250Y-151475000D02*
X111331250Y-147575000D01*
X109331250Y-151475000D02*
X109331250Y-147575000D01*
X111331250Y-151475000D02*
X109331250Y-151475000D01*
G04 #@! TO.C,D60*
X182768750Y-151475000D02*
X182768750Y-147575000D01*
X180768750Y-151475000D02*
X180768750Y-147575000D01*
X182768750Y-151475000D02*
X180768750Y-151475000D01*
G04 #@! TO.C,D61*
X254206250Y-151475000D02*
X252206250Y-151475000D01*
X252206250Y-151475000D02*
X252206250Y-147575000D01*
X254206250Y-151475000D02*
X254206250Y-147575000D01*
G04 #@! TO.C,D62*
X278018750Y-151475000D02*
X278018750Y-147575000D01*
X276018750Y-151475000D02*
X276018750Y-147575000D01*
X278018750Y-151475000D02*
X276018750Y-151475000D01*
G04 #@! TO.C,D63*
X301831250Y-151475000D02*
X299831250Y-151475000D01*
X299831250Y-151475000D02*
X299831250Y-147575000D01*
X301831250Y-151475000D02*
X301831250Y-147575000D01*
G04 #@! TO.C,D64*
X323262500Y-151475000D02*
X321262500Y-151475000D01*
X321262500Y-151475000D02*
X321262500Y-147575000D01*
X323262500Y-151475000D02*
X323262500Y-147575000D01*
G04 #@! TO.C,D65*
X341423500Y-151475000D02*
X341423500Y-147575000D01*
X339423500Y-151475000D02*
X339423500Y-147575000D01*
X341423500Y-151475000D02*
X339423500Y-151475000D01*
G04 #@! TO.C,D66*
X360664000Y-151475000D02*
X360664000Y-147575000D01*
X358664000Y-151475000D02*
X358664000Y-147575000D01*
X360664000Y-151475000D02*
X358664000Y-151475000D01*
G04 #@! TO.C,C3*
X353524482Y-128694922D02*
X353524482Y-129212078D01*
X354944482Y-128694922D02*
X354944482Y-129212078D01*
G04 #@! TO.C,C4*
X349166922Y-127710000D02*
X349684078Y-127710000D01*
X349166922Y-126290000D02*
X349684078Y-126290000D01*
G04 #@! TO.C,C6*
X352539560Y-133049484D02*
X352022404Y-133049484D01*
X352539560Y-134469484D02*
X352022404Y-134469484D01*
G04 #@! TO.C,R1*
X342190000Y-122702578D02*
X342190000Y-122185422D01*
X343610000Y-122702578D02*
X343610000Y-122185422D01*
G04 #@! TO.C,R3*
X357461078Y-125274000D02*
X356943922Y-125274000D01*
X357461078Y-126694000D02*
X356943922Y-126694000D01*
G04 #@! TO.C,SW1*
X352065000Y-110440000D02*
X352065000Y-107060000D01*
X352065000Y-105440000D02*
X352065000Y-104140000D01*
X355785000Y-104140000D02*
X352065000Y-104140000D01*
X355785000Y-113360000D02*
X352065000Y-113360000D01*
X352065000Y-113360000D02*
X352065000Y-112060000D01*
X355785000Y-113360000D02*
X355785000Y-109560000D01*
X355785000Y-107940000D02*
X355785000Y-104140000D01*
G04 #@! TO.C,C1*
X357461078Y-135734000D02*
X356943922Y-135734000D01*
X357461078Y-134314000D02*
X356943922Y-134314000D01*
G04 #@! TO.C,C2*
D11*
X349607142Y-131991833D02*
X349654761Y-131944214D01*
X349702380Y-131801357D01*
X349702380Y-131706119D01*
X349654761Y-131563261D01*
X349559523Y-131468023D01*
X349464285Y-131420404D01*
X349273809Y-131372785D01*
X349130952Y-131372785D01*
X348940476Y-131420404D01*
X348845238Y-131468023D01*
X348750000Y-131563261D01*
X348702380Y-131706119D01*
X348702380Y-131801357D01*
X348750000Y-131944214D01*
X348797619Y-131991833D01*
X348797619Y-132372785D02*
X348750000Y-132420404D01*
X348702380Y-132515642D01*
X348702380Y-132753738D01*
X348750000Y-132848976D01*
X348797619Y-132896595D01*
X348892857Y-132944214D01*
X348988095Y-132944214D01*
X349130952Y-132896595D01*
X349702380Y-132325166D01*
X349702380Y-132944214D01*
G04 #@! TO.C,U2*
X336129180Y-72486095D02*
X336938704Y-72486095D01*
X337033942Y-72533714D01*
X337081561Y-72581333D01*
X337129180Y-72676571D01*
X337129180Y-72867047D01*
X337081561Y-72962285D01*
X337033942Y-73009904D01*
X336938704Y-73057523D01*
X336129180Y-73057523D01*
X336224419Y-73486095D02*
X336176800Y-73533714D01*
X336129180Y-73628952D01*
X336129180Y-73867047D01*
X336176800Y-73962285D01*
X336224419Y-74009904D01*
X336319657Y-74057523D01*
X336414895Y-74057523D01*
X336557752Y-74009904D01*
X337129180Y-73438476D01*
X337129180Y-74057523D01*
G04 #@! TO.C,D1*
X65888095Y-66397380D02*
X65888095Y-65397380D01*
X65650000Y-65397380D01*
X65507142Y-65445000D01*
X65411904Y-65540238D01*
X65364285Y-65635476D01*
X65316666Y-65825952D01*
X65316666Y-65968809D01*
X65364285Y-66159285D01*
X65411904Y-66254523D01*
X65507142Y-66349761D01*
X65650000Y-66397380D01*
X65888095Y-66397380D01*
X64364285Y-66397380D02*
X64935714Y-66397380D01*
X64650000Y-66397380D02*
X64650000Y-65397380D01*
X64745238Y-65540238D01*
X64840476Y-65635476D01*
X64935714Y-65683095D01*
G04 #@! TO.C,D2*
X86589880Y-72286904D02*
X85589880Y-72286904D01*
X85589880Y-72525000D01*
X85637500Y-72667857D01*
X85732738Y-72763095D01*
X85827976Y-72810714D01*
X86018452Y-72858333D01*
X86161309Y-72858333D01*
X86351785Y-72810714D01*
X86447023Y-72763095D01*
X86542261Y-72667857D01*
X86589880Y-72525000D01*
X86589880Y-72286904D01*
X85685119Y-73239285D02*
X85637500Y-73286904D01*
X85589880Y-73382142D01*
X85589880Y-73620238D01*
X85637500Y-73715476D01*
X85685119Y-73763095D01*
X85780357Y-73810714D01*
X85875595Y-73810714D01*
X86018452Y-73763095D01*
X86589880Y-73191666D01*
X86589880Y-73810714D01*
G04 #@! TO.C,D3*
X105639880Y-72286904D02*
X104639880Y-72286904D01*
X104639880Y-72525000D01*
X104687500Y-72667857D01*
X104782738Y-72763095D01*
X104877976Y-72810714D01*
X105068452Y-72858333D01*
X105211309Y-72858333D01*
X105401785Y-72810714D01*
X105497023Y-72763095D01*
X105592261Y-72667857D01*
X105639880Y-72525000D01*
X105639880Y-72286904D01*
X104639880Y-73191666D02*
X104639880Y-73810714D01*
X105020833Y-73477380D01*
X105020833Y-73620238D01*
X105068452Y-73715476D01*
X105116071Y-73763095D01*
X105211309Y-73810714D01*
X105449404Y-73810714D01*
X105544642Y-73763095D01*
X105592261Y-73715476D01*
X105639880Y-73620238D01*
X105639880Y-73334523D01*
X105592261Y-73239285D01*
X105544642Y-73191666D01*
G04 #@! TO.C,D4*
X124689880Y-72286904D02*
X123689880Y-72286904D01*
X123689880Y-72525000D01*
X123737500Y-72667857D01*
X123832738Y-72763095D01*
X123927976Y-72810714D01*
X124118452Y-72858333D01*
X124261309Y-72858333D01*
X124451785Y-72810714D01*
X124547023Y-72763095D01*
X124642261Y-72667857D01*
X124689880Y-72525000D01*
X124689880Y-72286904D01*
X124023214Y-73715476D02*
X124689880Y-73715476D01*
X123642261Y-73477380D02*
X124356547Y-73239285D01*
X124356547Y-73858333D01*
G04 #@! TO.C,D5*
X143739880Y-72286904D02*
X142739880Y-72286904D01*
X142739880Y-72525000D01*
X142787500Y-72667857D01*
X142882738Y-72763095D01*
X142977976Y-72810714D01*
X143168452Y-72858333D01*
X143311309Y-72858333D01*
X143501785Y-72810714D01*
X143597023Y-72763095D01*
X143692261Y-72667857D01*
X143739880Y-72525000D01*
X143739880Y-72286904D01*
X142739880Y-73763095D02*
X142739880Y-73286904D01*
X143216071Y-73239285D01*
X143168452Y-73286904D01*
X143120833Y-73382142D01*
X143120833Y-73620238D01*
X143168452Y-73715476D01*
X143216071Y-73763095D01*
X143311309Y-73810714D01*
X143549404Y-73810714D01*
X143644642Y-73763095D01*
X143692261Y-73715476D01*
X143739880Y-73620238D01*
X143739880Y-73382142D01*
X143692261Y-73286904D01*
X143644642Y-73239285D01*
G04 #@! TO.C,D6*
X162789880Y-72286904D02*
X161789880Y-72286904D01*
X161789880Y-72525000D01*
X161837500Y-72667857D01*
X161932738Y-72763095D01*
X162027976Y-72810714D01*
X162218452Y-72858333D01*
X162361309Y-72858333D01*
X162551785Y-72810714D01*
X162647023Y-72763095D01*
X162742261Y-72667857D01*
X162789880Y-72525000D01*
X162789880Y-72286904D01*
X161789880Y-73715476D02*
X161789880Y-73525000D01*
X161837500Y-73429761D01*
X161885119Y-73382142D01*
X162027976Y-73286904D01*
X162218452Y-73239285D01*
X162599404Y-73239285D01*
X162694642Y-73286904D01*
X162742261Y-73334523D01*
X162789880Y-73429761D01*
X162789880Y-73620238D01*
X162742261Y-73715476D01*
X162694642Y-73763095D01*
X162599404Y-73810714D01*
X162361309Y-73810714D01*
X162266071Y-73763095D01*
X162218452Y-73715476D01*
X162170833Y-73620238D01*
X162170833Y-73429761D01*
X162218452Y-73334523D01*
X162266071Y-73286904D01*
X162361309Y-73239285D01*
G04 #@! TO.C,D7*
X181839880Y-72286904D02*
X180839880Y-72286904D01*
X180839880Y-72525000D01*
X180887500Y-72667857D01*
X180982738Y-72763095D01*
X181077976Y-72810714D01*
X181268452Y-72858333D01*
X181411309Y-72858333D01*
X181601785Y-72810714D01*
X181697023Y-72763095D01*
X181792261Y-72667857D01*
X181839880Y-72525000D01*
X181839880Y-72286904D01*
X180839880Y-73191666D02*
X180839880Y-73858333D01*
X181839880Y-73429761D01*
G04 #@! TO.C,D8*
X200889880Y-72286904D02*
X199889880Y-72286904D01*
X199889880Y-72525000D01*
X199937500Y-72667857D01*
X200032738Y-72763095D01*
X200127976Y-72810714D01*
X200318452Y-72858333D01*
X200461309Y-72858333D01*
X200651785Y-72810714D01*
X200747023Y-72763095D01*
X200842261Y-72667857D01*
X200889880Y-72525000D01*
X200889880Y-72286904D01*
X200318452Y-73429761D02*
X200270833Y-73334523D01*
X200223214Y-73286904D01*
X200127976Y-73239285D01*
X200080357Y-73239285D01*
X199985119Y-73286904D01*
X199937500Y-73334523D01*
X199889880Y-73429761D01*
X199889880Y-73620238D01*
X199937500Y-73715476D01*
X199985119Y-73763095D01*
X200080357Y-73810714D01*
X200127976Y-73810714D01*
X200223214Y-73763095D01*
X200270833Y-73715476D01*
X200318452Y-73620238D01*
X200318452Y-73429761D01*
X200366071Y-73334523D01*
X200413690Y-73286904D01*
X200508928Y-73239285D01*
X200699404Y-73239285D01*
X200794642Y-73286904D01*
X200842261Y-73334523D01*
X200889880Y-73429761D01*
X200889880Y-73620238D01*
X200842261Y-73715476D01*
X200794642Y-73763095D01*
X200699404Y-73810714D01*
X200508928Y-73810714D01*
X200413690Y-73763095D01*
X200366071Y-73715476D01*
X200318452Y-73620238D01*
G04 #@! TO.C,D9*
X219939880Y-72286904D02*
X218939880Y-72286904D01*
X218939880Y-72525000D01*
X218987500Y-72667857D01*
X219082738Y-72763095D01*
X219177976Y-72810714D01*
X219368452Y-72858333D01*
X219511309Y-72858333D01*
X219701785Y-72810714D01*
X219797023Y-72763095D01*
X219892261Y-72667857D01*
X219939880Y-72525000D01*
X219939880Y-72286904D01*
X219939880Y-73334523D02*
X219939880Y-73525000D01*
X219892261Y-73620238D01*
X219844642Y-73667857D01*
X219701785Y-73763095D01*
X219511309Y-73810714D01*
X219130357Y-73810714D01*
X219035119Y-73763095D01*
X218987500Y-73715476D01*
X218939880Y-73620238D01*
X218939880Y-73429761D01*
X218987500Y-73334523D01*
X219035119Y-73286904D01*
X219130357Y-73239285D01*
X219368452Y-73239285D01*
X219463690Y-73286904D01*
X219511309Y-73334523D01*
X219558928Y-73429761D01*
X219558928Y-73620238D01*
X219511309Y-73715476D01*
X219463690Y-73763095D01*
X219368452Y-73810714D01*
G04 #@! TO.C,D10*
X238989880Y-71810714D02*
X237989880Y-71810714D01*
X237989880Y-72048809D01*
X238037500Y-72191666D01*
X238132738Y-72286904D01*
X238227976Y-72334523D01*
X238418452Y-72382142D01*
X238561309Y-72382142D01*
X238751785Y-72334523D01*
X238847023Y-72286904D01*
X238942261Y-72191666D01*
X238989880Y-72048809D01*
X238989880Y-71810714D01*
X238989880Y-73334523D02*
X238989880Y-72763095D01*
X238989880Y-73048809D02*
X237989880Y-73048809D01*
X238132738Y-72953571D01*
X238227976Y-72858333D01*
X238275595Y-72763095D01*
X237989880Y-73953571D02*
X237989880Y-74048809D01*
X238037500Y-74144047D01*
X238085119Y-74191666D01*
X238180357Y-74239285D01*
X238370833Y-74286904D01*
X238608928Y-74286904D01*
X238799404Y-74239285D01*
X238894642Y-74191666D01*
X238942261Y-74144047D01*
X238989880Y-74048809D01*
X238989880Y-73953571D01*
X238942261Y-73858333D01*
X238894642Y-73810714D01*
X238799404Y-73763095D01*
X238608928Y-73715476D01*
X238370833Y-73715476D01*
X238180357Y-73763095D01*
X238085119Y-73810714D01*
X238037500Y-73858333D01*
X237989880Y-73953571D01*
G04 #@! TO.C,D11*
X258039880Y-71810714D02*
X257039880Y-71810714D01*
X257039880Y-72048809D01*
X257087500Y-72191666D01*
X257182738Y-72286904D01*
X257277976Y-72334523D01*
X257468452Y-72382142D01*
X257611309Y-72382142D01*
X257801785Y-72334523D01*
X257897023Y-72286904D01*
X257992261Y-72191666D01*
X258039880Y-72048809D01*
X258039880Y-71810714D01*
X258039880Y-73334523D02*
X258039880Y-72763095D01*
X258039880Y-73048809D02*
X257039880Y-73048809D01*
X257182738Y-72953571D01*
X257277976Y-72858333D01*
X257325595Y-72763095D01*
X258039880Y-74286904D02*
X258039880Y-73715476D01*
X258039880Y-74001190D02*
X257039880Y-74001190D01*
X257182738Y-73905952D01*
X257277976Y-73810714D01*
X257325595Y-73715476D01*
G04 #@! TO.C,D12*
X277089880Y-71810714D02*
X276089880Y-71810714D01*
X276089880Y-72048809D01*
X276137500Y-72191666D01*
X276232738Y-72286904D01*
X276327976Y-72334523D01*
X276518452Y-72382142D01*
X276661309Y-72382142D01*
X276851785Y-72334523D01*
X276947023Y-72286904D01*
X277042261Y-72191666D01*
X277089880Y-72048809D01*
X277089880Y-71810714D01*
X277089880Y-73334523D02*
X277089880Y-72763095D01*
X277089880Y-73048809D02*
X276089880Y-73048809D01*
X276232738Y-72953571D01*
X276327976Y-72858333D01*
X276375595Y-72763095D01*
X276185119Y-73715476D02*
X276137500Y-73763095D01*
X276089880Y-73858333D01*
X276089880Y-74096428D01*
X276137500Y-74191666D01*
X276185119Y-74239285D01*
X276280357Y-74286904D01*
X276375595Y-74286904D01*
X276518452Y-74239285D01*
X277089880Y-73667857D01*
X277089880Y-74286904D01*
G04 #@! TO.C,D13*
X296139880Y-71810714D02*
X295139880Y-71810714D01*
X295139880Y-72048809D01*
X295187500Y-72191666D01*
X295282738Y-72286904D01*
X295377976Y-72334523D01*
X295568452Y-72382142D01*
X295711309Y-72382142D01*
X295901785Y-72334523D01*
X295997023Y-72286904D01*
X296092261Y-72191666D01*
X296139880Y-72048809D01*
X296139880Y-71810714D01*
X296139880Y-73334523D02*
X296139880Y-72763095D01*
X296139880Y-73048809D02*
X295139880Y-73048809D01*
X295282738Y-72953571D01*
X295377976Y-72858333D01*
X295425595Y-72763095D01*
X295139880Y-73667857D02*
X295139880Y-74286904D01*
X295520833Y-73953571D01*
X295520833Y-74096428D01*
X295568452Y-74191666D01*
X295616071Y-74239285D01*
X295711309Y-74286904D01*
X295949404Y-74286904D01*
X296044642Y-74239285D01*
X296092261Y-74191666D01*
X296139880Y-74096428D01*
X296139880Y-73810714D01*
X296092261Y-73715476D01*
X296044642Y-73667857D01*
G04 #@! TO.C,D14*
X324714880Y-71810714D02*
X323714880Y-71810714D01*
X323714880Y-72048809D01*
X323762500Y-72191666D01*
X323857738Y-72286904D01*
X323952976Y-72334523D01*
X324143452Y-72382142D01*
X324286309Y-72382142D01*
X324476785Y-72334523D01*
X324572023Y-72286904D01*
X324667261Y-72191666D01*
X324714880Y-72048809D01*
X324714880Y-71810714D01*
X324714880Y-73334523D02*
X324714880Y-72763095D01*
X324714880Y-73048809D02*
X323714880Y-73048809D01*
X323857738Y-72953571D01*
X323952976Y-72858333D01*
X324000595Y-72763095D01*
X324048214Y-74191666D02*
X324714880Y-74191666D01*
X323667261Y-73953571D02*
X324381547Y-73715476D01*
X324381547Y-74334523D01*
G04 #@! TO.C,D15*
X360116380Y-67365714D02*
X359116380Y-67365714D01*
X359116380Y-67603809D01*
X359164000Y-67746666D01*
X359259238Y-67841904D01*
X359354476Y-67889523D01*
X359544952Y-67937142D01*
X359687809Y-67937142D01*
X359878285Y-67889523D01*
X359973523Y-67841904D01*
X360068761Y-67746666D01*
X360116380Y-67603809D01*
X360116380Y-67365714D01*
X360116380Y-68889523D02*
X360116380Y-68318095D01*
X360116380Y-68603809D02*
X359116380Y-68603809D01*
X359259238Y-68508571D01*
X359354476Y-68413333D01*
X359402095Y-68318095D01*
X359116380Y-69794285D02*
X359116380Y-69318095D01*
X359592571Y-69270476D01*
X359544952Y-69318095D01*
X359497333Y-69413333D01*
X359497333Y-69651428D01*
X359544952Y-69746666D01*
X359592571Y-69794285D01*
X359687809Y-69841904D01*
X359925904Y-69841904D01*
X360021142Y-69794285D01*
X360068761Y-69746666D01*
X360116380Y-69651428D01*
X360116380Y-69413333D01*
X360068761Y-69318095D01*
X360021142Y-69270476D01*
G04 #@! TO.C,D16*
X72302380Y-90860714D02*
X71302380Y-90860714D01*
X71302380Y-91098809D01*
X71350000Y-91241666D01*
X71445238Y-91336904D01*
X71540476Y-91384523D01*
X71730952Y-91432142D01*
X71873809Y-91432142D01*
X72064285Y-91384523D01*
X72159523Y-91336904D01*
X72254761Y-91241666D01*
X72302380Y-91098809D01*
X72302380Y-90860714D01*
X72302380Y-92384523D02*
X72302380Y-91813095D01*
X72302380Y-92098809D02*
X71302380Y-92098809D01*
X71445238Y-92003571D01*
X71540476Y-91908333D01*
X71588095Y-91813095D01*
X71302380Y-93241666D02*
X71302380Y-93051190D01*
X71350000Y-92955952D01*
X71397619Y-92908333D01*
X71540476Y-92813095D01*
X71730952Y-92765476D01*
X72111904Y-92765476D01*
X72207142Y-92813095D01*
X72254761Y-92860714D01*
X72302380Y-92955952D01*
X72302380Y-93146428D01*
X72254761Y-93241666D01*
X72207142Y-93289285D01*
X72111904Y-93336904D01*
X71873809Y-93336904D01*
X71778571Y-93289285D01*
X71730952Y-93241666D01*
X71683333Y-93146428D01*
X71683333Y-92955952D01*
X71730952Y-92860714D01*
X71778571Y-92813095D01*
X71873809Y-92765476D01*
G04 #@! TO.C,D17*
X96114880Y-90860714D02*
X95114880Y-90860714D01*
X95114880Y-91098809D01*
X95162500Y-91241666D01*
X95257738Y-91336904D01*
X95352976Y-91384523D01*
X95543452Y-91432142D01*
X95686309Y-91432142D01*
X95876785Y-91384523D01*
X95972023Y-91336904D01*
X96067261Y-91241666D01*
X96114880Y-91098809D01*
X96114880Y-90860714D01*
X96114880Y-92384523D02*
X96114880Y-91813095D01*
X96114880Y-92098809D02*
X95114880Y-92098809D01*
X95257738Y-92003571D01*
X95352976Y-91908333D01*
X95400595Y-91813095D01*
X95114880Y-92717857D02*
X95114880Y-93384523D01*
X96114880Y-92955952D01*
G04 #@! TO.C,D18*
X115164880Y-90860714D02*
X114164880Y-90860714D01*
X114164880Y-91098809D01*
X114212500Y-91241666D01*
X114307738Y-91336904D01*
X114402976Y-91384523D01*
X114593452Y-91432142D01*
X114736309Y-91432142D01*
X114926785Y-91384523D01*
X115022023Y-91336904D01*
X115117261Y-91241666D01*
X115164880Y-91098809D01*
X115164880Y-90860714D01*
X115164880Y-92384523D02*
X115164880Y-91813095D01*
X115164880Y-92098809D02*
X114164880Y-92098809D01*
X114307738Y-92003571D01*
X114402976Y-91908333D01*
X114450595Y-91813095D01*
X114593452Y-92955952D02*
X114545833Y-92860714D01*
X114498214Y-92813095D01*
X114402976Y-92765476D01*
X114355357Y-92765476D01*
X114260119Y-92813095D01*
X114212500Y-92860714D01*
X114164880Y-92955952D01*
X114164880Y-93146428D01*
X114212500Y-93241666D01*
X114260119Y-93289285D01*
X114355357Y-93336904D01*
X114402976Y-93336904D01*
X114498214Y-93289285D01*
X114545833Y-93241666D01*
X114593452Y-93146428D01*
X114593452Y-92955952D01*
X114641071Y-92860714D01*
X114688690Y-92813095D01*
X114783928Y-92765476D01*
X114974404Y-92765476D01*
X115069642Y-92813095D01*
X115117261Y-92860714D01*
X115164880Y-92955952D01*
X115164880Y-93146428D01*
X115117261Y-93241666D01*
X115069642Y-93289285D01*
X114974404Y-93336904D01*
X114783928Y-93336904D01*
X114688690Y-93289285D01*
X114641071Y-93241666D01*
X114593452Y-93146428D01*
G04 #@! TO.C,D19*
X133040285Y-85447380D02*
X133040285Y-84447380D01*
X132802190Y-84447380D01*
X132659333Y-84495000D01*
X132564095Y-84590238D01*
X132516476Y-84685476D01*
X132468857Y-84875952D01*
X132468857Y-85018809D01*
X132516476Y-85209285D01*
X132564095Y-85304523D01*
X132659333Y-85399761D01*
X132802190Y-85447380D01*
X133040285Y-85447380D01*
X131516476Y-85447380D02*
X132087904Y-85447380D01*
X131802190Y-85447380D02*
X131802190Y-84447380D01*
X131897428Y-84590238D01*
X131992666Y-84685476D01*
X132087904Y-84733095D01*
X131040285Y-85447380D02*
X130849809Y-85447380D01*
X130754571Y-85399761D01*
X130706952Y-85352142D01*
X130611714Y-85209285D01*
X130564095Y-85018809D01*
X130564095Y-84637857D01*
X130611714Y-84542619D01*
X130659333Y-84495000D01*
X130754571Y-84447380D01*
X130945047Y-84447380D01*
X131040285Y-84495000D01*
X131087904Y-84542619D01*
X131135523Y-84637857D01*
X131135523Y-84875952D01*
X131087904Y-84971190D01*
X131040285Y-85018809D01*
X130945047Y-85066428D01*
X130754571Y-85066428D01*
X130659333Y-85018809D01*
X130611714Y-84971190D01*
X130564095Y-84875952D01*
G04 #@! TO.C,D20*
X153264880Y-90860714D02*
X152264880Y-90860714D01*
X152264880Y-91098809D01*
X152312500Y-91241666D01*
X152407738Y-91336904D01*
X152502976Y-91384523D01*
X152693452Y-91432142D01*
X152836309Y-91432142D01*
X153026785Y-91384523D01*
X153122023Y-91336904D01*
X153217261Y-91241666D01*
X153264880Y-91098809D01*
X153264880Y-90860714D01*
X152360119Y-91813095D02*
X152312500Y-91860714D01*
X152264880Y-91955952D01*
X152264880Y-92194047D01*
X152312500Y-92289285D01*
X152360119Y-92336904D01*
X152455357Y-92384523D01*
X152550595Y-92384523D01*
X152693452Y-92336904D01*
X153264880Y-91765476D01*
X153264880Y-92384523D01*
X152264880Y-93003571D02*
X152264880Y-93098809D01*
X152312500Y-93194047D01*
X152360119Y-93241666D01*
X152455357Y-93289285D01*
X152645833Y-93336904D01*
X152883928Y-93336904D01*
X153074404Y-93289285D01*
X153169642Y-93241666D01*
X153217261Y-93194047D01*
X153264880Y-93098809D01*
X153264880Y-93003571D01*
X153217261Y-92908333D01*
X153169642Y-92860714D01*
X153074404Y-92813095D01*
X152883928Y-92765476D01*
X152645833Y-92765476D01*
X152455357Y-92813095D01*
X152360119Y-92860714D01*
X152312500Y-92908333D01*
X152264880Y-93003571D01*
G04 #@! TO.C,D21*
X172314880Y-90860714D02*
X171314880Y-90860714D01*
X171314880Y-91098809D01*
X171362500Y-91241666D01*
X171457738Y-91336904D01*
X171552976Y-91384523D01*
X171743452Y-91432142D01*
X171886309Y-91432142D01*
X172076785Y-91384523D01*
X172172023Y-91336904D01*
X172267261Y-91241666D01*
X172314880Y-91098809D01*
X172314880Y-90860714D01*
X171410119Y-91813095D02*
X171362500Y-91860714D01*
X171314880Y-91955952D01*
X171314880Y-92194047D01*
X171362500Y-92289285D01*
X171410119Y-92336904D01*
X171505357Y-92384523D01*
X171600595Y-92384523D01*
X171743452Y-92336904D01*
X172314880Y-91765476D01*
X172314880Y-92384523D01*
X172314880Y-93336904D02*
X172314880Y-92765476D01*
X172314880Y-93051190D02*
X171314880Y-93051190D01*
X171457738Y-92955952D01*
X171552976Y-92860714D01*
X171600595Y-92765476D01*
G04 #@! TO.C,D22*
X191364880Y-90860714D02*
X190364880Y-90860714D01*
X190364880Y-91098809D01*
X190412500Y-91241666D01*
X190507738Y-91336904D01*
X190602976Y-91384523D01*
X190793452Y-91432142D01*
X190936309Y-91432142D01*
X191126785Y-91384523D01*
X191222023Y-91336904D01*
X191317261Y-91241666D01*
X191364880Y-91098809D01*
X191364880Y-90860714D01*
X190460119Y-91813095D02*
X190412500Y-91860714D01*
X190364880Y-91955952D01*
X190364880Y-92194047D01*
X190412500Y-92289285D01*
X190460119Y-92336904D01*
X190555357Y-92384523D01*
X190650595Y-92384523D01*
X190793452Y-92336904D01*
X191364880Y-91765476D01*
X191364880Y-92384523D01*
X190460119Y-92765476D02*
X190412500Y-92813095D01*
X190364880Y-92908333D01*
X190364880Y-93146428D01*
X190412500Y-93241666D01*
X190460119Y-93289285D01*
X190555357Y-93336904D01*
X190650595Y-93336904D01*
X190793452Y-93289285D01*
X191364880Y-92717857D01*
X191364880Y-93336904D01*
G04 #@! TO.C,D23*
X210414880Y-90860714D02*
X209414880Y-90860714D01*
X209414880Y-91098809D01*
X209462500Y-91241666D01*
X209557738Y-91336904D01*
X209652976Y-91384523D01*
X209843452Y-91432142D01*
X209986309Y-91432142D01*
X210176785Y-91384523D01*
X210272023Y-91336904D01*
X210367261Y-91241666D01*
X210414880Y-91098809D01*
X210414880Y-90860714D01*
X209510119Y-91813095D02*
X209462500Y-91860714D01*
X209414880Y-91955952D01*
X209414880Y-92194047D01*
X209462500Y-92289285D01*
X209510119Y-92336904D01*
X209605357Y-92384523D01*
X209700595Y-92384523D01*
X209843452Y-92336904D01*
X210414880Y-91765476D01*
X210414880Y-92384523D01*
X209414880Y-92717857D02*
X209414880Y-93336904D01*
X209795833Y-93003571D01*
X209795833Y-93146428D01*
X209843452Y-93241666D01*
X209891071Y-93289285D01*
X209986309Y-93336904D01*
X210224404Y-93336904D01*
X210319642Y-93289285D01*
X210367261Y-93241666D01*
X210414880Y-93146428D01*
X210414880Y-92860714D01*
X210367261Y-92765476D01*
X210319642Y-92717857D01*
G04 #@! TO.C,D24*
X229464880Y-90860714D02*
X228464880Y-90860714D01*
X228464880Y-91098809D01*
X228512500Y-91241666D01*
X228607738Y-91336904D01*
X228702976Y-91384523D01*
X228893452Y-91432142D01*
X229036309Y-91432142D01*
X229226785Y-91384523D01*
X229322023Y-91336904D01*
X229417261Y-91241666D01*
X229464880Y-91098809D01*
X229464880Y-90860714D01*
X228560119Y-91813095D02*
X228512500Y-91860714D01*
X228464880Y-91955952D01*
X228464880Y-92194047D01*
X228512500Y-92289285D01*
X228560119Y-92336904D01*
X228655357Y-92384523D01*
X228750595Y-92384523D01*
X228893452Y-92336904D01*
X229464880Y-91765476D01*
X229464880Y-92384523D01*
X228798214Y-93241666D02*
X229464880Y-93241666D01*
X228417261Y-93003571D02*
X229131547Y-92765476D01*
X229131547Y-93384523D01*
G04 #@! TO.C,D25*
X248514880Y-90860714D02*
X247514880Y-90860714D01*
X247514880Y-91098809D01*
X247562500Y-91241666D01*
X247657738Y-91336904D01*
X247752976Y-91384523D01*
X247943452Y-91432142D01*
X248086309Y-91432142D01*
X248276785Y-91384523D01*
X248372023Y-91336904D01*
X248467261Y-91241666D01*
X248514880Y-91098809D01*
X248514880Y-90860714D01*
X247610119Y-91813095D02*
X247562500Y-91860714D01*
X247514880Y-91955952D01*
X247514880Y-92194047D01*
X247562500Y-92289285D01*
X247610119Y-92336904D01*
X247705357Y-92384523D01*
X247800595Y-92384523D01*
X247943452Y-92336904D01*
X248514880Y-91765476D01*
X248514880Y-92384523D01*
X247514880Y-93289285D02*
X247514880Y-92813095D01*
X247991071Y-92765476D01*
X247943452Y-92813095D01*
X247895833Y-92908333D01*
X247895833Y-93146428D01*
X247943452Y-93241666D01*
X247991071Y-93289285D01*
X248086309Y-93336904D01*
X248324404Y-93336904D01*
X248419642Y-93289285D01*
X248467261Y-93241666D01*
X248514880Y-93146428D01*
X248514880Y-92908333D01*
X248467261Y-92813095D01*
X248419642Y-92765476D01*
G04 #@! TO.C,D26*
X266390285Y-85447380D02*
X266390285Y-84447380D01*
X266152190Y-84447380D01*
X266009333Y-84495000D01*
X265914095Y-84590238D01*
X265866476Y-84685476D01*
X265818857Y-84875952D01*
X265818857Y-85018809D01*
X265866476Y-85209285D01*
X265914095Y-85304523D01*
X266009333Y-85399761D01*
X266152190Y-85447380D01*
X266390285Y-85447380D01*
X265437904Y-84542619D02*
X265390285Y-84495000D01*
X265295047Y-84447380D01*
X265056952Y-84447380D01*
X264961714Y-84495000D01*
X264914095Y-84542619D01*
X264866476Y-84637857D01*
X264866476Y-84733095D01*
X264914095Y-84875952D01*
X265485523Y-85447380D01*
X264866476Y-85447380D01*
X264009333Y-84447380D02*
X264199809Y-84447380D01*
X264295047Y-84495000D01*
X264342666Y-84542619D01*
X264437904Y-84685476D01*
X264485523Y-84875952D01*
X264485523Y-85256904D01*
X264437904Y-85352142D01*
X264390285Y-85399761D01*
X264295047Y-85447380D01*
X264104571Y-85447380D01*
X264009333Y-85399761D01*
X263961714Y-85352142D01*
X263914095Y-85256904D01*
X263914095Y-85018809D01*
X263961714Y-84923571D01*
X264009333Y-84875952D01*
X264104571Y-84828333D01*
X264295047Y-84828333D01*
X264390285Y-84875952D01*
X264437904Y-84923571D01*
X264485523Y-85018809D01*
G04 #@! TO.C,D27*
X286614880Y-90860714D02*
X285614880Y-90860714D01*
X285614880Y-91098809D01*
X285662500Y-91241666D01*
X285757738Y-91336904D01*
X285852976Y-91384523D01*
X286043452Y-91432142D01*
X286186309Y-91432142D01*
X286376785Y-91384523D01*
X286472023Y-91336904D01*
X286567261Y-91241666D01*
X286614880Y-91098809D01*
X286614880Y-90860714D01*
X285710119Y-91813095D02*
X285662500Y-91860714D01*
X285614880Y-91955952D01*
X285614880Y-92194047D01*
X285662500Y-92289285D01*
X285710119Y-92336904D01*
X285805357Y-92384523D01*
X285900595Y-92384523D01*
X286043452Y-92336904D01*
X286614880Y-91765476D01*
X286614880Y-92384523D01*
X285614880Y-92717857D02*
X285614880Y-93384523D01*
X286614880Y-92955952D01*
G04 #@! TO.C,D28*
X305664880Y-90860714D02*
X304664880Y-90860714D01*
X304664880Y-91098809D01*
X304712500Y-91241666D01*
X304807738Y-91336904D01*
X304902976Y-91384523D01*
X305093452Y-91432142D01*
X305236309Y-91432142D01*
X305426785Y-91384523D01*
X305522023Y-91336904D01*
X305617261Y-91241666D01*
X305664880Y-91098809D01*
X305664880Y-90860714D01*
X304760119Y-91813095D02*
X304712500Y-91860714D01*
X304664880Y-91955952D01*
X304664880Y-92194047D01*
X304712500Y-92289285D01*
X304760119Y-92336904D01*
X304855357Y-92384523D01*
X304950595Y-92384523D01*
X305093452Y-92336904D01*
X305664880Y-91765476D01*
X305664880Y-92384523D01*
X305093452Y-92955952D02*
X305045833Y-92860714D01*
X304998214Y-92813095D01*
X304902976Y-92765476D01*
X304855357Y-92765476D01*
X304760119Y-92813095D01*
X304712500Y-92860714D01*
X304664880Y-92955952D01*
X304664880Y-93146428D01*
X304712500Y-93241666D01*
X304760119Y-93289285D01*
X304855357Y-93336904D01*
X304902976Y-93336904D01*
X304998214Y-93289285D01*
X305045833Y-93241666D01*
X305093452Y-93146428D01*
X305093452Y-92955952D01*
X305141071Y-92860714D01*
X305188690Y-92813095D01*
X305283928Y-92765476D01*
X305474404Y-92765476D01*
X305569642Y-92813095D01*
X305617261Y-92860714D01*
X305664880Y-92955952D01*
X305664880Y-93146428D01*
X305617261Y-93241666D01*
X305569642Y-93289285D01*
X305474404Y-93336904D01*
X305283928Y-93336904D01*
X305188690Y-93289285D01*
X305141071Y-93241666D01*
X305093452Y-93146428D01*
G04 #@! TO.C,D29*
X329477380Y-90860714D02*
X328477380Y-90860714D01*
X328477380Y-91098809D01*
X328525000Y-91241666D01*
X328620238Y-91336904D01*
X328715476Y-91384523D01*
X328905952Y-91432142D01*
X329048809Y-91432142D01*
X329239285Y-91384523D01*
X329334523Y-91336904D01*
X329429761Y-91241666D01*
X329477380Y-91098809D01*
X329477380Y-90860714D01*
X328572619Y-91813095D02*
X328525000Y-91860714D01*
X328477380Y-91955952D01*
X328477380Y-92194047D01*
X328525000Y-92289285D01*
X328572619Y-92336904D01*
X328667857Y-92384523D01*
X328763095Y-92384523D01*
X328905952Y-92336904D01*
X329477380Y-91765476D01*
X329477380Y-92384523D01*
X329477380Y-92860714D02*
X329477380Y-93051190D01*
X329429761Y-93146428D01*
X329382142Y-93194047D01*
X329239285Y-93289285D01*
X329048809Y-93336904D01*
X328667857Y-93336904D01*
X328572619Y-93289285D01*
X328525000Y-93241666D01*
X328477380Y-93146428D01*
X328477380Y-92955952D01*
X328525000Y-92860714D01*
X328572619Y-92813095D01*
X328667857Y-92765476D01*
X328905952Y-92765476D01*
X329001190Y-92813095D01*
X329048809Y-92860714D01*
X329096428Y-92955952D01*
X329096428Y-93146428D01*
X329048809Y-93241666D01*
X329001190Y-93289285D01*
X328905952Y-93336904D01*
G04 #@! TO.C,D30*
X359100380Y-97210714D02*
X358100380Y-97210714D01*
X358100380Y-97448809D01*
X358148000Y-97591666D01*
X358243238Y-97686904D01*
X358338476Y-97734523D01*
X358528952Y-97782142D01*
X358671809Y-97782142D01*
X358862285Y-97734523D01*
X358957523Y-97686904D01*
X359052761Y-97591666D01*
X359100380Y-97448809D01*
X359100380Y-97210714D01*
X358100380Y-98115476D02*
X358100380Y-98734523D01*
X358481333Y-98401190D01*
X358481333Y-98544047D01*
X358528952Y-98639285D01*
X358576571Y-98686904D01*
X358671809Y-98734523D01*
X358909904Y-98734523D01*
X359005142Y-98686904D01*
X359052761Y-98639285D01*
X359100380Y-98544047D01*
X359100380Y-98258333D01*
X359052761Y-98163095D01*
X359005142Y-98115476D01*
X358100380Y-99353571D02*
X358100380Y-99448809D01*
X358148000Y-99544047D01*
X358195619Y-99591666D01*
X358290857Y-99639285D01*
X358481333Y-99686904D01*
X358719428Y-99686904D01*
X358909904Y-99639285D01*
X359005142Y-99591666D01*
X359052761Y-99544047D01*
X359100380Y-99448809D01*
X359100380Y-99353571D01*
X359052761Y-99258333D01*
X359005142Y-99210714D01*
X358909904Y-99163095D01*
X358719428Y-99115476D01*
X358481333Y-99115476D01*
X358290857Y-99163095D01*
X358195619Y-99210714D01*
X358148000Y-99258333D01*
X358100380Y-99353571D01*
G04 #@! TO.C,D31*
X74683630Y-109910714D02*
X73683630Y-109910714D01*
X73683630Y-110148809D01*
X73731250Y-110291666D01*
X73826488Y-110386904D01*
X73921726Y-110434523D01*
X74112202Y-110482142D01*
X74255059Y-110482142D01*
X74445535Y-110434523D01*
X74540773Y-110386904D01*
X74636011Y-110291666D01*
X74683630Y-110148809D01*
X74683630Y-109910714D01*
X73683630Y-110815476D02*
X73683630Y-111434523D01*
X74064583Y-111101190D01*
X74064583Y-111244047D01*
X74112202Y-111339285D01*
X74159821Y-111386904D01*
X74255059Y-111434523D01*
X74493154Y-111434523D01*
X74588392Y-111386904D01*
X74636011Y-111339285D01*
X74683630Y-111244047D01*
X74683630Y-110958333D01*
X74636011Y-110863095D01*
X74588392Y-110815476D01*
X74683630Y-112386904D02*
X74683630Y-111815476D01*
X74683630Y-112101190D02*
X73683630Y-112101190D01*
X73826488Y-112005952D01*
X73921726Y-111910714D01*
X73969345Y-111815476D01*
G04 #@! TO.C,D32*
X100877380Y-109910714D02*
X99877380Y-109910714D01*
X99877380Y-110148809D01*
X99925000Y-110291666D01*
X100020238Y-110386904D01*
X100115476Y-110434523D01*
X100305952Y-110482142D01*
X100448809Y-110482142D01*
X100639285Y-110434523D01*
X100734523Y-110386904D01*
X100829761Y-110291666D01*
X100877380Y-110148809D01*
X100877380Y-109910714D01*
X99877380Y-110815476D02*
X99877380Y-111434523D01*
X100258333Y-111101190D01*
X100258333Y-111244047D01*
X100305952Y-111339285D01*
X100353571Y-111386904D01*
X100448809Y-111434523D01*
X100686904Y-111434523D01*
X100782142Y-111386904D01*
X100829761Y-111339285D01*
X100877380Y-111244047D01*
X100877380Y-110958333D01*
X100829761Y-110863095D01*
X100782142Y-110815476D01*
X99972619Y-111815476D02*
X99925000Y-111863095D01*
X99877380Y-111958333D01*
X99877380Y-112196428D01*
X99925000Y-112291666D01*
X99972619Y-112339285D01*
X100067857Y-112386904D01*
X100163095Y-112386904D01*
X100305952Y-112339285D01*
X100877380Y-111767857D01*
X100877380Y-112386904D01*
G04 #@! TO.C,D33*
X119927380Y-109910714D02*
X118927380Y-109910714D01*
X118927380Y-110148809D01*
X118975000Y-110291666D01*
X119070238Y-110386904D01*
X119165476Y-110434523D01*
X119355952Y-110482142D01*
X119498809Y-110482142D01*
X119689285Y-110434523D01*
X119784523Y-110386904D01*
X119879761Y-110291666D01*
X119927380Y-110148809D01*
X119927380Y-109910714D01*
X118927380Y-110815476D02*
X118927380Y-111434523D01*
X119308333Y-111101190D01*
X119308333Y-111244047D01*
X119355952Y-111339285D01*
X119403571Y-111386904D01*
X119498809Y-111434523D01*
X119736904Y-111434523D01*
X119832142Y-111386904D01*
X119879761Y-111339285D01*
X119927380Y-111244047D01*
X119927380Y-110958333D01*
X119879761Y-110863095D01*
X119832142Y-110815476D01*
X118927380Y-111767857D02*
X118927380Y-112386904D01*
X119308333Y-112053571D01*
X119308333Y-112196428D01*
X119355952Y-112291666D01*
X119403571Y-112339285D01*
X119498809Y-112386904D01*
X119736904Y-112386904D01*
X119832142Y-112339285D01*
X119879761Y-112291666D01*
X119927380Y-112196428D01*
X119927380Y-111910714D01*
X119879761Y-111815476D01*
X119832142Y-111767857D01*
G04 #@! TO.C,D34*
X138977380Y-109910714D02*
X137977380Y-109910714D01*
X137977380Y-110148809D01*
X138025000Y-110291666D01*
X138120238Y-110386904D01*
X138215476Y-110434523D01*
X138405952Y-110482142D01*
X138548809Y-110482142D01*
X138739285Y-110434523D01*
X138834523Y-110386904D01*
X138929761Y-110291666D01*
X138977380Y-110148809D01*
X138977380Y-109910714D01*
X137977380Y-110815476D02*
X137977380Y-111434523D01*
X138358333Y-111101190D01*
X138358333Y-111244047D01*
X138405952Y-111339285D01*
X138453571Y-111386904D01*
X138548809Y-111434523D01*
X138786904Y-111434523D01*
X138882142Y-111386904D01*
X138929761Y-111339285D01*
X138977380Y-111244047D01*
X138977380Y-110958333D01*
X138929761Y-110863095D01*
X138882142Y-110815476D01*
X138310714Y-112291666D02*
X138977380Y-112291666D01*
X137929761Y-112053571D02*
X138644047Y-111815476D01*
X138644047Y-112434523D01*
G04 #@! TO.C,D35*
X156535285Y-104497380D02*
X156535285Y-103497380D01*
X156297190Y-103497380D01*
X156154333Y-103545000D01*
X156059095Y-103640238D01*
X156011476Y-103735476D01*
X155963857Y-103925952D01*
X155963857Y-104068809D01*
X156011476Y-104259285D01*
X156059095Y-104354523D01*
X156154333Y-104449761D01*
X156297190Y-104497380D01*
X156535285Y-104497380D01*
X155630523Y-103497380D02*
X155011476Y-103497380D01*
X155344809Y-103878333D01*
X155201952Y-103878333D01*
X155106714Y-103925952D01*
X155059095Y-103973571D01*
X155011476Y-104068809D01*
X155011476Y-104306904D01*
X155059095Y-104402142D01*
X155106714Y-104449761D01*
X155201952Y-104497380D01*
X155487666Y-104497380D01*
X155582904Y-104449761D01*
X155630523Y-104402142D01*
X154106714Y-103497380D02*
X154582904Y-103497380D01*
X154630523Y-103973571D01*
X154582904Y-103925952D01*
X154487666Y-103878333D01*
X154249571Y-103878333D01*
X154154333Y-103925952D01*
X154106714Y-103973571D01*
X154059095Y-104068809D01*
X154059095Y-104306904D01*
X154106714Y-104402142D01*
X154154333Y-104449761D01*
X154249571Y-104497380D01*
X154487666Y-104497380D01*
X154582904Y-104449761D01*
X154630523Y-104402142D01*
G04 #@! TO.C,D36*
X177077380Y-109910714D02*
X176077380Y-109910714D01*
X176077380Y-110148809D01*
X176125000Y-110291666D01*
X176220238Y-110386904D01*
X176315476Y-110434523D01*
X176505952Y-110482142D01*
X176648809Y-110482142D01*
X176839285Y-110434523D01*
X176934523Y-110386904D01*
X177029761Y-110291666D01*
X177077380Y-110148809D01*
X177077380Y-109910714D01*
X176077380Y-110815476D02*
X176077380Y-111434523D01*
X176458333Y-111101190D01*
X176458333Y-111244047D01*
X176505952Y-111339285D01*
X176553571Y-111386904D01*
X176648809Y-111434523D01*
X176886904Y-111434523D01*
X176982142Y-111386904D01*
X177029761Y-111339285D01*
X177077380Y-111244047D01*
X177077380Y-110958333D01*
X177029761Y-110863095D01*
X176982142Y-110815476D01*
X176077380Y-112291666D02*
X176077380Y-112101190D01*
X176125000Y-112005952D01*
X176172619Y-111958333D01*
X176315476Y-111863095D01*
X176505952Y-111815476D01*
X176886904Y-111815476D01*
X176982142Y-111863095D01*
X177029761Y-111910714D01*
X177077380Y-112005952D01*
X177077380Y-112196428D01*
X177029761Y-112291666D01*
X176982142Y-112339285D01*
X176886904Y-112386904D01*
X176648809Y-112386904D01*
X176553571Y-112339285D01*
X176505952Y-112291666D01*
X176458333Y-112196428D01*
X176458333Y-112005952D01*
X176505952Y-111910714D01*
X176553571Y-111863095D01*
X176648809Y-111815476D01*
G04 #@! TO.C,D37*
X194381380Y-105846714D02*
X193381380Y-105846714D01*
X193381380Y-106084809D01*
X193429000Y-106227666D01*
X193524238Y-106322904D01*
X193619476Y-106370523D01*
X193809952Y-106418142D01*
X193952809Y-106418142D01*
X194143285Y-106370523D01*
X194238523Y-106322904D01*
X194333761Y-106227666D01*
X194381380Y-106084809D01*
X194381380Y-105846714D01*
X193381380Y-106751476D02*
X193381380Y-107370523D01*
X193762333Y-107037190D01*
X193762333Y-107180047D01*
X193809952Y-107275285D01*
X193857571Y-107322904D01*
X193952809Y-107370523D01*
X194190904Y-107370523D01*
X194286142Y-107322904D01*
X194333761Y-107275285D01*
X194381380Y-107180047D01*
X194381380Y-106894333D01*
X194333761Y-106799095D01*
X194286142Y-106751476D01*
X193381380Y-107703857D02*
X193381380Y-108370523D01*
X194381380Y-107941952D01*
G04 #@! TO.C,D38*
X215177380Y-109910714D02*
X214177380Y-109910714D01*
X214177380Y-110148809D01*
X214225000Y-110291666D01*
X214320238Y-110386904D01*
X214415476Y-110434523D01*
X214605952Y-110482142D01*
X214748809Y-110482142D01*
X214939285Y-110434523D01*
X215034523Y-110386904D01*
X215129761Y-110291666D01*
X215177380Y-110148809D01*
X215177380Y-109910714D01*
X214177380Y-110815476D02*
X214177380Y-111434523D01*
X214558333Y-111101190D01*
X214558333Y-111244047D01*
X214605952Y-111339285D01*
X214653571Y-111386904D01*
X214748809Y-111434523D01*
X214986904Y-111434523D01*
X215082142Y-111386904D01*
X215129761Y-111339285D01*
X215177380Y-111244047D01*
X215177380Y-110958333D01*
X215129761Y-110863095D01*
X215082142Y-110815476D01*
X214605952Y-112005952D02*
X214558333Y-111910714D01*
X214510714Y-111863095D01*
X214415476Y-111815476D01*
X214367857Y-111815476D01*
X214272619Y-111863095D01*
X214225000Y-111910714D01*
X214177380Y-112005952D01*
X214177380Y-112196428D01*
X214225000Y-112291666D01*
X214272619Y-112339285D01*
X214367857Y-112386904D01*
X214415476Y-112386904D01*
X214510714Y-112339285D01*
X214558333Y-112291666D01*
X214605952Y-112196428D01*
X214605952Y-112005952D01*
X214653571Y-111910714D01*
X214701190Y-111863095D01*
X214796428Y-111815476D01*
X214986904Y-111815476D01*
X215082142Y-111863095D01*
X215129761Y-111910714D01*
X215177380Y-112005952D01*
X215177380Y-112196428D01*
X215129761Y-112291666D01*
X215082142Y-112339285D01*
X214986904Y-112386904D01*
X214796428Y-112386904D01*
X214701190Y-112339285D01*
X214653571Y-112291666D01*
X214605952Y-112196428D01*
G04 #@! TO.C,D39*
X234354380Y-109910714D02*
X233354380Y-109910714D01*
X233354380Y-110148809D01*
X233402000Y-110291666D01*
X233497238Y-110386904D01*
X233592476Y-110434523D01*
X233782952Y-110482142D01*
X233925809Y-110482142D01*
X234116285Y-110434523D01*
X234211523Y-110386904D01*
X234306761Y-110291666D01*
X234354380Y-110148809D01*
X234354380Y-109910714D01*
X233354380Y-110815476D02*
X233354380Y-111434523D01*
X233735333Y-111101190D01*
X233735333Y-111244047D01*
X233782952Y-111339285D01*
X233830571Y-111386904D01*
X233925809Y-111434523D01*
X234163904Y-111434523D01*
X234259142Y-111386904D01*
X234306761Y-111339285D01*
X234354380Y-111244047D01*
X234354380Y-110958333D01*
X234306761Y-110863095D01*
X234259142Y-110815476D01*
X234354380Y-111910714D02*
X234354380Y-112101190D01*
X234306761Y-112196428D01*
X234259142Y-112244047D01*
X234116285Y-112339285D01*
X233925809Y-112386904D01*
X233544857Y-112386904D01*
X233449619Y-112339285D01*
X233402000Y-112291666D01*
X233354380Y-112196428D01*
X233354380Y-112005952D01*
X233402000Y-111910714D01*
X233449619Y-111863095D01*
X233544857Y-111815476D01*
X233782952Y-111815476D01*
X233878190Y-111863095D01*
X233925809Y-111910714D01*
X233973428Y-112005952D01*
X233973428Y-112196428D01*
X233925809Y-112291666D01*
X233878190Y-112339285D01*
X233782952Y-112386904D01*
G04 #@! TO.C,D40*
X251785285Y-104497380D02*
X251785285Y-103497380D01*
X251547190Y-103497380D01*
X251404333Y-103545000D01*
X251309095Y-103640238D01*
X251261476Y-103735476D01*
X251213857Y-103925952D01*
X251213857Y-104068809D01*
X251261476Y-104259285D01*
X251309095Y-104354523D01*
X251404333Y-104449761D01*
X251547190Y-104497380D01*
X251785285Y-104497380D01*
X250356714Y-103830714D02*
X250356714Y-104497380D01*
X250594809Y-103449761D02*
X250832904Y-104164047D01*
X250213857Y-104164047D01*
X249642428Y-103497380D02*
X249547190Y-103497380D01*
X249451952Y-103545000D01*
X249404333Y-103592619D01*
X249356714Y-103687857D01*
X249309095Y-103878333D01*
X249309095Y-104116428D01*
X249356714Y-104306904D01*
X249404333Y-104402142D01*
X249451952Y-104449761D01*
X249547190Y-104497380D01*
X249642428Y-104497380D01*
X249737666Y-104449761D01*
X249785285Y-104402142D01*
X249832904Y-104306904D01*
X249880523Y-104116428D01*
X249880523Y-103878333D01*
X249832904Y-103687857D01*
X249785285Y-103592619D01*
X249737666Y-103545000D01*
X249642428Y-103497380D01*
G04 #@! TO.C,D41*
X272327380Y-109910714D02*
X271327380Y-109910714D01*
X271327380Y-110148809D01*
X271375000Y-110291666D01*
X271470238Y-110386904D01*
X271565476Y-110434523D01*
X271755952Y-110482142D01*
X271898809Y-110482142D01*
X272089285Y-110434523D01*
X272184523Y-110386904D01*
X272279761Y-110291666D01*
X272327380Y-110148809D01*
X272327380Y-109910714D01*
X271660714Y-111339285D02*
X272327380Y-111339285D01*
X271279761Y-111101190D02*
X271994047Y-110863095D01*
X271994047Y-111482142D01*
X272327380Y-112386904D02*
X272327380Y-111815476D01*
X272327380Y-112101190D02*
X271327380Y-112101190D01*
X271470238Y-112005952D01*
X271565476Y-111910714D01*
X271613095Y-111815476D01*
G04 #@! TO.C,D42*
X291377380Y-109910714D02*
X290377380Y-109910714D01*
X290377380Y-110148809D01*
X290425000Y-110291666D01*
X290520238Y-110386904D01*
X290615476Y-110434523D01*
X290805952Y-110482142D01*
X290948809Y-110482142D01*
X291139285Y-110434523D01*
X291234523Y-110386904D01*
X291329761Y-110291666D01*
X291377380Y-110148809D01*
X291377380Y-109910714D01*
X290710714Y-111339285D02*
X291377380Y-111339285D01*
X290329761Y-111101190D02*
X291044047Y-110863095D01*
X291044047Y-111482142D01*
X290472619Y-111815476D02*
X290425000Y-111863095D01*
X290377380Y-111958333D01*
X290377380Y-112196428D01*
X290425000Y-112291666D01*
X290472619Y-112339285D01*
X290567857Y-112386904D01*
X290663095Y-112386904D01*
X290805952Y-112339285D01*
X291377380Y-111767857D01*
X291377380Y-112386904D01*
G04 #@! TO.C,D43*
X322333630Y-109910714D02*
X321333630Y-109910714D01*
X321333630Y-110148809D01*
X321381250Y-110291666D01*
X321476488Y-110386904D01*
X321571726Y-110434523D01*
X321762202Y-110482142D01*
X321905059Y-110482142D01*
X322095535Y-110434523D01*
X322190773Y-110386904D01*
X322286011Y-110291666D01*
X322333630Y-110148809D01*
X322333630Y-109910714D01*
X321666964Y-111339285D02*
X322333630Y-111339285D01*
X321286011Y-111101190D02*
X322000297Y-110863095D01*
X322000297Y-111482142D01*
X321333630Y-111767857D02*
X321333630Y-112386904D01*
X321714583Y-112053571D01*
X321714583Y-112196428D01*
X321762202Y-112291666D01*
X321809821Y-112339285D01*
X321905059Y-112386904D01*
X322143154Y-112386904D01*
X322238392Y-112339285D01*
X322286011Y-112291666D01*
X322333630Y-112196428D01*
X322333630Y-111910714D01*
X322286011Y-111815476D01*
X322238392Y-111767857D01*
G04 #@! TO.C,D44*
X79446130Y-128960714D02*
X78446130Y-128960714D01*
X78446130Y-129198809D01*
X78493750Y-129341666D01*
X78588988Y-129436904D01*
X78684226Y-129484523D01*
X78874702Y-129532142D01*
X79017559Y-129532142D01*
X79208035Y-129484523D01*
X79303273Y-129436904D01*
X79398511Y-129341666D01*
X79446130Y-129198809D01*
X79446130Y-128960714D01*
X78779464Y-130389285D02*
X79446130Y-130389285D01*
X78398511Y-130151190D02*
X79112797Y-129913095D01*
X79112797Y-130532142D01*
X78779464Y-131341666D02*
X79446130Y-131341666D01*
X78398511Y-131103571D02*
X79112797Y-130865476D01*
X79112797Y-131484523D01*
G04 #@! TO.C,D45*
X110402380Y-128960714D02*
X109402380Y-128960714D01*
X109402380Y-129198809D01*
X109450000Y-129341666D01*
X109545238Y-129436904D01*
X109640476Y-129484523D01*
X109830952Y-129532142D01*
X109973809Y-129532142D01*
X110164285Y-129484523D01*
X110259523Y-129436904D01*
X110354761Y-129341666D01*
X110402380Y-129198809D01*
X110402380Y-128960714D01*
X109735714Y-130389285D02*
X110402380Y-130389285D01*
X109354761Y-130151190D02*
X110069047Y-129913095D01*
X110069047Y-130532142D01*
X109402380Y-131389285D02*
X109402380Y-130913095D01*
X109878571Y-130865476D01*
X109830952Y-130913095D01*
X109783333Y-131008333D01*
X109783333Y-131246428D01*
X109830952Y-131341666D01*
X109878571Y-131389285D01*
X109973809Y-131436904D01*
X110211904Y-131436904D01*
X110307142Y-131389285D01*
X110354761Y-131341666D01*
X110402380Y-131246428D01*
X110402380Y-131008333D01*
X110354761Y-130913095D01*
X110307142Y-130865476D01*
G04 #@! TO.C,D46*
X128214285Y-123547380D02*
X128214285Y-122547380D01*
X127976190Y-122547380D01*
X127833333Y-122595000D01*
X127738095Y-122690238D01*
X127690476Y-122785476D01*
X127642857Y-122975952D01*
X127642857Y-123118809D01*
X127690476Y-123309285D01*
X127738095Y-123404523D01*
X127833333Y-123499761D01*
X127976190Y-123547380D01*
X128214285Y-123547380D01*
X126785714Y-122880714D02*
X126785714Y-123547380D01*
X127023809Y-122499761D02*
X127261904Y-123214047D01*
X126642857Y-123214047D01*
X125833333Y-122547380D02*
X126023809Y-122547380D01*
X126119047Y-122595000D01*
X126166666Y-122642619D01*
X126261904Y-122785476D01*
X126309523Y-122975952D01*
X126309523Y-123356904D01*
X126261904Y-123452142D01*
X126214285Y-123499761D01*
X126119047Y-123547380D01*
X125928571Y-123547380D01*
X125833333Y-123499761D01*
X125785714Y-123452142D01*
X125738095Y-123356904D01*
X125738095Y-123118809D01*
X125785714Y-123023571D01*
X125833333Y-122975952D01*
X125928571Y-122928333D01*
X126119047Y-122928333D01*
X126214285Y-122975952D01*
X126261904Y-123023571D01*
X126309523Y-123118809D01*
G04 #@! TO.C,D47*
X148502380Y-128960714D02*
X147502380Y-128960714D01*
X147502380Y-129198809D01*
X147550000Y-129341666D01*
X147645238Y-129436904D01*
X147740476Y-129484523D01*
X147930952Y-129532142D01*
X148073809Y-129532142D01*
X148264285Y-129484523D01*
X148359523Y-129436904D01*
X148454761Y-129341666D01*
X148502380Y-129198809D01*
X148502380Y-128960714D01*
X147835714Y-130389285D02*
X148502380Y-130389285D01*
X147454761Y-130151190D02*
X148169047Y-129913095D01*
X148169047Y-130532142D01*
X147502380Y-130817857D02*
X147502380Y-131484523D01*
X148502380Y-131055952D01*
G04 #@! TO.C,D48*
X167552380Y-128960714D02*
X166552380Y-128960714D01*
X166552380Y-129198809D01*
X166600000Y-129341666D01*
X166695238Y-129436904D01*
X166790476Y-129484523D01*
X166980952Y-129532142D01*
X167123809Y-129532142D01*
X167314285Y-129484523D01*
X167409523Y-129436904D01*
X167504761Y-129341666D01*
X167552380Y-129198809D01*
X167552380Y-128960714D01*
X166885714Y-130389285D02*
X167552380Y-130389285D01*
X166504761Y-130151190D02*
X167219047Y-129913095D01*
X167219047Y-130532142D01*
X166980952Y-131055952D02*
X166933333Y-130960714D01*
X166885714Y-130913095D01*
X166790476Y-130865476D01*
X166742857Y-130865476D01*
X166647619Y-130913095D01*
X166600000Y-130960714D01*
X166552380Y-131055952D01*
X166552380Y-131246428D01*
X166600000Y-131341666D01*
X166647619Y-131389285D01*
X166742857Y-131436904D01*
X166790476Y-131436904D01*
X166885714Y-131389285D01*
X166933333Y-131341666D01*
X166980952Y-131246428D01*
X166980952Y-131055952D01*
X167028571Y-130960714D01*
X167076190Y-130913095D01*
X167171428Y-130865476D01*
X167361904Y-130865476D01*
X167457142Y-130913095D01*
X167504761Y-130960714D01*
X167552380Y-131055952D01*
X167552380Y-131246428D01*
X167504761Y-131341666D01*
X167457142Y-131389285D01*
X167361904Y-131436904D01*
X167171428Y-131436904D01*
X167076190Y-131389285D01*
X167028571Y-131341666D01*
X166980952Y-131246428D01*
G04 #@! TO.C,D49*
X186602380Y-128960714D02*
X185602380Y-128960714D01*
X185602380Y-129198809D01*
X185650000Y-129341666D01*
X185745238Y-129436904D01*
X185840476Y-129484523D01*
X186030952Y-129532142D01*
X186173809Y-129532142D01*
X186364285Y-129484523D01*
X186459523Y-129436904D01*
X186554761Y-129341666D01*
X186602380Y-129198809D01*
X186602380Y-128960714D01*
X185935714Y-130389285D02*
X186602380Y-130389285D01*
X185554761Y-130151190D02*
X186269047Y-129913095D01*
X186269047Y-130532142D01*
X186602380Y-130960714D02*
X186602380Y-131151190D01*
X186554761Y-131246428D01*
X186507142Y-131294047D01*
X186364285Y-131389285D01*
X186173809Y-131436904D01*
X185792857Y-131436904D01*
X185697619Y-131389285D01*
X185650000Y-131341666D01*
X185602380Y-131246428D01*
X185602380Y-131055952D01*
X185650000Y-130960714D01*
X185697619Y-130913095D01*
X185792857Y-130865476D01*
X186030952Y-130865476D01*
X186126190Y-130913095D01*
X186173809Y-130960714D01*
X186221428Y-131055952D01*
X186221428Y-131246428D01*
X186173809Y-131341666D01*
X186126190Y-131389285D01*
X186030952Y-131436904D01*
G04 #@! TO.C,D50*
X205652380Y-128960714D02*
X204652380Y-128960714D01*
X204652380Y-129198809D01*
X204700000Y-129341666D01*
X204795238Y-129436904D01*
X204890476Y-129484523D01*
X205080952Y-129532142D01*
X205223809Y-129532142D01*
X205414285Y-129484523D01*
X205509523Y-129436904D01*
X205604761Y-129341666D01*
X205652380Y-129198809D01*
X205652380Y-128960714D01*
X204652380Y-130436904D02*
X204652380Y-129960714D01*
X205128571Y-129913095D01*
X205080952Y-129960714D01*
X205033333Y-130055952D01*
X205033333Y-130294047D01*
X205080952Y-130389285D01*
X205128571Y-130436904D01*
X205223809Y-130484523D01*
X205461904Y-130484523D01*
X205557142Y-130436904D01*
X205604761Y-130389285D01*
X205652380Y-130294047D01*
X205652380Y-130055952D01*
X205604761Y-129960714D01*
X205557142Y-129913095D01*
X204652380Y-131103571D02*
X204652380Y-131198809D01*
X204700000Y-131294047D01*
X204747619Y-131341666D01*
X204842857Y-131389285D01*
X205033333Y-131436904D01*
X205271428Y-131436904D01*
X205461904Y-131389285D01*
X205557142Y-131341666D01*
X205604761Y-131294047D01*
X205652380Y-131198809D01*
X205652380Y-131103571D01*
X205604761Y-131008333D01*
X205557142Y-130960714D01*
X205461904Y-130913095D01*
X205271428Y-130865476D01*
X205033333Y-130865476D01*
X204842857Y-130913095D01*
X204747619Y-130960714D01*
X204700000Y-131008333D01*
X204652380Y-131103571D01*
G04 #@! TO.C,D51*
X224702380Y-128960714D02*
X223702380Y-128960714D01*
X223702380Y-129198809D01*
X223750000Y-129341666D01*
X223845238Y-129436904D01*
X223940476Y-129484523D01*
X224130952Y-129532142D01*
X224273809Y-129532142D01*
X224464285Y-129484523D01*
X224559523Y-129436904D01*
X224654761Y-129341666D01*
X224702380Y-129198809D01*
X224702380Y-128960714D01*
X223702380Y-130436904D02*
X223702380Y-129960714D01*
X224178571Y-129913095D01*
X224130952Y-129960714D01*
X224083333Y-130055952D01*
X224083333Y-130294047D01*
X224130952Y-130389285D01*
X224178571Y-130436904D01*
X224273809Y-130484523D01*
X224511904Y-130484523D01*
X224607142Y-130436904D01*
X224654761Y-130389285D01*
X224702380Y-130294047D01*
X224702380Y-130055952D01*
X224654761Y-129960714D01*
X224607142Y-129913095D01*
X224702380Y-131436904D02*
X224702380Y-130865476D01*
X224702380Y-131151190D02*
X223702380Y-131151190D01*
X223845238Y-131055952D01*
X223940476Y-130960714D01*
X223988095Y-130865476D01*
G04 #@! TO.C,D52*
X243752380Y-128960714D02*
X242752380Y-128960714D01*
X242752380Y-129198809D01*
X242800000Y-129341666D01*
X242895238Y-129436904D01*
X242990476Y-129484523D01*
X243180952Y-129532142D01*
X243323809Y-129532142D01*
X243514285Y-129484523D01*
X243609523Y-129436904D01*
X243704761Y-129341666D01*
X243752380Y-129198809D01*
X243752380Y-128960714D01*
X242752380Y-130436904D02*
X242752380Y-129960714D01*
X243228571Y-129913095D01*
X243180952Y-129960714D01*
X243133333Y-130055952D01*
X243133333Y-130294047D01*
X243180952Y-130389285D01*
X243228571Y-130436904D01*
X243323809Y-130484523D01*
X243561904Y-130484523D01*
X243657142Y-130436904D01*
X243704761Y-130389285D01*
X243752380Y-130294047D01*
X243752380Y-130055952D01*
X243704761Y-129960714D01*
X243657142Y-129913095D01*
X242847619Y-130865476D02*
X242800000Y-130913095D01*
X242752380Y-131008333D01*
X242752380Y-131246428D01*
X242800000Y-131341666D01*
X242847619Y-131389285D01*
X242942857Y-131436904D01*
X243038095Y-131436904D01*
X243180952Y-131389285D01*
X243752380Y-130817857D01*
X243752380Y-131436904D01*
G04 #@! TO.C,D53*
X262802380Y-128960714D02*
X261802380Y-128960714D01*
X261802380Y-129198809D01*
X261850000Y-129341666D01*
X261945238Y-129436904D01*
X262040476Y-129484523D01*
X262230952Y-129532142D01*
X262373809Y-129532142D01*
X262564285Y-129484523D01*
X262659523Y-129436904D01*
X262754761Y-129341666D01*
X262802380Y-129198809D01*
X262802380Y-128960714D01*
X261802380Y-130436904D02*
X261802380Y-129960714D01*
X262278571Y-129913095D01*
X262230952Y-129960714D01*
X262183333Y-130055952D01*
X262183333Y-130294047D01*
X262230952Y-130389285D01*
X262278571Y-130436904D01*
X262373809Y-130484523D01*
X262611904Y-130484523D01*
X262707142Y-130436904D01*
X262754761Y-130389285D01*
X262802380Y-130294047D01*
X262802380Y-130055952D01*
X262754761Y-129960714D01*
X262707142Y-129913095D01*
X261802380Y-130817857D02*
X261802380Y-131436904D01*
X262183333Y-131103571D01*
X262183333Y-131246428D01*
X262230952Y-131341666D01*
X262278571Y-131389285D01*
X262373809Y-131436904D01*
X262611904Y-131436904D01*
X262707142Y-131389285D01*
X262754761Y-131341666D01*
X262802380Y-131246428D01*
X262802380Y-130960714D01*
X262754761Y-130865476D01*
X262707142Y-130817857D01*
G04 #@! TO.C,D54*
X280995285Y-123547380D02*
X280995285Y-122547380D01*
X280757190Y-122547380D01*
X280614333Y-122595000D01*
X280519095Y-122690238D01*
X280471476Y-122785476D01*
X280423857Y-122975952D01*
X280423857Y-123118809D01*
X280471476Y-123309285D01*
X280519095Y-123404523D01*
X280614333Y-123499761D01*
X280757190Y-123547380D01*
X280995285Y-123547380D01*
X279519095Y-122547380D02*
X279995285Y-122547380D01*
X280042904Y-123023571D01*
X279995285Y-122975952D01*
X279900047Y-122928333D01*
X279661952Y-122928333D01*
X279566714Y-122975952D01*
X279519095Y-123023571D01*
X279471476Y-123118809D01*
X279471476Y-123356904D01*
X279519095Y-123452142D01*
X279566714Y-123499761D01*
X279661952Y-123547380D01*
X279900047Y-123547380D01*
X279995285Y-123499761D01*
X280042904Y-123452142D01*
X278614333Y-122880714D02*
X278614333Y-123547380D01*
X278852428Y-122499761D02*
X279090523Y-123214047D01*
X278471476Y-123214047D01*
G04 #@! TO.C,D55*
X312808630Y-128960714D02*
X311808630Y-128960714D01*
X311808630Y-129198809D01*
X311856250Y-129341666D01*
X311951488Y-129436904D01*
X312046726Y-129484523D01*
X312237202Y-129532142D01*
X312380059Y-129532142D01*
X312570535Y-129484523D01*
X312665773Y-129436904D01*
X312761011Y-129341666D01*
X312808630Y-129198809D01*
X312808630Y-128960714D01*
X311808630Y-130436904D02*
X311808630Y-129960714D01*
X312284821Y-129913095D01*
X312237202Y-129960714D01*
X312189583Y-130055952D01*
X312189583Y-130294047D01*
X312237202Y-130389285D01*
X312284821Y-130436904D01*
X312380059Y-130484523D01*
X312618154Y-130484523D01*
X312713392Y-130436904D01*
X312761011Y-130389285D01*
X312808630Y-130294047D01*
X312808630Y-130055952D01*
X312761011Y-129960714D01*
X312713392Y-129913095D01*
X311808630Y-131389285D02*
X311808630Y-130913095D01*
X312284821Y-130865476D01*
X312237202Y-130913095D01*
X312189583Y-131008333D01*
X312189583Y-131246428D01*
X312237202Y-131341666D01*
X312284821Y-131389285D01*
X312380059Y-131436904D01*
X312618154Y-131436904D01*
X312713392Y-131389285D01*
X312761011Y-131341666D01*
X312808630Y-131246428D01*
X312808630Y-131008333D01*
X312761011Y-130913095D01*
X312713392Y-130865476D01*
G04 #@! TO.C,D56*
X343352285Y-133929380D02*
X343352285Y-132929380D01*
X343114190Y-132929380D01*
X342971333Y-132977000D01*
X342876095Y-133072238D01*
X342828476Y-133167476D01*
X342780857Y-133357952D01*
X342780857Y-133500809D01*
X342828476Y-133691285D01*
X342876095Y-133786523D01*
X342971333Y-133881761D01*
X343114190Y-133929380D01*
X343352285Y-133929380D01*
X341876095Y-132929380D02*
X342352285Y-132929380D01*
X342399904Y-133405571D01*
X342352285Y-133357952D01*
X342257047Y-133310333D01*
X342018952Y-133310333D01*
X341923714Y-133357952D01*
X341876095Y-133405571D01*
X341828476Y-133500809D01*
X341828476Y-133738904D01*
X341876095Y-133834142D01*
X341923714Y-133881761D01*
X342018952Y-133929380D01*
X342257047Y-133929380D01*
X342352285Y-133881761D01*
X342399904Y-133834142D01*
X340971333Y-132929380D02*
X341161809Y-132929380D01*
X341257047Y-132977000D01*
X341304666Y-133024619D01*
X341399904Y-133167476D01*
X341447523Y-133357952D01*
X341447523Y-133738904D01*
X341399904Y-133834142D01*
X341352285Y-133881761D01*
X341257047Y-133929380D01*
X341066571Y-133929380D01*
X340971333Y-133881761D01*
X340923714Y-133834142D01*
X340876095Y-133738904D01*
X340876095Y-133500809D01*
X340923714Y-133405571D01*
X340971333Y-133357952D01*
X341066571Y-133310333D01*
X341257047Y-133310333D01*
X341352285Y-133357952D01*
X341399904Y-133405571D01*
X341447523Y-133500809D01*
G04 #@! TO.C,D57*
X68778285Y-142597380D02*
X68778285Y-141597380D01*
X68540190Y-141597380D01*
X68397333Y-141645000D01*
X68302095Y-141740238D01*
X68254476Y-141835476D01*
X68206857Y-142025952D01*
X68206857Y-142168809D01*
X68254476Y-142359285D01*
X68302095Y-142454523D01*
X68397333Y-142549761D01*
X68540190Y-142597380D01*
X68778285Y-142597380D01*
X67302095Y-141597380D02*
X67778285Y-141597380D01*
X67825904Y-142073571D01*
X67778285Y-142025952D01*
X67683047Y-141978333D01*
X67444952Y-141978333D01*
X67349714Y-142025952D01*
X67302095Y-142073571D01*
X67254476Y-142168809D01*
X67254476Y-142406904D01*
X67302095Y-142502142D01*
X67349714Y-142549761D01*
X67444952Y-142597380D01*
X67683047Y-142597380D01*
X67778285Y-142549761D01*
X67825904Y-142502142D01*
X66921142Y-141597380D02*
X66254476Y-141597380D01*
X66683047Y-142597380D01*
G04 #@! TO.C,D58*
X91352380Y-148010714D02*
X90352380Y-148010714D01*
X90352380Y-148248809D01*
X90400000Y-148391666D01*
X90495238Y-148486904D01*
X90590476Y-148534523D01*
X90780952Y-148582142D01*
X90923809Y-148582142D01*
X91114285Y-148534523D01*
X91209523Y-148486904D01*
X91304761Y-148391666D01*
X91352380Y-148248809D01*
X91352380Y-148010714D01*
X90352380Y-149486904D02*
X90352380Y-149010714D01*
X90828571Y-148963095D01*
X90780952Y-149010714D01*
X90733333Y-149105952D01*
X90733333Y-149344047D01*
X90780952Y-149439285D01*
X90828571Y-149486904D01*
X90923809Y-149534523D01*
X91161904Y-149534523D01*
X91257142Y-149486904D01*
X91304761Y-149439285D01*
X91352380Y-149344047D01*
X91352380Y-149105952D01*
X91304761Y-149010714D01*
X91257142Y-148963095D01*
X90780952Y-150105952D02*
X90733333Y-150010714D01*
X90685714Y-149963095D01*
X90590476Y-149915476D01*
X90542857Y-149915476D01*
X90447619Y-149963095D01*
X90400000Y-150010714D01*
X90352380Y-150105952D01*
X90352380Y-150296428D01*
X90400000Y-150391666D01*
X90447619Y-150439285D01*
X90542857Y-150486904D01*
X90590476Y-150486904D01*
X90685714Y-150439285D01*
X90733333Y-150391666D01*
X90780952Y-150296428D01*
X90780952Y-150105952D01*
X90828571Y-150010714D01*
X90876190Y-149963095D01*
X90971428Y-149915476D01*
X91161904Y-149915476D01*
X91257142Y-149963095D01*
X91304761Y-150010714D01*
X91352380Y-150105952D01*
X91352380Y-150296428D01*
X91304761Y-150391666D01*
X91257142Y-150439285D01*
X91161904Y-150486904D01*
X90971428Y-150486904D01*
X90876190Y-150439285D01*
X90828571Y-150391666D01*
X90780952Y-150296428D01*
G04 #@! TO.C,D59*
X112783630Y-148010714D02*
X111783630Y-148010714D01*
X111783630Y-148248809D01*
X111831250Y-148391666D01*
X111926488Y-148486904D01*
X112021726Y-148534523D01*
X112212202Y-148582142D01*
X112355059Y-148582142D01*
X112545535Y-148534523D01*
X112640773Y-148486904D01*
X112736011Y-148391666D01*
X112783630Y-148248809D01*
X112783630Y-148010714D01*
X111783630Y-149486904D02*
X111783630Y-149010714D01*
X112259821Y-148963095D01*
X112212202Y-149010714D01*
X112164583Y-149105952D01*
X112164583Y-149344047D01*
X112212202Y-149439285D01*
X112259821Y-149486904D01*
X112355059Y-149534523D01*
X112593154Y-149534523D01*
X112688392Y-149486904D01*
X112736011Y-149439285D01*
X112783630Y-149344047D01*
X112783630Y-149105952D01*
X112736011Y-149010714D01*
X112688392Y-148963095D01*
X112783630Y-150010714D02*
X112783630Y-150201190D01*
X112736011Y-150296428D01*
X112688392Y-150344047D01*
X112545535Y-150439285D01*
X112355059Y-150486904D01*
X111974107Y-150486904D01*
X111878869Y-150439285D01*
X111831250Y-150391666D01*
X111783630Y-150296428D01*
X111783630Y-150105952D01*
X111831250Y-150010714D01*
X111878869Y-149963095D01*
X111974107Y-149915476D01*
X112212202Y-149915476D01*
X112307440Y-149963095D01*
X112355059Y-150010714D01*
X112402678Y-150105952D01*
X112402678Y-150296428D01*
X112355059Y-150391666D01*
X112307440Y-150439285D01*
X112212202Y-150486904D01*
G04 #@! TO.C,D60*
X184221130Y-148010714D02*
X183221130Y-148010714D01*
X183221130Y-148248809D01*
X183268750Y-148391666D01*
X183363988Y-148486904D01*
X183459226Y-148534523D01*
X183649702Y-148582142D01*
X183792559Y-148582142D01*
X183983035Y-148534523D01*
X184078273Y-148486904D01*
X184173511Y-148391666D01*
X184221130Y-148248809D01*
X184221130Y-148010714D01*
X183221130Y-149439285D02*
X183221130Y-149248809D01*
X183268750Y-149153571D01*
X183316369Y-149105952D01*
X183459226Y-149010714D01*
X183649702Y-148963095D01*
X184030654Y-148963095D01*
X184125892Y-149010714D01*
X184173511Y-149058333D01*
X184221130Y-149153571D01*
X184221130Y-149344047D01*
X184173511Y-149439285D01*
X184125892Y-149486904D01*
X184030654Y-149534523D01*
X183792559Y-149534523D01*
X183697321Y-149486904D01*
X183649702Y-149439285D01*
X183602083Y-149344047D01*
X183602083Y-149153571D01*
X183649702Y-149058333D01*
X183697321Y-149010714D01*
X183792559Y-148963095D01*
X183221130Y-150153571D02*
X183221130Y-150248809D01*
X183268750Y-150344047D01*
X183316369Y-150391666D01*
X183411607Y-150439285D01*
X183602083Y-150486904D01*
X183840178Y-150486904D01*
X184030654Y-150439285D01*
X184125892Y-150391666D01*
X184173511Y-150344047D01*
X184221130Y-150248809D01*
X184221130Y-150153571D01*
X184173511Y-150058333D01*
X184125892Y-150010714D01*
X184030654Y-149963095D01*
X183840178Y-149915476D01*
X183602083Y-149915476D01*
X183411607Y-149963095D01*
X183316369Y-150010714D01*
X183268750Y-150058333D01*
X183221130Y-150153571D01*
G04 #@! TO.C,D61*
X255658630Y-148010714D02*
X254658630Y-148010714D01*
X254658630Y-148248809D01*
X254706250Y-148391666D01*
X254801488Y-148486904D01*
X254896726Y-148534523D01*
X255087202Y-148582142D01*
X255230059Y-148582142D01*
X255420535Y-148534523D01*
X255515773Y-148486904D01*
X255611011Y-148391666D01*
X255658630Y-148248809D01*
X255658630Y-148010714D01*
X254658630Y-149439285D02*
X254658630Y-149248809D01*
X254706250Y-149153571D01*
X254753869Y-149105952D01*
X254896726Y-149010714D01*
X255087202Y-148963095D01*
X255468154Y-148963095D01*
X255563392Y-149010714D01*
X255611011Y-149058333D01*
X255658630Y-149153571D01*
X255658630Y-149344047D01*
X255611011Y-149439285D01*
X255563392Y-149486904D01*
X255468154Y-149534523D01*
X255230059Y-149534523D01*
X255134821Y-149486904D01*
X255087202Y-149439285D01*
X255039583Y-149344047D01*
X255039583Y-149153571D01*
X255087202Y-149058333D01*
X255134821Y-149010714D01*
X255230059Y-148963095D01*
X255658630Y-150486904D02*
X255658630Y-149915476D01*
X255658630Y-150201190D02*
X254658630Y-150201190D01*
X254801488Y-150105952D01*
X254896726Y-150010714D01*
X254944345Y-149915476D01*
G04 #@! TO.C,D62*
X279471130Y-148010714D02*
X278471130Y-148010714D01*
X278471130Y-148248809D01*
X278518750Y-148391666D01*
X278613988Y-148486904D01*
X278709226Y-148534523D01*
X278899702Y-148582142D01*
X279042559Y-148582142D01*
X279233035Y-148534523D01*
X279328273Y-148486904D01*
X279423511Y-148391666D01*
X279471130Y-148248809D01*
X279471130Y-148010714D01*
X278471130Y-149439285D02*
X278471130Y-149248809D01*
X278518750Y-149153571D01*
X278566369Y-149105952D01*
X278709226Y-149010714D01*
X278899702Y-148963095D01*
X279280654Y-148963095D01*
X279375892Y-149010714D01*
X279423511Y-149058333D01*
X279471130Y-149153571D01*
X279471130Y-149344047D01*
X279423511Y-149439285D01*
X279375892Y-149486904D01*
X279280654Y-149534523D01*
X279042559Y-149534523D01*
X278947321Y-149486904D01*
X278899702Y-149439285D01*
X278852083Y-149344047D01*
X278852083Y-149153571D01*
X278899702Y-149058333D01*
X278947321Y-149010714D01*
X279042559Y-148963095D01*
X278566369Y-149915476D02*
X278518750Y-149963095D01*
X278471130Y-150058333D01*
X278471130Y-150296428D01*
X278518750Y-150391666D01*
X278566369Y-150439285D01*
X278661607Y-150486904D01*
X278756845Y-150486904D01*
X278899702Y-150439285D01*
X279471130Y-149867857D01*
X279471130Y-150486904D01*
G04 #@! TO.C,D63*
X303283630Y-148010714D02*
X302283630Y-148010714D01*
X302283630Y-148248809D01*
X302331250Y-148391666D01*
X302426488Y-148486904D01*
X302521726Y-148534523D01*
X302712202Y-148582142D01*
X302855059Y-148582142D01*
X303045535Y-148534523D01*
X303140773Y-148486904D01*
X303236011Y-148391666D01*
X303283630Y-148248809D01*
X303283630Y-148010714D01*
X302283630Y-149439285D02*
X302283630Y-149248809D01*
X302331250Y-149153571D01*
X302378869Y-149105952D01*
X302521726Y-149010714D01*
X302712202Y-148963095D01*
X303093154Y-148963095D01*
X303188392Y-149010714D01*
X303236011Y-149058333D01*
X303283630Y-149153571D01*
X303283630Y-149344047D01*
X303236011Y-149439285D01*
X303188392Y-149486904D01*
X303093154Y-149534523D01*
X302855059Y-149534523D01*
X302759821Y-149486904D01*
X302712202Y-149439285D01*
X302664583Y-149344047D01*
X302664583Y-149153571D01*
X302712202Y-149058333D01*
X302759821Y-149010714D01*
X302855059Y-148963095D01*
X302283630Y-149867857D02*
X302283630Y-150486904D01*
X302664583Y-150153571D01*
X302664583Y-150296428D01*
X302712202Y-150391666D01*
X302759821Y-150439285D01*
X302855059Y-150486904D01*
X303093154Y-150486904D01*
X303188392Y-150439285D01*
X303236011Y-150391666D01*
X303283630Y-150296428D01*
X303283630Y-150010714D01*
X303236011Y-149915476D01*
X303188392Y-149867857D01*
G04 #@! TO.C,D64*
X324714880Y-148010714D02*
X323714880Y-148010714D01*
X323714880Y-148248809D01*
X323762500Y-148391666D01*
X323857738Y-148486904D01*
X323952976Y-148534523D01*
X324143452Y-148582142D01*
X324286309Y-148582142D01*
X324476785Y-148534523D01*
X324572023Y-148486904D01*
X324667261Y-148391666D01*
X324714880Y-148248809D01*
X324714880Y-148010714D01*
X323714880Y-149439285D02*
X323714880Y-149248809D01*
X323762500Y-149153571D01*
X323810119Y-149105952D01*
X323952976Y-149010714D01*
X324143452Y-148963095D01*
X324524404Y-148963095D01*
X324619642Y-149010714D01*
X324667261Y-149058333D01*
X324714880Y-149153571D01*
X324714880Y-149344047D01*
X324667261Y-149439285D01*
X324619642Y-149486904D01*
X324524404Y-149534523D01*
X324286309Y-149534523D01*
X324191071Y-149486904D01*
X324143452Y-149439285D01*
X324095833Y-149344047D01*
X324095833Y-149153571D01*
X324143452Y-149058333D01*
X324191071Y-149010714D01*
X324286309Y-148963095D01*
X324048214Y-150391666D02*
X324714880Y-150391666D01*
X323667261Y-150153571D02*
X324381547Y-149915476D01*
X324381547Y-150534523D01*
G04 #@! TO.C,D65*
X340875880Y-143438714D02*
X339875880Y-143438714D01*
X339875880Y-143676809D01*
X339923500Y-143819666D01*
X340018738Y-143914904D01*
X340113976Y-143962523D01*
X340304452Y-144010142D01*
X340447309Y-144010142D01*
X340637785Y-143962523D01*
X340733023Y-143914904D01*
X340828261Y-143819666D01*
X340875880Y-143676809D01*
X340875880Y-143438714D01*
X339875880Y-144867285D02*
X339875880Y-144676809D01*
X339923500Y-144581571D01*
X339971119Y-144533952D01*
X340113976Y-144438714D01*
X340304452Y-144391095D01*
X340685404Y-144391095D01*
X340780642Y-144438714D01*
X340828261Y-144486333D01*
X340875880Y-144581571D01*
X340875880Y-144772047D01*
X340828261Y-144867285D01*
X340780642Y-144914904D01*
X340685404Y-144962523D01*
X340447309Y-144962523D01*
X340352071Y-144914904D01*
X340304452Y-144867285D01*
X340256833Y-144772047D01*
X340256833Y-144581571D01*
X340304452Y-144486333D01*
X340352071Y-144438714D01*
X340447309Y-144391095D01*
X339875880Y-145867285D02*
X339875880Y-145391095D01*
X340352071Y-145343476D01*
X340304452Y-145391095D01*
X340256833Y-145486333D01*
X340256833Y-145724428D01*
X340304452Y-145819666D01*
X340352071Y-145867285D01*
X340447309Y-145914904D01*
X340685404Y-145914904D01*
X340780642Y-145867285D01*
X340828261Y-145819666D01*
X340875880Y-145724428D01*
X340875880Y-145486333D01*
X340828261Y-145391095D01*
X340780642Y-145343476D01*
G04 #@! TO.C,D66*
X360116380Y-143565714D02*
X359116380Y-143565714D01*
X359116380Y-143803809D01*
X359164000Y-143946666D01*
X359259238Y-144041904D01*
X359354476Y-144089523D01*
X359544952Y-144137142D01*
X359687809Y-144137142D01*
X359878285Y-144089523D01*
X359973523Y-144041904D01*
X360068761Y-143946666D01*
X360116380Y-143803809D01*
X360116380Y-143565714D01*
X359116380Y-144994285D02*
X359116380Y-144803809D01*
X359164000Y-144708571D01*
X359211619Y-144660952D01*
X359354476Y-144565714D01*
X359544952Y-144518095D01*
X359925904Y-144518095D01*
X360021142Y-144565714D01*
X360068761Y-144613333D01*
X360116380Y-144708571D01*
X360116380Y-144899047D01*
X360068761Y-144994285D01*
X360021142Y-145041904D01*
X359925904Y-145089523D01*
X359687809Y-145089523D01*
X359592571Y-145041904D01*
X359544952Y-144994285D01*
X359497333Y-144899047D01*
X359497333Y-144708571D01*
X359544952Y-144613333D01*
X359592571Y-144565714D01*
X359687809Y-144518095D01*
X359116380Y-145946666D02*
X359116380Y-145756190D01*
X359164000Y-145660952D01*
X359211619Y-145613333D01*
X359354476Y-145518095D01*
X359544952Y-145470476D01*
X359925904Y-145470476D01*
X360021142Y-145518095D01*
X360068761Y-145565714D01*
X360116380Y-145660952D01*
X360116380Y-145851428D01*
X360068761Y-145946666D01*
X360021142Y-145994285D01*
X359925904Y-146041904D01*
X359687809Y-146041904D01*
X359592571Y-145994285D01*
X359544952Y-145946666D01*
X359497333Y-145851428D01*
X359497333Y-145660952D01*
X359544952Y-145565714D01*
X359592571Y-145518095D01*
X359687809Y-145470476D01*
G04 #@! TO.C,USB1*
X344529180Y-64936904D02*
X345338704Y-64936904D01*
X345433942Y-64984523D01*
X345481561Y-65032142D01*
X345529180Y-65127380D01*
X345529180Y-65317857D01*
X345481561Y-65413095D01*
X345433942Y-65460714D01*
X345338704Y-65508333D01*
X344529180Y-65508333D01*
X345481561Y-65936904D02*
X345529180Y-66079761D01*
X345529180Y-66317857D01*
X345481561Y-66413095D01*
X345433942Y-66460714D01*
X345338704Y-66508333D01*
X345243466Y-66508333D01*
X345148228Y-66460714D01*
X345100609Y-66413095D01*
X345052990Y-66317857D01*
X345005371Y-66127380D01*
X344957752Y-66032142D01*
X344910133Y-65984523D01*
X344814895Y-65936904D01*
X344719657Y-65936904D01*
X344624419Y-65984523D01*
X344576800Y-66032142D01*
X344529180Y-66127380D01*
X344529180Y-66365476D01*
X344576800Y-66508333D01*
X345005371Y-67270238D02*
X345052990Y-67413095D01*
X345100609Y-67460714D01*
X345195847Y-67508333D01*
X345338704Y-67508333D01*
X345433942Y-67460714D01*
X345481561Y-67413095D01*
X345529180Y-67317857D01*
X345529180Y-66936904D01*
X344529180Y-66936904D01*
X344529180Y-67270238D01*
X344576800Y-67365476D01*
X344624419Y-67413095D01*
X344719657Y-67460714D01*
X344814895Y-67460714D01*
X344910133Y-67413095D01*
X344957752Y-67365476D01*
X345005371Y-67270238D01*
X345005371Y-66936904D01*
X345529180Y-68460714D02*
X345529180Y-67889285D01*
X345529180Y-68175000D02*
X344529180Y-68175000D01*
X344672038Y-68079761D01*
X344767276Y-67984523D01*
X344814895Y-67889285D01*
G04 #@! TO.C,C3*
X352909142Y-128709849D02*
X352956761Y-128662230D01*
X353004380Y-128519373D01*
X353004380Y-128424135D01*
X352956761Y-128281277D01*
X352861523Y-128186039D01*
X352766285Y-128138420D01*
X352575809Y-128090801D01*
X352432952Y-128090801D01*
X352242476Y-128138420D01*
X352147238Y-128186039D01*
X352052000Y-128281277D01*
X352004380Y-128424135D01*
X352004380Y-128519373D01*
X352052000Y-128662230D01*
X352099619Y-128709849D01*
X352004380Y-129043182D02*
X352004380Y-129662230D01*
X352385333Y-129328896D01*
X352385333Y-129471754D01*
X352432952Y-129566992D01*
X352480571Y-129614611D01*
X352575809Y-129662230D01*
X352813904Y-129662230D01*
X352909142Y-129614611D01*
X352956761Y-129566992D01*
X353004380Y-129471754D01*
X353004380Y-129186039D01*
X352956761Y-129090801D01*
X352909142Y-129043182D01*
G04 #@! TO.C,C4*
X349592166Y-129007142D02*
X349639785Y-129054761D01*
X349782642Y-129102380D01*
X349877880Y-129102380D01*
X350020738Y-129054761D01*
X350115976Y-128959523D01*
X350163595Y-128864285D01*
X350211214Y-128673809D01*
X350211214Y-128530952D01*
X350163595Y-128340476D01*
X350115976Y-128245238D01*
X350020738Y-128150000D01*
X349877880Y-128102380D01*
X349782642Y-128102380D01*
X349639785Y-128150000D01*
X349592166Y-128197619D01*
X348735023Y-128435714D02*
X348735023Y-129102380D01*
X348973119Y-128054761D02*
X349211214Y-128769047D01*
X348592166Y-128769047D01*
G04 #@! TO.C,C6*
X352447648Y-132466626D02*
X352495267Y-132514245D01*
X352638124Y-132561864D01*
X352733362Y-132561864D01*
X352876220Y-132514245D01*
X352971458Y-132419007D01*
X353019077Y-132323769D01*
X353066696Y-132133293D01*
X353066696Y-131990436D01*
X353019077Y-131799960D01*
X352971458Y-131704722D01*
X352876220Y-131609484D01*
X352733362Y-131561864D01*
X352638124Y-131561864D01*
X352495267Y-131609484D01*
X352447648Y-131657103D01*
X351590505Y-131561864D02*
X351780982Y-131561864D01*
X351876220Y-131609484D01*
X351923839Y-131657103D01*
X352019077Y-131799960D01*
X352066696Y-131990436D01*
X352066696Y-132371388D01*
X352019077Y-132466626D01*
X351971458Y-132514245D01*
X351876220Y-132561864D01*
X351685743Y-132561864D01*
X351590505Y-132514245D01*
X351542886Y-132466626D01*
X351495267Y-132371388D01*
X351495267Y-132133293D01*
X351542886Y-132038055D01*
X351590505Y-131990436D01*
X351685743Y-131942817D01*
X351876220Y-131942817D01*
X351971458Y-131990436D01*
X352019077Y-132038055D01*
X352066696Y-132133293D01*
G04 #@! TO.C,R1*
X345002380Y-122277333D02*
X344526190Y-121944000D01*
X345002380Y-121705904D02*
X344002380Y-121705904D01*
X344002380Y-122086857D01*
X344050000Y-122182095D01*
X344097619Y-122229714D01*
X344192857Y-122277333D01*
X344335714Y-122277333D01*
X344430952Y-122229714D01*
X344478571Y-122182095D01*
X344526190Y-122086857D01*
X344526190Y-121705904D01*
X345002380Y-123229714D02*
X345002380Y-122658285D01*
X345002380Y-122944000D02*
X344002380Y-122944000D01*
X344145238Y-122848761D01*
X344240476Y-122753523D01*
X344288095Y-122658285D01*
G04 #@! TO.C,R3*
X357369166Y-124786380D02*
X357702500Y-124310190D01*
X357940595Y-124786380D02*
X357940595Y-123786380D01*
X357559642Y-123786380D01*
X357464404Y-123834000D01*
X357416785Y-123881619D01*
X357369166Y-123976857D01*
X357369166Y-124119714D01*
X357416785Y-124214952D01*
X357464404Y-124262571D01*
X357559642Y-124310190D01*
X357940595Y-124310190D01*
X357035833Y-123786380D02*
X356416785Y-123786380D01*
X356750119Y-124167333D01*
X356607261Y-124167333D01*
X356512023Y-124214952D01*
X356464404Y-124262571D01*
X356416785Y-124357809D01*
X356416785Y-124595904D01*
X356464404Y-124691142D01*
X356512023Y-124738761D01*
X356607261Y-124786380D01*
X356892976Y-124786380D01*
X356988214Y-124738761D01*
X357035833Y-124691142D01*
G04 #@! TO.C,SW1*
X357579761Y-107416666D02*
X357627380Y-107559523D01*
X357627380Y-107797619D01*
X357579761Y-107892857D01*
X357532142Y-107940476D01*
X357436904Y-107988095D01*
X357341666Y-107988095D01*
X357246428Y-107940476D01*
X357198809Y-107892857D01*
X357151190Y-107797619D01*
X357103571Y-107607142D01*
X357055952Y-107511904D01*
X357008333Y-107464285D01*
X356913095Y-107416666D01*
X356817857Y-107416666D01*
X356722619Y-107464285D01*
X356675000Y-107511904D01*
X356627380Y-107607142D01*
X356627380Y-107845238D01*
X356675000Y-107988095D01*
X356627380Y-108321428D02*
X357627380Y-108559523D01*
X356913095Y-108750000D01*
X357627380Y-108940476D01*
X356627380Y-109178571D01*
X357627380Y-110083333D02*
X357627380Y-109511904D01*
X357627380Y-109797619D02*
X356627380Y-109797619D01*
X356770238Y-109702380D01*
X356865476Y-109607142D01*
X356913095Y-109511904D01*
G04 #@! TO.C,C1*
X357369166Y-133731142D02*
X357416785Y-133778761D01*
X357559642Y-133826380D01*
X357654880Y-133826380D01*
X357797738Y-133778761D01*
X357892976Y-133683523D01*
X357940595Y-133588285D01*
X357988214Y-133397809D01*
X357988214Y-133254952D01*
X357940595Y-133064476D01*
X357892976Y-132969238D01*
X357797738Y-132874000D01*
X357654880Y-132826380D01*
X357559642Y-132826380D01*
X357416785Y-132874000D01*
X357369166Y-132921619D01*
X356416785Y-133826380D02*
X356988214Y-133826380D01*
X356702500Y-133826380D02*
X356702500Y-132826380D01*
X356797738Y-132969238D01*
X356892976Y-133064476D01*
X356988214Y-133112095D01*
G04 #@! TD*
M02*
